#include <stdint.h>
const uint8_t fighter[] = {
0x4d,0x54,0x68,0x64,0x00,0x00,0x00,0x06,0x00,0x01,0x00,0x15,0x01,0xe0,0x4d,0x54,
0x72,0x6b,0x00,0x00,0x00,0x19,0x00,0xff,0x51,0x03,0x05,0x3b,0x49,0x00,0xff,0x58,
0x04,0x04,0x02,0x60,0x08,0x00,0xff,0x59,0x02,0x00,0x00,0x00,0xff,0x2f,0x00,0x4d,
0x54,0x72,0x6b,0x00,0x00,0x05,0x7d,0x00,0xff,0x03,0x06,0x4d,0x65,0x6c,0x6f,0x64,
0x79,0x00,0xff,0x21,0x01,0x00,0x00,0xff,0x20,0x01,0x00,0x00,0xb0,0x07,0x7d,0x00,
0xb0,0x0a,0x40,0x00,0xc0,0x1d,0x81,0xf9,0x30,0x90,0x43,0x64,0x00,0x90,0x3f,0x64,
0x81,0x46,0x80,0x3f,0x64,0x00,0x80,0x43,0x64,0x2a,0x90,0x48,0x64,0x00,0x90,0x43,
0x64,0x81,0x3b,0x80,0x43,0x64,0x00,0x80,0x48,0x64,0x35,0x90,0x4b,0x64,0x00,0x90,
0x48,0x64,0x81,0x46,0x80,0x48,0x64,0x00,0x80,0x4b,0x64,0x2a,0x90,0x4f,0x64,0x00,
0x90,0x4b,0x64,0x83,0x36,0x80,0x4b,0x64,0x00,0x80,0x4f,0x64,0x2a,0x90,0x4f,0x64,
0x00,0x90,0x4b,0x64,0x81,0x3b,0x80,0x4b,0x64,0x00,0x80,0x4f,0x64,0x35,0x90,0x4d,
0x64,0x00,0x90,0x4a,0x64,0x83,0x2b,0x80,0x4a,0x64,0x00,0x80,0x4d,0x64,0x35,0x90,
0x4d,0x64,0x00,0x90,0x4a,0x64,0x81,0x46,0x80,0x4a,0x64,0x00,0x80,0x4d,0x64,0x2a,
0x90,0x4b,0x64,0x00,0x90,0x48,0x64,0x81,0x3b,0x80,0x4b,0x64,0x35,0x90,0x4b,0x64,
0x81,0x46,0x80,0x48,0x64,0x00,0x80,0x4b,0x64,0x2a,0x90,0x4a,0x64,0x00,0x90,0x47,
0x64,0x83,0x36,0x80,0x47,0x64,0x00,0x80,0x4a,0x64,0x2a,0x90,0x4d,0x64,0x00,0x90,
0x4a,0x64,0x83,0x36,0x80,0x4a,0x64,0x00,0x80,0x4d,0x64,0x82,0x1a,0x90,0x43,0x64,
0x00,0x90,0x40,0x64,0x81,0x46,0x80,0x40,0x64,0x00,0x80,0x43,0x64,0x2a,0x90,0x47,
0x64,0x00,0x90,0x43,0x64,0x81,0x3b,0x80,0x43,0x64,0x00,0x80,0x47,0x64,0x35,0x90,
0x4a,0x64,0x00,0x90,0x47,0x64,0x81,0x46,0x80,0x47,0x64,0x00,0x80,0x4a,0x64,0x2a,
0x90,0x4d,0x64,0x00,0x90,0x4a,0x64,0x83,0x21,0x80,0x4d,0x64,0x15,0x80,0x4a,0x64,
0x2a,0x90,0x4d,0x64,0x00,0x90,0x4a,0x64,0x81,0x3b,0x80,0x4a,0x64,0x00,0x80,0x4d,
0x64,0x35,0x90,0x4b,0x64,0x00,0x90,0x48,0x64,0x83,0x2b,0x80,0x48,0x64,0x00,0x80,
0x4b,0x64,0x35,0x90,0x4b,0x64,0x00,0x90,0x48,0x64,0x81,0x46,0x80,0x48,0x64,0x00,
0x80,0x4b,0x64,0x2a,0x90,0x4a,0x64,0x00,0x90,0x47,0x64,0x83,0x36,0x80,0x47,0x64,
0x00,0x80,0x4a,0x64,0x2a,0x90,0x48,0x64,0x00,0x90,0x43,0x64,0x83,0x36,0x80,0x43,
0x64,0x00,0x80,0x48,0x64,0x2a,0x90,0x4b,0x64,0x00,0x90,0x48,0x64,0x83,0x36,0x80,
0x48,0x64,0x00,0x80,0x4b,0x64,0x82,0x1a,0x90,0x43,0x64,0x00,0x90,0x3e,0x64,0x81,
0x46,0x80,0x3e,0x64,0x00,0x80,0x43,0x64,0x2a,0x90,0x48,0x64,0x00,0x90,0x43,0x64,
0x81,0x3b,0x80,0x43,0x64,0x00,0x80,0x48,0x64,0x35,0x90,0x4b,0x64,0x00,0x90,0x48,
0x64,0x81,0x46,0x80,0x48,0x64,0x00,0x80,0x4b,0x64,0x2a,0x90,0x4f,0x64,0x00,0x90,
0x4b,0x64,0x83,0x21,0x80,0x4f,0x64,0x15,0x80,0x4b,0x64,0x2a,0x90,0x4f,0x64,0x00,
0x90,0x4b,0x64,0x81,0x3b,0x80,0x4b,0x64,0x00,0x80,0x4f,0x64,0x35,0x90,0x4d,0x64,
0x00,0x90,0x4a,0x64,0x83,0x16,0x80,0x4d,0x64,0x15,0x80,0x4a,0x64,0x35,0x90,0x4d,
0x64,0x00,0x90,0x4a,0x64,0x81,0x46,0x80,0x4a,0x64,0x00,0x80,0x4d,0x64,0x2a,0x90,
0x4b,0x64,0x00,0x90,0x48,0x64,0x81,0x3b,0x80,0x48,0x64,0x00,0x80,0x4b,0x64,0x35,
0x90,0x4b,0x64,0x00,0x90,0x48,0x64,0x81,0x46,0x80,0x48,0x64,0x00,0x80,0x4b,0x64,
0x2a,0x90,0x4a,0x64,0x00,0x90,0x47,0x64,0x83,0x36,0x80,0x47,0x64,0x00,0x80,0x4a,
0x64,0x2a,0x90,0x4d,0x64,0x00,0x90,0x4a,0x64,0x83,0x36,0x80,0x4a,0x64,0x00,0x80,
0x4d,0x64,0x82,0x1a,0x90,0x3e,0x64,0x00,0x90,0x43,0x64,0x81,0x47,0x80,0x43,0x64,
0x00,0x80,0x3e,0x64,0x29,0x90,0x47,0x64,0x00,0x90,0x43,0x64,0x81,0x51,0x80,0x43,
0x64,0x00,0x80,0x47,0x64,0x1f,0x90,0x4a,0x64,0x00,0x90,0x47,0x64,0x81,0x47,0x80,
0x47,0x64,0x00,0x80,0x4a,0x64,0x29,0x90,0x4d,0x64,0x00,0x90,0x4a,0x64,0x83,0x36,
0x80,0x4a,0x64,0x00,0x80,0x4d,0x64,0x2a,0x90,0x4f,0x64,0x00,0x90,0x4b,0x64,0x81,
0x3b,0x80,0x4b,0x64,0x00,0x80,0x4f,0x64,0x35,0x90,0x4d,0x64,0x00,0x90,0x4a,0x64,
0x81,0x46,0x80,0x4a,0x64,0x00,0x80,0x4d,0x64,0x2a,0x90,0x4b,0x64,0x00,0x90,0x48,
0x64,0x81,0x3b,0x80,0x48,0x64,0x00,0x80,0x4b,0x64,0x35,0x90,0x4a,0x64,0x00,0x90,
0x47,0x64,0x83,0x2b,0x80,0x47,0x64,0x00,0x80,0x4a,0x64,0x35,0x90,0x4b,0x64,0x00,
0x90,0x48,0x64,0x87,0x0b,0x80,0x48,0x64,0x00,0x80,0x4b,0x64,0x84,0x15,0x90,0x3e,
0x64,0x00,0x90,0x43,0x64,0x81,0x46,0x80,0x43,0x64,0x00,0x80,0x3e,0x64,0x2a,0x90,
0x43,0x64,0x00,0x90,0x48,0x64,0x81,0x3b,0x80,0x48,0x64,0x00,0x80,0x43,0x64,0x35,
0x90,0x4b,0x64,0x00,0x90,0x48,0x64,0x81,0x46,0x80,0x48,0x64,0x00,0x80,0x4b,0x64,
0x2a,0x90,0x4f,0x64,0x00,0x90,0x4b,0x64,0x83,0x36,0x80,0x4b,0x64,0x00,0x80,0x4f,
0x64,0x2a,0x90,0x4f,0x64,0x00,0x90,0x4b,0x64,0x81,0x3b,0x80,0x4b,0x64,0x00,0x80,
0x4f,0x64,0x35,0x90,0x4d,0x64,0x00,0x90,0x4a,0x64,0x83,0x2b,0x80,0x4a,0x64,0x00,
0x80,0x4d,0x64,0x35,0x90,0x4d,0x64,0x00,0x90,0x4a,0x64,0x81,0x46,0x80,0x4a,0x64,
0x00,0x80,0x4d,0x64,0x2a,0x90,0x4b,0x64,0x00,0x90,0x48,0x64,0x81,0x3b,0x80,0x4b,
0x64,0x35,0x90,0x4b,0x64,0x81,0x46,0x80,0x48,0x64,0x00,0x80,0x4b,0x64,0x2a,0x90,
0x4a,0x64,0x00,0x90,0x47,0x64,0x83,0x36,0x80,0x47,0x64,0x00,0x80,0x4a,0x64,0x2a,
0x90,0x4d,0x64,0x00,0x90,0x4a,0x64,0x83,0x36,0x80,0x4a,0x64,0x00,0x80,0x4d,0x64,
0x82,0x1a,0x90,0x43,0x64,0x00,0x90,0x3e,0x64,0x81,0x46,0x80,0x3e,0x64,0x00,0x80,
0x43,0x64,0x2a,0x90,0x47,0x64,0x00,0x90,0x43,0x64,0x81,0x3b,0x80,0x43,0x64,0x00,
0x80,0x47,0x64,0x35,0x90,0x4a,0x64,0x00,0x90,0x47,0x64,0x81,0x46,0x80,0x47,0x64,
0x00,0x80,0x4a,0x64,0x2a,0x90,0x4d,0x64,0x00,0x90,0x4a,0x64,0x83,0x21,0x80,0x4d,
0x64,0x15,0x80,0x4a,0x64,0x2a,0x90,0x4d,0x64,0x00,0x90,0x4a,0x64,0x81,0x3b,0x80,
0x4a,0x64,0x00,0x80,0x4d,0x64,0x35,0x90,0x4d,0x64,0x00,0x90,0x4a,0x64,0x81,0x46,
0x80,0x4a,0x64,0x00,0x80,0x4d,0x64,0x2a,0x90,0x4b,0x64,0x00,0x90,0x48,0x64,0x81,
0x3b,0x80,0x48,0x64,0x00,0x80,0x4b,0x64,0x35,0x90,0x4a,0x64,0x00,0x90,0x47,0x64,
0x83,0x2b,0x80,0x47,0x64,0x00,0x80,0x4a,0x64,0x35,0x90,0x48,0x64,0x00,0x90,0x43,
0x64,0x85,0x26,0x80,0x43,0x64,0x00,0x80,0x48,0x64,0x2a,0x90,0x4b,0x64,0x00,0x90,
0x48,0x64,0x83,0x36,0x80,0x48,0x64,0x00,0x80,0x4b,0x64,0x82,0x1a,0x90,0x43,0x64,
0x00,0x90,0x3e,0x64,0x81,0x46,0x80,0x3e,0x64,0x00,0x80,0x43,0x64,0x2a,0x90,0x48,
0x64,0x00,0x90,0x43,0x64,0x81,0x3b,0x80,0x43,0x64,0x00,0x80,0x48,0x64,0x35,0x90,
0x4b,0x64,0x00,0x90,0x48,0x64,0x81,0x46,0x80,0x48,0x64,0x00,0x80,0x4b,0x64,0x2a,
0x90,0x4f,0x64,0x00,0x90,0x4b,0x64,0x83,0x21,0x80,0x4f,0x64,0x15,0x80,0x4b,0x64,
0x2a,0x90,0x4f,0x64,0x00,0x90,0x4b,0x64,0x81,0x3b,0x80,0x4b,0x64,0x00,0x80,0x4f,
0x64,0x35,0x90,0x4d,0x64,0x00,0x90,0x4a,0x64,0x83,0x2b,0x80,0x4a,0x64,0x00,0x80,
0x4d,0x64,0x35,0x90,0x4d,0x64,0x00,0x90,0x4a,0x64,0x81,0x46,0x80,0x4a,0x64,0x00,
0x80,0x4d,0x64,0x2a,0x90,0x4f,0x64,0x00,0x90,0x4b,0x64,0x81,0x3b,0x80,0x4b,0x64,
0x00,0x80,0x4f,0x64,0x35,0x90,0x4f,0x64,0x00,0x90,0x4b,0x64,0x81,0x46,0x80,0x4b,
0x64,0x00,0x80,0x4f,0x64,0x2a,0x90,0x52,0x64,0x00,0x90,0x4f,0x64,0x83,0x36,0x80,
0x4f,0x64,0x00,0x80,0x52,0x64,0x2a,0x90,0x50,0x64,0x00,0x90,0x4d,0x64,0x83,0x36,
0x80,0x4d,0x64,0x00,0x80,0x50,0x64,0x82,0x1a,0x90,0x50,0x64,0x00,0x90,0x4d,0x64,
0x81,0x46,0x80,0x4d,0x64,0x00,0x80,0x50,0x64,0x2a,0x90,0x4f,0x64,0x00,0x90,0x4b,
0x64,0x81,0x3b,0x80,0x4b,0x64,0x00,0x80,0x4f,0x64,0x35,0x90,0x4d,0x64,0x00,0x90,
0x4a,0x64,0x81,0x46,0x80,0x4a,0x64,0x00,0x80,0x4d,0x64,0x2a,0x90,0x4f,0x64,0x00,
0x90,0x4b,0x64,0x83,0x36,0x80,0x4b,0x64,0x00,0x80,0x4f,0x64,0x2a,0x90,0x4d,0x64,
0x00,0x90,0x4a,0x64,0x83,0x36,0x80,0x4a,0x64,0x00,0x80,0x4d,0x64,0x2a,0x90,0x4b,
0x64,0x00,0x90,0x48,0x64,0x81,0x3b,0x80,0x48,0x64,0x00,0x80,0x4b,0x64,0x35,0x90,
0x4a,0x64,0x00,0x90,0x47,0x64,0x83,0x2b,0x80,0x47,0x64,0x00,0x80,0x4a,0x64,0x35,
0x90,0x48,0x64,0x00,0x90,0x43,0x64,0x84,0x14,0x80,0x43,0x64,0x00,0x80,0x48,0x64,
0x00,0xff,0x2f,0x00,0x4d,0x54,0x72,0x6b,0x00,0x00,0x05,0x82,0x00,0xff,0x03,0x0b,
0x4d,0x65,0x6c,0x6f,0x64,0x79,0x20,0x45,0x63,0x68,0x6f,0x00,0xff,0x21,0x01,0x00,
0x00,0xff,0x20,0x01,0x01,0x00,0xb1,0x07,0x5e,0x00,0xb1,0x0a,0x40,0x00,0xc1,0x1d,
0x81,0xfa,0x6b,0x91,0x3f,0x64,0x00,0x91,0x43,0x64,0x81,0x47,0x81,0x43,0x64,0x00,
0x81,0x3f,0x64,0x29,0x91,0x48,0x64,0x00,0x91,0x43,0x64,0x81,0x51,0x81,0x43,0x64,
0x00,0x81,0x48,0x64,0x1f,0x91,0x48,0x64,0x00,0x91,0x4b,0x64,0x81,0x47,0x81,0x4b,
0x64,0x00,0x81,0x48,0x64,0x29,0x91,0x4f,0x64,0x00,0x91,0x4b,0x64,0x83,0x37,0x81,
0x4b,0x64,0x00,0x81,0x4f,0x64,0x29,0x91,0x4f,0x64,0x00,0x91,0x4b,0x64,0x81,0x51,
0x81,0x4b,0x64,0x00,0x81,0x4f,0x64,0x1f,0x91,0x4d,0x64,0x00,0x91,0x4a,0x64,0x83,
0x41,0x81,0x4a,0x64,0x00,0x81,0x4d,0x64,0x1f,0x91,0x4d,0x64,0x00,0x91,0x4a,0x64,
0x81,0x47,0x81,0x4a,0x64,0x00,0x81,0x4d,0x64,0x29,0x91,0x4b,0x64,0x00,0x91,0x48,
0x64,0x81,0x51,0x81,0x4b,0x64,0x1f,0x91,0x4b,0x64,0x81,0x47,0x81,0x48,0x64,0x00,
0x81,0x4b,0x64,0x29,0x91,0x4a,0x64,0x00,0x91,0x47,0x64,0x83,0x37,0x81,0x47,0x64,
0x00,0x81,0x4a,0x64,0x29,0x91,0x4d,0x64,0x00,0x91,0x4a,0x64,0x83,0x37,0x81,0x4a,
0x64,0x00,0x81,0x4d,0x64,0x82,0x19,0x91,0x43,0x64,0x00,0x91,0x40,0x64,0x81,0x47,
0x81,0x40,0x64,0x00,0x81,0x43,0x64,0x29,0x91,0x47,0x64,0x00,0x91,0x43,0x64,0x81,
0x51,0x81,0x43,0x64,0x00,0x81,0x47,0x64,0x1f,0x91,0x4a,0x64,0x00,0x91,0x47,0x64,
0x81,0x47,0x81,0x47,0x64,0x00,0x81,0x4a,0x64,0x29,0x91,0x4d,0x64,0x00,0x91,0x4a,
0x64,0x83,0x37,0x81,0x4a,0x64,0x00,0x81,0x4d,0x64,0x29,0x91,0x4d,0x64,0x00,0x91,
0x4a,0x64,0x81,0x51,0x81,0x4a,0x64,0x00,0x81,0x4d,0x64,0x1f,0x91,0x4b,0x64,0x00,
0x91,0x48,0x64,0x83,0x2c,0x81,0x4b,0x64,0x15,0x81,0x48,0x64,0x1f,0x91,0x4b,0x64,
0x00,0x91,0x48,0x64,0x81,0x47,0x81,0x48,0x64,0x00,0x81,0x4b,0x64,0x29,0x91,0x4a,
0x64,0x00,0x91,0x47,0x64,0x83,0x37,0x81,0x47,0x64,0x00,0x81,0x4a,0x64,0x29,0x91,
0x48,0x64,0x00,0x91,0x43,0x64,0x83,0x37,0x81,0x43,0x64,0x00,0x81,0x48,0x64,0x29,
0x91,0x4b,0x64,0x00,0x91,0x48,0x64,0x83,0x37,0x81,0x48,0x64,0x00,0x81,0x4b,0x64,
0x82,0x19,0x91,0x43,0x64,0x00,0x91,0x3e,0x64,0x81,0x47,0x81,0x3e,0x64,0x00,0x81,
0x43,0x64,0x29,0x91,0x48,0x64,0x00,0x91,0x43,0x64,0x81,0x51,0x81,0x43,0x64,0x00,
0x81,0x48,0x64,0x1f,0x91,0x4b,0x64,0x00,0x91,0x48,0x64,0x81,0x47,0x81,0x48,0x64,
0x00,0x81,0x4b,0x64,0x29,0x91,0x4f,0x64,0x00,0x91,0x4b,0x64,0x83,0x37,0x81,0x4b,
0x64,0x00,0x81,0x4f,0x64,0x29,0x91,0x4f,0x64,0x00,0x91,0x4b,0x64,0x81,0x51,0x81,
0x4b,0x64,0x00,0x81,0x4f,0x64,0x1f,0x91,0x4d,0x64,0x00,0x91,0x4a,0x64,0x83,0x2c,
0x81,0x4d,0x64,0x15,0x81,0x4a,0x64,0x1f,0x91,0x4d,0x64,0x00,0x91,0x4a,0x64,0x81,
0x47,0x81,0x4a,0x64,0x00,0x81,0x4d,0x64,0x29,0x91,0x4b,0x64,0x00,0x91,0x48,0x64,
0x81,0x51,0x81,0x48,0x64,0x00,0x81,0x4b,0x64,0x1f,0x91,0x4b,0x64,0x00,0x91,0x48,
0x64,0x81,0x47,0x81,0x48,0x64,0x00,0x81,0x4b,0x64,0x29,0x91,0x4a,0x64,0x00,0x91,
0x47,0x64,0x83,0x37,0x81,0x47,0x64,0x00,0x81,0x4a,0x64,0x29,0x91,0x4d,0x64,0x00,
0x91,0x4a,0x64,0x83,0x37,0x81,0x4a,0x64,0x00,0x81,0x4d,0x64,0x82,0x19,0x91,0x43,
0x64,0x00,0x91,0x3e,0x64,0x81,0x5c,0x81,0x3e,0x64,0x00,0x81,0x43,0x64,0x14,0x91,
0x47,0x64,0x00,0x91,0x43,0x64,0x81,0x67,0x81,0x43,0x64,0x00,0x81,0x47,0x64,0x09,
0x91,0x4a,0x64,0x00,0x91,0x47,0x64,0x81,0x5c,0x81,0x47,0x64,0x00,0x81,0x4a,0x64,
0x14,0x91,0x4d,0x64,0x00,0x91,0x4a,0x64,0x83,0x4c,0x81,0x4a,0x64,0x00,0x81,0x4d,
0x64,0x14,0x91,0x4f,0x64,0x00,0x91,0x4b,0x64,0x81,0x67,0x81,0x4b,0x64,0x00,0x81,
0x4f,0x64,0x09,0x91,0x4d,0x64,0x00,0x91,0x4a,0x64,0x81,0x5c,0x81,0x4a,0x64,0x00,
0x81,0x4d,0x64,0x14,0x91,0x4b,0x64,0x00,0x91,0x48,0x64,0x81,0x67,0x81,0x48,0x64,
0x00,0x81,0x4b,0x64,0x09,0x91,0x4a,0x64,0x00,0x91,0x47,0x64,0x83,0x57,0x81,0x47,
0x64,0x00,0x81,0x4a,0x64,0x09,0x91,0x4b,0x64,0x00,0x91,0x48,0x64,0x87,0x37,0x81,
0x48,0x64,0x00,0x81,0x4b,0x64,0x83,0x69,0x91,0x3e,0x64,0x00,0x91,0x43,0x64,0x81,
0x5c,0x81,0x43,0x64,0x00,0x81,0x3e,0x64,0x14,0x91,0x43,0x64,0x00,0x91,0x48,0x64,
0x81,0x67,0x81,0x48,0x64,0x00,0x81,0x43,0x64,0x09,0x91,0x4b,0x64,0x00,0x91,0x48,
0x64,0x81,0x47,0x81,0x48,0x64,0x00,0x81,0x4b,0x64,0x29,0x91,0x4f,0x64,0x00,0x91,
0x4b,0x64,0x83,0x37,0x81,0x4b,0x64,0x00,0x81,0x4f,0x64,0x29,0x91,0x4f,0x64,0x00,
0x91,0x4b,0x64,0x81,0x51,0x81,0x4b,0x64,0x00,0x81,0x4f,0x64,0x1f,0x91,0x4d,0x64,
0x00,0x91,0x4a,0x64,0x83,0x41,0x81,0x4a,0x64,0x00,0x81,0x4d,0x64,0x1f,0x91,0x4d,
0x64,0x00,0x91,0x4a,0x64,0x81,0x47,0x81,0x4a,0x64,0x00,0x81,0x4d,0x64,0x29,0x91,
0x4b,0x64,0x00,0x91,0x48,0x64,0x81,0x51,0x81,0x4b,0x64,0x1f,0x91,0x4b,0x64,0x81,
0x47,0x81,0x48,0x64,0x00,0x81,0x4b,0x64,0x29,0x91,0x4a,0x64,0x00,0x91,0x47,0x64,
0x83,0x37,0x81,0x47,0x64,0x00,0x81,0x4a,0x64,0x29,0x91,0x4d,0x64,0x00,0x91,0x4a,
0x64,0x83,0x37,0x81,0x4a,0x64,0x00,0x81,0x4d,0x64,0x82,0x19,0x91,0x43,0x64,0x00,
0x91,0x3e,0x64,0x81,0x47,0x81,0x3e,0x64,0x00,0x81,0x43,0x64,0x29,0x91,0x47,0x64,
0x00,0x91,0x43,0x64,0x81,0x51,0x81,0x43,0x64,0x00,0x81,0x47,0x64,0x1f,0x91,0x4a,
0x64,0x00,0x91,0x47,0x64,0x81,0x47,0x81,0x47,0x64,0x00,0x81,0x4a,0x64,0x29,0x91,
0x4d,0x64,0x00,0x91,0x4a,0x64,0x83,0x37,0x81,0x4a,0x64,0x00,0x81,0x4d,0x64,0x29,
0x91,0x4d,0x64,0x00,0x91,0x4a,0x64,0x81,0x51,0x81,0x4a,0x64,0x00,0x81,0x4d,0x64,
0x1f,0x91,0x4d,0x64,0x00,0x91,0x4a,0x64,0x81,0x47,0x81,0x4a,0x64,0x00,0x81,0x4d,
0x64,0x29,0x91,0x4b,0x64,0x00,0x91,0x48,0x64,0x81,0x51,0x81,0x48,0x64,0x00,0x81,
0x4b,0x64,0x1f,0x91,0x4a,0x64,0x00,0x91,0x47,0x64,0x83,0x41,0x81,0x47,0x64,0x00,
0x81,0x4a,0x64,0x1f,0x91,0x48,0x64,0x00,0x91,0x43,0x64,0x85,0x27,0x81,0x43,0x64,
0x00,0x81,0x48,0x64,0x29,0x91,0x4b,0x64,0x00,0x91,0x48,0x64,0x83,0x37,0x81,0x48,
0x64,0x00,0x81,0x4b,0x64,0x82,0x19,0x91,0x43,0x64,0x00,0x91,0x3e,0x64,0x81,0x47,
0x81,0x3e,0x64,0x00,0x81,0x43,0x64,0x29,0x91,0x48,0x64,0x00,0x91,0x43,0x64,0x81,
0x51,0x81,0x43,0x64,0x00,0x81,0x48,0x64,0x1f,0x91,0x4b,0x64,0x00,0x91,0x48,0x64,
0x81,0x47,0x81,0x48,0x64,0x00,0x81,0x4b,0x64,0x29,0x91,0x4f,0x64,0x00,0x91,0x4b,
0x64,0x83,0x37,0x81,0x4b,0x64,0x00,0x81,0x4f,0x64,0x29,0x91,0x4f,0x64,0x00,0x91,
0x4b,0x64,0x81,0x51,0x81,0x4b,0x64,0x00,0x81,0x4f,0x64,0x1f,0x91,0x4d,0x64,0x00,
0x91,0x4a,0x64,0x83,0x41,0x81,0x4a,0x64,0x00,0x81,0x4d,0x64,0x1f,0x91,0x4d,0x64,
0x00,0x91,0x4a,0x64,0x81,0x47,0x81,0x4a,0x64,0x00,0x81,0x4d,0x64,0x29,0x91,0x4f,
0x64,0x00,0x91,0x4b,0x64,0x81,0x51,0x81,0x4b,0x64,0x00,0x81,0x4f,0x64,0x1f,0x91,
0x4f,0x64,0x00,0x91,0x4b,0x64,0x81,0x47,0x81,0x4b,0x64,0x00,0x81,0x4f,0x64,0x29,
0x91,0x52,0x64,0x00,0x91,0x4f,0x64,0x83,0x37,0x81,0x4f,0x64,0x00,0x81,0x52,0x64,
0x29,0x91,0x50,0x64,0x00,0x91,0x4d,0x64,0x83,0x37,0x81,0x4d,0x64,0x00,0x81,0x50,
0x64,0x82,0x19,0x91,0x50,0x64,0x00,0x91,0x4d,0x64,0x81,0x47,0x81,0x4d,0x64,0x00,
0x81,0x50,0x64,0x29,0x91,0x4f,0x64,0x00,0x91,0x4b,0x64,0x81,0x51,0x81,0x4b,0x64,
0x00,0x81,0x4f,0x64,0x1f,0x91,0x4d,0x64,0x00,0x91,0x4a,0x64,0x81,0x47,0x81,0x4a,
0x64,0x00,0x81,0x4d,0x64,0x29,0x91,0x4f,0x64,0x00,0x91,0x4b,0x64,0x83,0x37,0x81,
0x4b,0x64,0x00,0x81,0x4f,0x64,0x29,0x91,0x4d,0x64,0x00,0x91,0x4a,0x64,0x83,0x37,
0x81,0x4a,0x64,0x00,0x81,0x4d,0x64,0x29,0x91,0x4b,0x64,0x00,0x91,0x48,0x64,0x81,
0x51,0x81,0x48,0x64,0x00,0x81,0x4b,0x64,0x1f,0x91,0x4a,0x64,0x00,0x91,0x47,0x64,
0x83,0x41,0x81,0x47,0x64,0x00,0x81,0x4a,0x64,0x1f,0x91,0x48,0x64,0x00,0x91,0x43,
0x64,0x84,0x29,0x81,0x43,0x64,0x00,0x81,0x48,0x64,0x00,0xff,0x2f,0x00,0x4d,0x54,
0x72,0x6b,0x00,0x00,0x07,0xa6,0x00,0xff,0x03,0x08,0x54,0x73,0x75,0x20,0x42,0x61,
0x73,0x73,0x00,0xff,0x21,0x01,0x00,0x00,0xff,0x20,0x01,0x02,0x00,0xb2,0x07,0x7c,
0x00,0xb2,0x0a,0x40,0x00,0xc2,0x19,0x8f,0x00,0x92,0x24,0x7f,0x78,0x82,0x24,0x7f,
0x78,0x92,0x24,0x7f,0x7d,0x82,0x24,0x7f,0x73,0x92,0x24,0x7f,0x78,0x82,0x24,0x7f,
0x78,0x92,0x24,0x7f,0x7d,0x82,0x24,0x7f,0x73,0x92,0x24,0x7f,0x78,0x82,0x24,0x7f,
0x78,0x92,0x24,0x7f,0x7d,0x82,0x24,0x7f,0x73,0x92,0x24,0x7f,0x78,0x82,0x24,0x7f,
0x78,0x92,0x24,0x7f,0x7d,0x82,0x24,0x7f,0x73,0x92,0x20,0x7f,0x78,0x82,0x20,0x7f,
0x78,0x92,0x20,0x7f,0x7e,0x82,0x20,0x7f,0x72,0x92,0x20,0x7f,0x78,0x82,0x20,0x7f,
0x78,0x92,0x22,0x7f,0x82,0x63,0x82,0x22,0x7f,0x7d,0x92,0x22,0x7f,0x7d,0x82,0x22,
0x7f,0x73,0x92,0x22,0x7f,0x7e,0x82,0x22,0x7f,0x72,0x92,0x22,0x7f,0x7d,0x82,0x22,
0x7f,0x73,0x92,0x24,0x7f,0x78,0x82,0x24,0x7f,0x78,0x92,0x24,0x7f,0x7d,0x82,0x24,
0x7f,0x73,0x92,0x24,0x7f,0x78,0x82,0x24,0x7f,0x78,0x92,0x24,0x7f,0x7d,0x82,0x24,
0x7f,0x73,0x92,0x24,0x7f,0x78,0x82,0x24,0x7f,0x78,0x92,0x24,0x7f,0x7d,0x82,0x24,
0x7f,0x73,0x92,0x24,0x7f,0x78,0x82,0x24,0x7f,0x78,0x92,0x24,0x7f,0x7d,0x82,0x24,
0x7f,0x73,0x92,0x20,0x7f,0x78,0x82,0x20,0x7f,0x78,0x92,0x20,0x7f,0x7e,0x82,0x20,
0x7f,0x72,0x92,0x20,0x7f,0x78,0x82,0x20,0x7f,0x78,0x92,0x22,0x7f,0x82,0x63,0x82,
0x22,0x7f,0x7d,0x92,0x22,0x7f,0x7d,0x82,0x22,0x7f,0x73,0x92,0x22,0x7f,0x7e,0x82,
0x22,0x7f,0x72,0x92,0x22,0x7f,0x7d,0x82,0x22,0x7f,0x73,0x92,0x24,0x7f,0x78,0x82,
0x24,0x7f,0x78,0x92,0x24,0x7f,0x7d,0x82,0x24,0x7f,0x73,0x92,0x24,0x7f,0x78,0x82,
0x24,0x7f,0x78,0x92,0x24,0x7f,0x7d,0x82,0x24,0x7f,0x73,0x92,0x24,0x7f,0x78,0x82,
0x24,0x7f,0x78,0x92,0x24,0x7f,0x7d,0x82,0x24,0x7f,0x73,0x92,0x24,0x7f,0x78,0x82,
0x24,0x7f,0x78,0x92,0x24,0x7f,0x7d,0x82,0x24,0x7f,0x73,0x92,0x20,0x7f,0x78,0x82,
0x20,0x7f,0x78,0x92,0x20,0x7f,0x7e,0x82,0x20,0x7f,0x72,0x92,0x20,0x7f,0x78,0x82,
0x20,0x7f,0x78,0x92,0x22,0x7f,0x82,0x63,0x82,0x22,0x7f,0x7d,0x92,0x22,0x7f,0x7d,
0x82,0x22,0x7f,0x73,0x92,0x22,0x7f,0x7e,0x82,0x22,0x7f,0x72,0x92,0x22,0x7f,0x7d,
0x82,0x22,0x7f,0x73,0x92,0x1f,0x7f,0x78,0x82,0x1f,0x7f,0x78,0x92,0x1f,0x7f,0x7d,
0x82,0x1f,0x7f,0x73,0x92,0x1f,0x7f,0x78,0x82,0x1f,0x7f,0x78,0x92,0x1f,0x7f,0x7d,
0x82,0x1f,0x7f,0x73,0x92,0x1f,0x7f,0x78,0x82,0x1f,0x7f,0x78,0x92,0x1f,0x7f,0x7d,
0x82,0x1f,0x7f,0x73,0x92,0x1f,0x7f,0x78,0x82,0x1f,0x7f,0x78,0x92,0x1f,0x7f,0x7d,
0x82,0x1f,0x7f,0x73,0x92,0x1f,0x7f,0x78,0x82,0x1f,0x7f,0x78,0x92,0x1f,0x7f,0x7e,
0x82,0x1f,0x7f,0x72,0x92,0x22,0x7f,0x78,0x82,0x22,0x7f,0x78,0x92,0x1f,0x7f,0x7d,
0x82,0x1f,0x7f,0x73,0x92,0x23,0x7f,0x7d,0x82,0x23,0x7f,0x73,0x92,0x1f,0x7f,0x7e,
0x82,0x1f,0x7f,0x72,0x92,0x22,0x7f,0x7d,0x82,0x22,0x7f,0x73,0x92,0x1f,0x7f,0x7d,
0x82,0x1f,0x7f,0x73,0x92,0x24,0x68,0x7e,0x82,0x24,0x40,0x72,0x92,0x24,0x68,0x73,
0x82,0x24,0x40,0x7d,0x92,0x24,0x68,0x7e,0x82,0x24,0x40,0x72,0x92,0x24,0x68,0x73,
0x82,0x24,0x40,0x7d,0x92,0x24,0x68,0x7e,0x82,0x24,0x40,0x72,0x92,0x24,0x68,0x73,
0x82,0x24,0x40,0x7d,0x92,0x22,0x68,0x7e,0x82,0x22,0x40,0x72,0x92,0x1f,0x68,0x73,
0x82,0x1f,0x40,0x7d,0x92,0x1f,0x68,0x7e,0x82,0x1f,0x40,0x72,0x92,0x1f,0x68,0x73,
0x82,0x1f,0x40,0x7d,0x92,0x1f,0x68,0x7e,0x82,0x1f,0x40,0x72,0x92,0x1f,0x68,0x73,
0x82,0x1f,0x40,0x7d,0x92,0x1f,0x68,0x7e,0x82,0x1f,0x40,0x72,0x92,0x1f,0x68,0x73,
0x82,0x1f,0x40,0x7d,0x92,0x23,0x68,0x7e,0x82,0x23,0x40,0x72,0x92,0x1f,0x68,0x73,
0x82,0x1f,0x40,0x7d,0x92,0x1f,0x68,0x7e,0x82,0x1f,0x40,0x72,0x92,0x1f,0x68,0x73,
0x82,0x1f,0x40,0x7d,0x92,0x23,0x68,0x7e,0x82,0x23,0x40,0x72,0x92,0x1f,0x68,0x73,
0x82,0x1f,0x40,0x7d,0x92,0x1f,0x68,0x7e,0x82,0x1f,0x40,0x72,0x92,0x1f,0x68,0x73,
0x82,0x1f,0x40,0x7d,0x92,0x22,0x68,0x7e,0x82,0x22,0x40,0x72,0x92,0x23,0x68,0x73,
0x82,0x23,0x40,0x7d,0x92,0x24,0x68,0x7e,0x82,0x24,0x40,0x72,0x92,0x24,0x68,0x73,
0x82,0x24,0x40,0x7d,0x92,0x24,0x68,0x7e,0x82,0x24,0x40,0x72,0x92,0x24,0x68,0x73,
0x82,0x24,0x40,0x7d,0x92,0x1f,0x68,0x7e,0x82,0x1f,0x40,0x72,0x92,0x24,0x68,0x73,
0x82,0x24,0x40,0x7d,0x92,0x24,0x68,0x15,0x82,0x24,0x40,0x63,0x92,0x22,0x68,0x1b,
0x82,0x22,0x40,0x5d,0x92,0x1f,0x68,0x73,0x82,0x1f,0x40,0x7d,0x92,0x24,0x68,0x7e,
0x82,0x24,0x40,0x72,0x92,0x24,0x68,0x73,0x82,0x24,0x40,0x7d,0x92,0x24,0x68,0x7e,
0x82,0x24,0x40,0x72,0x92,0x24,0x68,0x73,0x82,0x24,0x40,0x7d,0x92,0x1f,0x68,0x7e,
0x82,0x1f,0x40,0x72,0x92,0x24,0x68,0x73,0x82,0x24,0x40,0x7d,0x92,0x24,0x68,0x7e,
0x82,0x24,0x40,0x72,0x92,0x27,0x68,0x73,0x82,0x27,0x40,0x7d,0x92,0x29,0x68,0x7e,
0x82,0x29,0x40,0x72,0x92,0x29,0x68,0x73,0x82,0x29,0x40,0x7d,0x92,0x29,0x68,0x82,
0x4e,0x82,0x29,0x40,0x88,0x52,0x92,0x1f,0x68,0x7e,0x82,0x1f,0x40,0x72,0x92,0x1f,
0x68,0x73,0x82,0x1f,0x40,0x7d,0x92,0x1f,0x68,0x7e,0x82,0x1f,0x40,0x72,0x92,0x1f,
0x68,0x73,0x82,0x1f,0x40,0x7d,0x92,0x21,0x68,0x7e,0x82,0x21,0x40,0x72,0x92,0x23,
0x68,0x73,0x82,0x23,0x40,0x82,0x6d,0x92,0x24,0x68,0x73,0x82,0x24,0x40,0x84,0x5d,
0x92,0x1f,0x68,0x89,0x26,0x82,0x1f,0x40,0x81,0x7a,0x92,0x24,0x68,0x7e,0x82,0x24,
0x40,0x72,0x92,0x24,0x68,0x73,0x82,0x24,0x40,0x7d,0x92,0x24,0x68,0x7e,0x82,0x24,
0x40,0x72,0x92,0x24,0x68,0x73,0x82,0x24,0x40,0x7d,0x92,0x1f,0x68,0x7e,0x82,0x1f,
0x40,0x72,0x92,0x24,0x68,0x73,0x82,0x24,0x40,0x7d,0x92,0x22,0x68,0x7e,0x82,0x22,
0x40,0x72,0x92,0x1f,0x68,0x73,0x82,0x1f,0x40,0x7d,0x92,0x26,0x68,0x7e,0x82,0x26,
0x40,0x72,0x92,0x26,0x68,0x73,0x82,0x26,0x40,0x7d,0x92,0x26,0x68,0x7e,0x82,0x26,
0x40,0x72,0x92,0x26,0x68,0x73,0x82,0x26,0x40,0x7d,0x92,0x26,0x68,0x7e,0x82,0x26,
0x40,0x72,0x92,0x1f,0x68,0x73,0x82,0x1f,0x40,0x7d,0x92,0x23,0x68,0x7e,0x82,0x23,
0x40,0x72,0x92,0x1f,0x68,0x73,0x82,0x1f,0x40,0x7d,0x92,0x26,0x68,0x7e,0x82,0x26,
0x40,0x72,0x92,0x26,0x68,0x73,0x82,0x26,0x40,0x7d,0x92,0x26,0x68,0x7e,0x82,0x26,
0x40,0x72,0x92,0x26,0x68,0x73,0x82,0x26,0x40,0x7d,0x92,0x1f,0x68,0x7e,0x82,0x1f,
0x40,0x72,0x92,0x1f,0x68,0x73,0x82,0x1f,0x40,0x7d,0x92,0x21,0x68,0x7e,0x82,0x21,
0x40,0x72,0x92,0x23,0x68,0x73,0x82,0x23,0x40,0x7d,0x92,0x24,0x68,0x7e,0x82,0x24,
0x40,0x72,0x92,0x24,0x68,0x73,0x82,0x24,0x40,0x7d,0x92,0x24,0x68,0x7e,0x82,0x24,
0x40,0x72,0x92,0x24,0x68,0x73,0x82,0x24,0x40,0x7d,0x92,0x24,0x68,0x7e,0x82,0x24,
0x40,0x72,0x92,0x24,0x68,0x73,0x82,0x24,0x40,0x7d,0x92,0x22,0x68,0x7e,0x82,0x22,
0x40,0x72,0x92,0x1f,0x68,0x73,0x82,0x1f,0x40,0x7d,0x92,0x24,0x68,0x7e,0x82,0x24,
0x40,0x72,0x92,0x24,0x68,0x73,0x82,0x24,0x40,0x7d,0x92,0x24,0x68,0x7e,0x82,0x24,
0x40,0x72,0x92,0x24,0x68,0x73,0x82,0x24,0x40,0x7d,0x92,0x1f,0x68,0x7e,0x82,0x1f,
0x40,0x72,0x92,0x24,0x68,0x73,0x82,0x24,0x40,0x7d,0x92,0x22,0x68,0x7e,0x82,0x22,
0x40,0x72,0x92,0x1f,0x68,0x73,0x82,0x1f,0x40,0x7d,0x92,0x26,0x68,0x7e,0x82,0x26,
0x40,0x72,0x92,0x26,0x68,0x73,0x82,0x26,0x40,0x7d,0x92,0x26,0x68,0x7e,0x82,0x26,
0x40,0x72,0x92,0x26,0x68,0x73,0x82,0x26,0x40,0x7d,0x92,0x26,0x68,0x7e,0x82,0x26,
0x40,0x72,0x92,0x1f,0x68,0x73,0x82,0x1f,0x40,0x7d,0x92,0x23,0x68,0x7e,0x82,0x23,
0x40,0x72,0x92,0x1f,0x68,0x73,0x82,0x1f,0x40,0x7d,0x92,0x26,0x68,0x7e,0x82,0x26,
0x40,0x72,0x92,0x26,0x68,0x73,0x82,0x26,0x40,0x7d,0x92,0x26,0x68,0x7e,0x82,0x26,
0x40,0x72,0x92,0x26,0x68,0x73,0x82,0x26,0x40,0x7d,0x92,0x1f,0x68,0x7e,0x82,0x1f,
0x40,0x72,0x92,0x1f,0x68,0x73,0x82,0x1f,0x40,0x7d,0x92,0x21,0x68,0x7e,0x82,0x21,
0x40,0x72,0x92,0x23,0x68,0x73,0x82,0x23,0x40,0x7d,0x92,0x24,0x68,0x7e,0x82,0x24,
0x40,0x72,0x92,0x24,0x68,0x73,0x82,0x24,0x40,0x7d,0x92,0x24,0x68,0x7e,0x82,0x24,
0x40,0x72,0x92,0x24,0x68,0x73,0x82,0x24,0x40,0x7d,0x92,0x24,0x68,0x7e,0x82,0x24,
0x40,0x72,0x92,0x24,0x68,0x73,0x82,0x24,0x40,0x7d,0x92,0x22,0x68,0x7e,0x82,0x22,
0x40,0x72,0x92,0x1f,0x68,0x73,0x82,0x1f,0x40,0x7d,0x92,0x24,0x68,0x7d,0x82,0x24,
0x40,0x73,0x92,0x24,0x68,0x72,0x82,0x24,0x40,0x7e,0x92,0x24,0x68,0x7d,0x82,0x24,
0x40,0x73,0x92,0x24,0x68,0x72,0x82,0x24,0x40,0x7e,0x92,0x1f,0x68,0x7d,0x82,0x1f,
0x40,0x73,0x92,0x24,0x68,0x72,0x82,0x24,0x40,0x7e,0x92,0x22,0x68,0x7d,0x82,0x22,
0x40,0x73,0x92,0x1f,0x68,0x72,0x82,0x1f,0x40,0x7e,0x92,0x26,0x68,0x7d,0x82,0x26,
0x40,0x73,0x92,0x26,0x68,0x72,0x82,0x26,0x40,0x7e,0x92,0x26,0x68,0x7d,0x82,0x26,
0x40,0x73,0x92,0x26,0x68,0x72,0x82,0x26,0x40,0x7e,0x92,0x26,0x68,0x7d,0x82,0x26,
0x40,0x73,0x92,0x1f,0x68,0x72,0x82,0x1f,0x40,0x7e,0x92,0x23,0x68,0x7d,0x82,0x23,
0x40,0x73,0x92,0x1f,0x68,0x72,0x82,0x1f,0x40,0x7e,0x92,0x26,0x68,0x7d,0x82,0x26,
0x40,0x73,0x92,0x26,0x68,0x72,0x82,0x26,0x40,0x7e,0x92,0x26,0x68,0x7d,0x82,0x26,
0x40,0x73,0x92,0x26,0x68,0x72,0x82,0x26,0x40,0x7e,0x92,0x1f,0x68,0x7d,0x82,0x1f,
0x40,0x73,0x92,0x1f,0x68,0x72,0x82,0x1f,0x40,0x7e,0x92,0x21,0x68,0x7d,0x82,0x21,
0x40,0x73,0x92,0x23,0x68,0x72,0x82,0x23,0x40,0x7e,0x92,0x24,0x68,0x7d,0x82,0x24,
0x40,0x73,0x92,0x24,0x68,0x72,0x82,0x24,0x40,0x7e,0x92,0x24,0x68,0x7d,0x82,0x24,
0x40,0x73,0x92,0x24,0x68,0x72,0x82,0x24,0x40,0x7e,0x92,0x24,0x68,0x7d,0x82,0x24,
0x40,0x73,0x92,0x1f,0x68,0x72,0x82,0x1f,0x40,0x7e,0x92,0x22,0x68,0x7d,0x82,0x22,
0x40,0x73,0x92,0x1f,0x68,0x72,0x82,0x1f,0x40,0x7e,0x92,0x24,0x68,0x7d,0x82,0x24,
0x40,0x73,0x92,0x24,0x68,0x72,0x82,0x24,0x40,0x7e,0x92,0x24,0x68,0x7d,0x82,0x24,
0x40,0x73,0x92,0x24,0x68,0x72,0x82,0x24,0x40,0x7e,0x92,0x1f,0x68,0x7d,0x82,0x1f,
0x40,0x73,0x92,0x24,0x68,0x72,0x82,0x24,0x40,0x7e,0x92,0x24,0x68,0x7d,0x82,0x24,
0x40,0x73,0x92,0x27,0x68,0x72,0x82,0x27,0x40,0x7e,0x92,0x29,0x68,0x7d,0x82,0x29,
0x40,0x73,0x92,0x29,0x68,0x72,0x82,0x29,0x40,0x7e,0x92,0x29,0x68,0x7d,0x82,0x29,
0x40,0x73,0x92,0x29,0x68,0x72,0x82,0x29,0x40,0x7e,0x92,0x29,0x68,0x7d,0x82,0x29,
0x40,0x73,0x92,0x29,0x68,0x72,0x82,0x29,0x40,0x7e,0x92,0x22,0x68,0x7d,0x82,0x22,
0x40,0x73,0x92,0x20,0x68,0x72,0x82,0x20,0x40,0x7e,0x92,0x1f,0x68,0x7d,0x82,0x1f,
0x40,0x73,0x92,0x1f,0x68,0x72,0x82,0x1f,0x40,0x7e,0x92,0x1f,0x68,0x7d,0x82,0x1f,
0x40,0x73,0x92,0x1f,0x68,0x72,0x82,0x1f,0x40,0x7e,0x92,0x21,0x68,0x82,0x4d,0x82,
0x21,0x40,0x81,0x13,0x92,0x23,0x68,0x7d,0x82,0x23,0x40,0x73,0x92,0x24,0x68,0x82,
0x58,0x82,0x24,0x40,0x81,0x08,0x92,0x24,0x68,0x72,0x82,0x24,0x40,0x7e,0x92,0x24,
0x68,0x7d,0x82,0x24,0x40,0x73,0x92,0x24,0x68,0x72,0x82,0x24,0x40,0x7e,0x92,0x24,
0x68,0x82,0x4d,0x82,0x24,0x40,0x81,0x13,0x92,0x27,0x68,0x68,0x82,0x27,0x40,0x81,
0x08,0x92,0x24,0x7f,0x69,0x82,0x24,0x7f,0x00,0xff,0x2f,0x00,0x4d,0x54,0x72,0x6b,
0x00,0x00,0x07,0xa6,0x00,0xff,0x03,0x09,0x53,0x61,0x6b,0x75,0x20,0x42,0x61,0x73,
0x73,0x00,0xff,0x21,0x01,0x00,0x00,0xff,0x20,0x01,0x03,0x00,0xb3,0x07,0x7d,0x00,
0xb3,0x0a,0x40,0x00,0xc3,0x22,0x8f,0x00,0x93,0x24,0x7f,0x78,0x83,0x24,0x7f,0x78,
0x93,0x24,0x7f,0x7d,0x83,0x24,0x7f,0x73,0x93,0x24,0x7f,0x78,0x83,0x24,0x7f,0x78,
0x93,0x24,0x7f,0x7d,0x83,0x24,0x7f,0x73,0x93,0x24,0x7f,0x78,0x83,0x24,0x7f,0x78,
0x93,0x24,0x7f,0x7d,0x83,0x24,0x7f,0x73,0x93,0x24,0x7f,0x78,0x83,0x24,0x7f,0x78,
0x93,0x24,0x7f,0x7d,0x83,0x24,0x7f,0x73,0x93,0x20,0x7f,0x78,0x83,0x20,0x7f,0x78,
0x93,0x20,0x7f,0x7e,0x83,0x20,0x7f,0x72,0x93,0x20,0x7f,0x78,0x83,0x20,0x7f,0x78,
0x93,0x22,0x7f,0x82,0x63,0x83,0x22,0x7f,0x7d,0x93,0x22,0x7f,0x7d,0x83,0x22,0x7f,
0x73,0x93,0x22,0x7f,0x7e,0x83,0x22,0x7f,0x72,0x93,0x22,0x7f,0x7d,0x83,0x22,0x7f,
0x73,0x93,0x24,0x7f,0x78,0x83,0x24,0x7f,0x78,0x93,0x24,0x7f,0x7d,0x83,0x24,0x7f,
0x73,0x93,0x24,0x7f,0x78,0x83,0x24,0x7f,0x78,0x93,0x24,0x7f,0x7d,0x83,0x24,0x7f,
0x73,0x93,0x24,0x7f,0x78,0x83,0x24,0x7f,0x78,0x93,0x24,0x7f,0x7d,0x83,0x24,0x7f,
0x73,0x93,0x24,0x7f,0x78,0x83,0x24,0x7f,0x78,0x93,0x24,0x7f,0x7d,0x83,0x24,0x7f,
0x73,0x93,0x20,0x7f,0x78,0x83,0x20,0x7f,0x78,0x93,0x20,0x7f,0x7e,0x83,0x20,0x7f,
0x72,0x93,0x20,0x7f,0x78,0x83,0x20,0x7f,0x78,0x93,0x22,0x7f,0x82,0x63,0x83,0x22,
0x7f,0x7d,0x93,0x22,0x7f,0x7d,0x83,0x22,0x7f,0x73,0x93,0x22,0x7f,0x7e,0x83,0x22,
0x7f,0x72,0x93,0x22,0x7f,0x7d,0x83,0x22,0x7f,0x73,0x93,0x24,0x7f,0x78,0x83,0x24,
0x7f,0x78,0x93,0x24,0x7f,0x7d,0x83,0x24,0x7f,0x73,0x93,0x24,0x7f,0x78,0x83,0x24,
0x7f,0x78,0x93,0x24,0x7f,0x7d,0x83,0x24,0x7f,0x73,0x93,0x24,0x7f,0x78,0x83,0x24,
0x7f,0x78,0x93,0x24,0x7f,0x7d,0x83,0x24,0x7f,0x73,0x93,0x24,0x7f,0x78,0x83,0x24,
0x7f,0x78,0x93,0x24,0x7f,0x7d,0x83,0x24,0x7f,0x73,0x93,0x20,0x7f,0x78,0x83,0x20,
0x7f,0x78,0x93,0x20,0x7f,0x7e,0x83,0x20,0x7f,0x72,0x93,0x20,0x7f,0x78,0x83,0x20,
0x7f,0x78,0x93,0x22,0x7f,0x82,0x63,0x83,0x22,0x7f,0x7d,0x93,0x22,0x7f,0x7d,0x83,
0x22,0x7f,0x73,0x93,0x22,0x7f,0x7e,0x83,0x22,0x7f,0x72,0x93,0x22,0x7f,0x7d,0x83,
0x22,0x7f,0x73,0x93,0x1f,0x7f,0x78,0x83,0x1f,0x7f,0x78,0x93,0x1f,0x7f,0x7d,0x83,
0x1f,0x7f,0x73,0x93,0x1f,0x7f,0x78,0x83,0x1f,0x7f,0x78,0x93,0x1f,0x7f,0x7d,0x83,
0x1f,0x7f,0x73,0x93,0x1f,0x7f,0x78,0x83,0x1f,0x7f,0x78,0x93,0x1f,0x7f,0x7d,0x83,
0x1f,0x7f,0x73,0x93,0x1f,0x7f,0x78,0x83,0x1f,0x7f,0x78,0x93,0x1f,0x7f,0x7d,0x83,
0x1f,0x7f,0x73,0x93,0x1f,0x7f,0x78,0x83,0x1f,0x7f,0x78,0x93,0x1f,0x7f,0x7e,0x83,
0x1f,0x7f,0x72,0x93,0x22,0x7f,0x78,0x83,0x22,0x7f,0x78,0x93,0x1f,0x7f,0x7d,0x83,
0x1f,0x7f,0x73,0x93,0x23,0x7f,0x7d,0x83,0x23,0x7f,0x73,0x93,0x1f,0x7f,0x7e,0x83,
0x1f,0x7f,0x72,0x93,0x22,0x7f,0x7d,0x83,0x22,0x7f,0x73,0x93,0x1f,0x7f,0x7d,0x83,
0x1f,0x7f,0x73,0x93,0x24,0x68,0x7e,0x83,0x24,0x40,0x72,0x93,0x24,0x68,0x73,0x83,
0x24,0x40,0x7d,0x93,0x24,0x68,0x7e,0x83,0x24,0x40,0x72,0x93,0x24,0x68,0x73,0x83,
0x24,0x40,0x7d,0x93,0x24,0x68,0x7e,0x83,0x24,0x40,0x72,0x93,0x24,0x68,0x73,0x83,
0x24,0x40,0x7d,0x93,0x22,0x68,0x7e,0x83,0x22,0x40,0x72,0x93,0x1f,0x68,0x73,0x83,
0x1f,0x40,0x7d,0x93,0x1f,0x68,0x7e,0x83,0x1f,0x40,0x72,0x93,0x1f,0x68,0x73,0x83,
0x1f,0x40,0x7d,0x93,0x1f,0x68,0x7e,0x83,0x1f,0x40,0x72,0x93,0x1f,0x68,0x73,0x83,
0x1f,0x40,0x7d,0x93,0x1f,0x68,0x7e,0x83,0x1f,0x40,0x72,0x93,0x1f,0x68,0x73,0x83,
0x1f,0x40,0x7d,0x93,0x23,0x68,0x7e,0x83,0x23,0x40,0x72,0x93,0x1f,0x68,0x73,0x83,
0x1f,0x40,0x7d,0x93,0x1f,0x68,0x7e,0x83,0x1f,0x40,0x72,0x93,0x1f,0x68,0x73,0x83,
0x1f,0x40,0x7d,0x93,0x23,0x68,0x7e,0x83,0x23,0x40,0x72,0x93,0x1f,0x68,0x73,0x83,
0x1f,0x40,0x7d,0x93,0x1f,0x68,0x7e,0x83,0x1f,0x40,0x72,0x93,0x1f,0x68,0x73,0x83,
0x1f,0x40,0x7d,0x93,0x22,0x68,0x7e,0x83,0x22,0x40,0x72,0x93,0x23,0x68,0x73,0x83,
0x23,0x40,0x7d,0x93,0x24,0x68,0x7e,0x83,0x24,0x40,0x72,0x93,0x24,0x68,0x73,0x83,
0x24,0x40,0x7d,0x93,0x24,0x68,0x7e,0x83,0x24,0x40,0x72,0x93,0x24,0x68,0x73,0x83,
0x24,0x40,0x7d,0x93,0x1f,0x68,0x7e,0x83,0x1f,0x40,0x72,0x93,0x24,0x68,0x73,0x83,
0x24,0x40,0x7d,0x93,0x24,0x68,0x15,0x83,0x24,0x40,0x63,0x93,0x22,0x68,0x1b,0x83,
0x22,0x40,0x5d,0x93,0x1f,0x68,0x73,0x83,0x1f,0x40,0x7d,0x93,0x24,0x68,0x7e,0x83,
0x24,0x40,0x72,0x93,0x24,0x68,0x73,0x83,0x24,0x40,0x7d,0x93,0x24,0x68,0x7e,0x83,
0x24,0x40,0x72,0x93,0x24,0x68,0x73,0x83,0x24,0x40,0x7d,0x93,0x1f,0x68,0x7e,0x83,
0x1f,0x40,0x72,0x93,0x24,0x68,0x73,0x83,0x24,0x40,0x7d,0x93,0x24,0x68,0x7e,0x83,
0x24,0x40,0x72,0x93,0x27,0x68,0x73,0x83,0x27,0x40,0x7d,0x93,0x29,0x68,0x7e,0x83,
0x29,0x40,0x72,0x93,0x29,0x68,0x73,0x83,0x29,0x40,0x7d,0x93,0x29,0x68,0x82,0x4e,
0x83,0x29,0x40,0x88,0x52,0x93,0x1f,0x68,0x7e,0x83,0x1f,0x40,0x72,0x93,0x1f,0x68,
0x73,0x83,0x1f,0x40,0x7d,0x93,0x1f,0x68,0x7e,0x83,0x1f,0x40,0x72,0x93,0x1f,0x68,
0x73,0x83,0x1f,0x40,0x7d,0x93,0x21,0x68,0x7e,0x83,0x21,0x40,0x72,0x93,0x23,0x68,
0x73,0x83,0x23,0x40,0x82,0x6d,0x93,0x24,0x68,0x73,0x83,0x24,0x40,0x84,0x5d,0x93,
0x1f,0x68,0x89,0x26,0x83,0x1f,0x40,0x81,0x7a,0x93,0x24,0x68,0x7e,0x83,0x24,0x40,
0x72,0x93,0x24,0x68,0x73,0x83,0x24,0x40,0x7d,0x93,0x24,0x68,0x7e,0x83,0x24,0x40,
0x72,0x93,0x24,0x68,0x73,0x83,0x24,0x40,0x7d,0x93,0x1f,0x68,0x7e,0x83,0x1f,0x40,
0x72,0x93,0x24,0x68,0x73,0x83,0x24,0x40,0x7d,0x93,0x22,0x68,0x7e,0x83,0x22,0x40,
0x72,0x93,0x1f,0x68,0x73,0x83,0x1f,0x40,0x7d,0x93,0x26,0x68,0x7e,0x83,0x26,0x40,
0x72,0x93,0x26,0x68,0x73,0x83,0x26,0x40,0x7d,0x93,0x26,0x68,0x7e,0x83,0x26,0x40,
0x72,0x93,0x26,0x68,0x73,0x83,0x26,0x40,0x7d,0x93,0x26,0x68,0x7e,0x83,0x26,0x40,
0x72,0x93,0x1f,0x68,0x73,0x83,0x1f,0x40,0x7d,0x93,0x23,0x68,0x7e,0x83,0x23,0x40,
0x72,0x93,0x1f,0x68,0x73,0x83,0x1f,0x40,0x7d,0x93,0x26,0x68,0x7e,0x83,0x26,0x40,
0x72,0x93,0x26,0x68,0x73,0x83,0x26,0x40,0x7d,0x93,0x26,0x68,0x7e,0x83,0x26,0x40,
0x72,0x93,0x26,0x68,0x73,0x83,0x26,0x40,0x7d,0x93,0x1f,0x68,0x7e,0x83,0x1f,0x40,
0x72,0x93,0x1f,0x68,0x73,0x83,0x1f,0x40,0x7d,0x93,0x21,0x68,0x7e,0x83,0x21,0x40,
0x72,0x93,0x23,0x68,0x73,0x83,0x23,0x40,0x7d,0x93,0x24,0x68,0x7e,0x83,0x24,0x40,
0x72,0x93,0x24,0x68,0x73,0x83,0x24,0x40,0x7d,0x93,0x24,0x68,0x7e,0x83,0x24,0x40,
0x72,0x93,0x24,0x68,0x73,0x83,0x24,0x40,0x7d,0x93,0x24,0x68,0x7e,0x83,0x24,0x40,
0x72,0x93,0x24,0x68,0x73,0x83,0x24,0x40,0x7d,0x93,0x22,0x68,0x7e,0x83,0x22,0x40,
0x72,0x93,0x1f,0x68,0x73,0x83,0x1f,0x40,0x7d,0x93,0x24,0x68,0x7e,0x83,0x24,0x40,
0x72,0x93,0x24,0x68,0x73,0x83,0x24,0x40,0x7d,0x93,0x24,0x68,0x7e,0x83,0x24,0x40,
0x72,0x93,0x24,0x68,0x73,0x83,0x24,0x40,0x7d,0x93,0x1f,0x68,0x7e,0x83,0x1f,0x40,
0x72,0x93,0x24,0x68,0x73,0x83,0x24,0x40,0x7d,0x93,0x22,0x68,0x7e,0x83,0x22,0x40,
0x72,0x93,0x1f,0x68,0x73,0x83,0x1f,0x40,0x7d,0x93,0x26,0x68,0x7e,0x83,0x26,0x40,
0x72,0x93,0x26,0x68,0x73,0x83,0x26,0x40,0x7d,0x93,0x26,0x68,0x7e,0x83,0x26,0x40,
0x72,0x93,0x26,0x68,0x73,0x83,0x26,0x40,0x7d,0x93,0x26,0x68,0x7e,0x83,0x26,0x40,
0x72,0x93,0x1f,0x68,0x73,0x83,0x1f,0x40,0x7d,0x93,0x23,0x68,0x7e,0x83,0x23,0x40,
0x72,0x93,0x1f,0x68,0x73,0x83,0x1f,0x40,0x7d,0x93,0x26,0x68,0x7e,0x83,0x26,0x40,
0x72,0x93,0x26,0x68,0x73,0x83,0x26,0x40,0x7d,0x93,0x26,0x68,0x7e,0x83,0x26,0x40,
0x72,0x93,0x26,0x68,0x73,0x83,0x26,0x40,0x7d,0x93,0x1f,0x68,0x7e,0x83,0x1f,0x40,
0x72,0x93,0x1f,0x68,0x73,0x83,0x1f,0x40,0x7d,0x93,0x21,0x68,0x7e,0x83,0x21,0x40,
0x72,0x93,0x23,0x68,0x73,0x83,0x23,0x40,0x7d,0x93,0x24,0x68,0x7e,0x83,0x24,0x40,
0x72,0x93,0x24,0x68,0x73,0x83,0x24,0x40,0x7d,0x93,0x24,0x68,0x7e,0x83,0x24,0x40,
0x72,0x93,0x24,0x68,0x73,0x83,0x24,0x40,0x7d,0x93,0x24,0x68,0x7e,0x83,0x24,0x40,
0x72,0x93,0x24,0x68,0x73,0x83,0x24,0x40,0x7d,0x93,0x22,0x68,0x7e,0x83,0x22,0x40,
0x72,0x93,0x1f,0x68,0x73,0x83,0x1f,0x40,0x7d,0x93,0x24,0x68,0x7d,0x83,0x24,0x40,
0x73,0x93,0x24,0x68,0x72,0x83,0x24,0x40,0x7e,0x93,0x24,0x68,0x7d,0x83,0x24,0x40,
0x73,0x93,0x24,0x68,0x72,0x83,0x24,0x40,0x7e,0x93,0x1f,0x68,0x7d,0x83,0x1f,0x40,
0x73,0x93,0x24,0x68,0x72,0x83,0x24,0x40,0x7e,0x93,0x22,0x68,0x7d,0x83,0x22,0x40,
0x73,0x93,0x1f,0x68,0x72,0x83,0x1f,0x40,0x7e,0x93,0x26,0x68,0x7d,0x83,0x26,0x40,
0x73,0x93,0x26,0x68,0x72,0x83,0x26,0x40,0x7e,0x93,0x26,0x68,0x7d,0x83,0x26,0x40,
0x73,0x93,0x26,0x68,0x72,0x83,0x26,0x40,0x7e,0x93,0x26,0x68,0x7d,0x83,0x26,0x40,
0x73,0x93,0x1f,0x68,0x72,0x83,0x1f,0x40,0x7e,0x93,0x23,0x68,0x7d,0x83,0x23,0x40,
0x73,0x93,0x1f,0x68,0x72,0x83,0x1f,0x40,0x7e,0x93,0x26,0x68,0x7d,0x83,0x26,0x40,
0x73,0x93,0x26,0x68,0x72,0x83,0x26,0x40,0x7e,0x93,0x26,0x68,0x7d,0x83,0x26,0x40,
0x73,0x93,0x26,0x68,0x72,0x83,0x26,0x40,0x7e,0x93,0x1f,0x68,0x7d,0x83,0x1f,0x40,
0x73,0x93,0x1f,0x68,0x72,0x83,0x1f,0x40,0x7e,0x93,0x21,0x68,0x7d,0x83,0x21,0x40,
0x73,0x93,0x23,0x68,0x72,0x83,0x23,0x40,0x7e,0x93,0x24,0x68,0x7d,0x83,0x24,0x40,
0x73,0x93,0x24,0x68,0x72,0x83,0x24,0x40,0x7e,0x93,0x24,0x68,0x7d,0x83,0x24,0x40,
0x73,0x93,0x24,0x68,0x72,0x83,0x24,0x40,0x7e,0x93,0x24,0x68,0x7d,0x83,0x24,0x40,
0x73,0x93,0x1f,0x68,0x72,0x83,0x1f,0x40,0x7e,0x93,0x22,0x68,0x7d,0x83,0x22,0x40,
0x73,0x93,0x1f,0x68,0x72,0x83,0x1f,0x40,0x7e,0x93,0x24,0x68,0x7d,0x83,0x24,0x40,
0x73,0x93,0x24,0x68,0x72,0x83,0x24,0x40,0x7e,0x93,0x24,0x68,0x7d,0x83,0x24,0x40,
0x73,0x93,0x24,0x68,0x72,0x83,0x24,0x40,0x7e,0x93,0x1f,0x68,0x7d,0x83,0x1f,0x40,
0x73,0x93,0x24,0x68,0x72,0x83,0x24,0x40,0x7e,0x93,0x24,0x68,0x7d,0x83,0x24,0x40,
0x73,0x93,0x27,0x68,0x72,0x83,0x27,0x40,0x7e,0x93,0x29,0x68,0x7d,0x83,0x29,0x40,
0x73,0x93,0x29,0x68,0x72,0x83,0x29,0x40,0x7e,0x93,0x29,0x68,0x7d,0x83,0x29,0x40,
0x73,0x93,0x29,0x68,0x72,0x83,0x29,0x40,0x7e,0x93,0x29,0x68,0x7d,0x83,0x29,0x40,
0x73,0x93,0x29,0x68,0x72,0x83,0x29,0x40,0x7e,0x93,0x22,0x68,0x7d,0x83,0x22,0x40,
0x73,0x93,0x20,0x68,0x72,0x83,0x20,0x40,0x7e,0x93,0x1f,0x68,0x7d,0x83,0x1f,0x40,
0x73,0x93,0x1f,0x68,0x72,0x83,0x1f,0x40,0x7e,0x93,0x1f,0x68,0x7d,0x83,0x1f,0x40,
0x73,0x93,0x1f,0x68,0x72,0x83,0x1f,0x40,0x7e,0x93,0x21,0x68,0x82,0x4d,0x83,0x21,
0x40,0x81,0x13,0x93,0x23,0x68,0x7d,0x83,0x23,0x40,0x73,0x93,0x24,0x68,0x82,0x58,
0x83,0x24,0x40,0x81,0x08,0x93,0x24,0x68,0x72,0x83,0x24,0x40,0x7e,0x93,0x24,0x68,
0x7d,0x83,0x24,0x40,0x73,0x93,0x24,0x68,0x72,0x83,0x24,0x40,0x7e,0x93,0x24,0x68,
0x82,0x4d,0x83,0x24,0x40,0x81,0x13,0x93,0x27,0x68,0x78,0x83,0x27,0x40,0x78,0x93,
0x24,0x7f,0x7d,0x83,0x24,0x7f,0x00,0xff,0x2f,0x00,0x4d,0x54,0x72,0x6b,0x00,0x00,
0x0f,0x11,0x00,0xff,0x03,0x0b,0x4d,0x6f,0x6f,0x6e,0x20,0x47,0x75,0x69,0x74,0x61,
0x72,0x00,0xff,0x21,0x01,0x00,0x00,0xff,0x20,0x01,0x04,0x00,0xb4,0x07,0x7c,0x00,
0xb4,0x0a,0x40,0x00,0xc4,0x1e,0x8f,0x00,0x94,0x3c,0x7f,0x53,0x84,0x3c,0x7f,0x15,
0x94,0x3c,0x7f,0x14,0x84,0x3c,0x7f,0x74,0x94,0x3c,0x7f,0x5d,0x84,0x3c,0x7f,0x0b,
0x94,0x3c,0x7f,0x0a,0x84,0x3c,0x7f,0x7e,0x94,0x3f,0x7f,0x53,0x84,0x3f,0x7f,0x15,
0x94,0x3f,0x7f,0x14,0x84,0x3f,0x7f,0x74,0x94,0x3c,0x7f,0x5d,0x84,0x3c,0x7f,0x0b,
0x94,0x3c,0x7f,0x0a,0x84,0x3c,0x7f,0x7e,0x94,0x41,0x7f,0x53,0x84,0x41,0x7f,0x15,
0x94,0x41,0x7f,0x14,0x84,0x41,0x7f,0x74,0x94,0x3c,0x7f,0x5d,0x84,0x3c,0x7f,0x0b,
0x94,0x3c,0x7f,0x0a,0x84,0x3c,0x7f,0x7e,0x94,0x3f,0x7f,0x53,0x84,0x3f,0x7f,0x15,
0x94,0x3f,0x7f,0x14,0x84,0x3f,0x7f,0x74,0x94,0x3c,0x7f,0x5d,0x84,0x3c,0x7f,0x0b,
0x94,0x3c,0x7f,0x0a,0x84,0x3c,0x7f,0x7e,0x94,0x38,0x7f,0x53,0x84,0x38,0x7f,0x15,
0x94,0x38,0x7f,0x29,0x84,0x38,0x7f,0x5f,0x94,0x38,0x7f,0x5d,0x84,0x38,0x7f,0x0b,
0x94,0x38,0x7f,0x34,0x84,0x38,0x7f,0x54,0x94,0x3f,0x7f,0x53,0x84,0x3f,0x7f,0x15,
0x94,0x3f,0x7f,0x29,0x84,0x3f,0x7f,0x5f,0x94,0x3a,0x7f,0x5d,0x84,0x3a,0x7f,0x0b,
0x94,0x3a,0x7f,0x34,0x84,0x3a,0x7f,0x54,0x94,0x3a,0x7f,0x53,0x84,0x3a,0x7f,0x15,
0x94,0x3a,0x7f,0x29,0x84,0x3a,0x7f,0x5f,0x94,0x3a,0x7f,0x5d,0x84,0x3a,0x7f,0x0b,
0x94,0x3a,0x7f,0x34,0x84,0x3a,0x7f,0x54,0x94,0x41,0x7f,0x53,0x84,0x41,0x7f,0x15,
0x94,0x41,0x7f,0x29,0x84,0x41,0x7f,0x5f,0x94,0x3a,0x7f,0x5d,0x84,0x3a,0x7f,0x0b,
0x94,0x3a,0x7f,0x34,0x84,0x3a,0x7f,0x54,0x94,0x3c,0x7f,0x53,0x84,0x3c,0x7f,0x15,
0x94,0x3c,0x7f,0x14,0x84,0x3c,0x7f,0x74,0x94,0x3c,0x7f,0x5d,0x84,0x3c,0x7f,0x0b,
0x94,0x3c,0x7f,0x0a,0x84,0x3c,0x7f,0x7e,0x94,0x3f,0x7f,0x53,0x84,0x3f,0x7f,0x15,
0x94,0x3f,0x7f,0x14,0x84,0x3f,0x7f,0x74,0x94,0x3c,0x7f,0x5d,0x84,0x3c,0x7f,0x0b,
0x94,0x3c,0x7f,0x0a,0x84,0x3c,0x7f,0x7e,0x94,0x41,0x7f,0x53,0x84,0x41,0x7f,0x15,
0x94,0x41,0x7f,0x14,0x84,0x41,0x7f,0x74,0x94,0x3c,0x7f,0x5d,0x84,0x3c,0x7f,0x0b,
0x94,0x3c,0x7f,0x0a,0x84,0x3c,0x7f,0x7e,0x94,0x3f,0x7f,0x53,0x84,0x3f,0x7f,0x15,
0x94,0x3f,0x7f,0x14,0x84,0x3f,0x7f,0x74,0x94,0x3c,0x7f,0x5d,0x84,0x3c,0x7f,0x0b,
0x94,0x3c,0x7f,0x0a,0x84,0x3c,0x7f,0x7e,0x94,0x38,0x7f,0x53,0x84,0x38,0x7f,0x15,
0x94,0x38,0x7f,0x29,0x84,0x38,0x7f,0x5f,0x94,0x38,0x7f,0x5d,0x84,0x38,0x7f,0x0b,
0x94,0x38,0x7f,0x34,0x84,0x38,0x7f,0x54,0x94,0x3f,0x7f,0x53,0x84,0x3f,0x7f,0x15,
0x94,0x3f,0x7f,0x29,0x84,0x3f,0x7f,0x5f,0x94,0x3a,0x7f,0x5d,0x84,0x3a,0x7f,0x0b,
0x94,0x3a,0x7f,0x34,0x84,0x3a,0x7f,0x54,0x94,0x3a,0x7f,0x53,0x84,0x3a,0x7f,0x15,
0x94,0x3a,0x7f,0x29,0x84,0x3a,0x7f,0x5f,0x94,0x3a,0x7f,0x5d,0x84,0x3a,0x7f,0x0b,
0x94,0x3a,0x7f,0x34,0x84,0x3a,0x7f,0x54,0x94,0x41,0x7f,0x53,0x84,0x41,0x7f,0x15,
0x94,0x41,0x7f,0x29,0x84,0x41,0x7f,0x5f,0x94,0x3a,0x7f,0x5d,0x84,0x3a,0x7f,0x0b,
0x94,0x3a,0x7f,0x34,0x84,0x3a,0x7f,0x54,0x94,0x3c,0x7f,0x53,0x84,0x3c,0x7f,0x15,
0x94,0x3c,0x7f,0x14,0x84,0x3c,0x7f,0x74,0x94,0x3c,0x7f,0x5d,0x84,0x3c,0x7f,0x0b,
0x94,0x3c,0x7f,0x0a,0x84,0x3c,0x7f,0x7e,0x94,0x3f,0x7f,0x53,0x84,0x3f,0x7f,0x15,
0x94,0x3f,0x7f,0x14,0x84,0x3f,0x7f,0x74,0x94,0x3c,0x7f,0x5d,0x84,0x3c,0x7f,0x0b,
0x94,0x3c,0x7f,0x0a,0x84,0x3c,0x7f,0x7e,0x94,0x41,0x7f,0x53,0x84,0x41,0x7f,0x15,
0x94,0x41,0x7f,0x14,0x84,0x41,0x7f,0x74,0x94,0x3c,0x7f,0x5d,0x84,0x3c,0x7f,0x0b,
0x94,0x3c,0x7f,0x0a,0x84,0x3c,0x7f,0x7e,0x94,0x3f,0x7f,0x53,0x84,0x3f,0x7f,0x15,
0x94,0x3f,0x7f,0x14,0x84,0x3f,0x7f,0x74,0x94,0x3c,0x7f,0x5d,0x84,0x3c,0x7f,0x0b,
0x94,0x3c,0x7f,0x0a,0x84,0x3c,0x7f,0x7e,0x94,0x38,0x7f,0x53,0x84,0x38,0x7f,0x15,
0x94,0x38,0x7f,0x29,0x84,0x38,0x7f,0x5f,0x94,0x38,0x7f,0x5d,0x84,0x38,0x7f,0x0b,
0x94,0x38,0x7f,0x34,0x84,0x38,0x7f,0x54,0x94,0x3f,0x7f,0x53,0x84,0x3f,0x7f,0x15,
0x94,0x3f,0x7f,0x29,0x84,0x3f,0x7f,0x5f,0x94,0x3a,0x7f,0x5d,0x84,0x3a,0x7f,0x0b,
0x94,0x3a,0x7f,0x34,0x84,0x3a,0x7f,0x54,0x94,0x3a,0x7f,0x53,0x84,0x3a,0x7f,0x15,
0x94,0x3a,0x7f,0x29,0x84,0x3a,0x7f,0x5f,0x94,0x3a,0x7f,0x5d,0x84,0x3a,0x7f,0x0b,
0x94,0x3a,0x7f,0x34,0x84,0x3a,0x7f,0x54,0x94,0x41,0x7f,0x53,0x84,0x41,0x7f,0x15,
0x94,0x41,0x7f,0x29,0x84,0x41,0x7f,0x5f,0x94,0x3a,0x7f,0x5d,0x84,0x3a,0x7f,0x0b,
0x94,0x3a,0x7f,0x34,0x84,0x3a,0x7f,0x54,0x94,0x38,0x7f,0x53,0x84,0x38,0x7f,0x15,
0x94,0x38,0x7f,0x14,0x84,0x38,0x7f,0x74,0x94,0x38,0x7f,0x5d,0x84,0x38,0x7f,0x0b,
0x94,0x38,0x7f,0x0a,0x84,0x38,0x7f,0x7e,0x94,0x38,0x7f,0x53,0x84,0x38,0x7f,0x15,
0x94,0x38,0x7f,0x14,0x84,0x38,0x7f,0x74,0x94,0x38,0x7f,0x5d,0x84,0x38,0x7f,0x0b,
0x94,0x38,0x7f,0x0a,0x84,0x38,0x7f,0x7e,0x94,0x3f,0x7f,0x53,0x84,0x3f,0x7f,0x15,
0x94,0x3f,0x7f,0x14,0x84,0x3f,0x7f,0x74,0x94,0x3f,0x7f,0x5d,0x84,0x3f,0x7f,0x0b,
0x94,0x3f,0x7f,0x0a,0x84,0x3f,0x7f,0x7e,0x94,0x3e,0x7f,0x53,0x84,0x3e,0x7f,0x15,
0x94,0x3e,0x7f,0x14,0x84,0x3e,0x7f,0x74,0x94,0x3e,0x7f,0x5d,0x84,0x3e,0x7f,0x0b,
0x94,0x3e,0x7f,0x0a,0x84,0x3e,0x7f,0x7e,0x94,0x43,0x7f,0x53,0x84,0x43,0x7f,0x15,
0x94,0x43,0x7f,0x14,0x84,0x43,0x7f,0x74,0x94,0x43,0x7f,0x5d,0x84,0x43,0x7f,0x0b,
0x94,0x43,0x7f,0x0a,0x84,0x43,0x7f,0x7e,0x94,0x43,0x7f,0x53,0x84,0x43,0x7f,0x15,
0x94,0x43,0x7f,0x14,0x84,0x43,0x7f,0x74,0x94,0x43,0x7f,0x5d,0x84,0x43,0x7f,0x0b,
0x94,0x43,0x7f,0x0a,0x84,0x43,0x7f,0x81,0x08,0x94,0x43,0x7f,0x5d,0x84,0x43,0x7f,
0x0b,0x94,0x43,0x7f,0x0a,0x84,0x43,0x7f,0x74,0x94,0x41,0x7f,0x5d,0x84,0x41,0x7f,
0x0b,0x94,0x41,0x7f,0x0a,0x84,0x41,0x7f,0x7e,0x94,0x3f,0x7f,0x53,0x84,0x3f,0x7f,
0x15,0x94,0x3f,0x7f,0x14,0x84,0x3f,0x7f,0x74,0x94,0x3e,0x7f,0x5d,0x84,0x3e,0x7f,
0x0b,0x94,0x3e,0x7f,0x0a,0x84,0x3e,0x7f,0x7e,0x94,0x4f,0x68,0x00,0x94,0x4b,0x68,
0x83,0x2e,0x84,0x4b,0x40,0x00,0x84,0x4f,0x40,0x32,0x94,0x4b,0x68,0x00,0x94,0x4f,
0x68,0x81,0x70,0x84,0x4f,0x40,0x00,0x84,0x4b,0x40,0x00,0x94,0x4d,0x68,0x00,0x94,
0x4a,0x68,0x81,0x70,0x84,0x4a,0x40,0x00,0x84,0x4d,0x40,0x81,0x70,0x94,0x4a,0x68,
0x00,0x94,0x4d,0x68,0x81,0x70,0x84,0x4d,0x40,0x00,0x84,0x4a,0x40,0x00,0x94,0x4b,
0x68,0x00,0x94,0x48,0x68,0x83,0x60,0x84,0x48,0x40,0x00,0x84,0x4b,0x40,0x00,0x94,
0x4a,0x68,0x00,0x94,0x47,0x68,0x83,0x54,0x84,0x4a,0x40,0x0c,0x84,0x47,0x40,0x00,
0x94,0x4d,0x68,0x00,0x94,0x4a,0x68,0x85,0x50,0x84,0x4a,0x40,0x00,0x84,0x4d,0x40,
0x00,0x94,0x47,0x68,0x00,0x94,0x43,0x68,0x81,0x57,0x84,0x43,0x40,0x00,0x84,0x47,
0x40,0x19,0x94,0x4a,0x68,0x00,0x94,0x47,0x68,0x81,0x57,0x84,0x4a,0x40,0x19,0x84,
0x47,0x40,0x00,0x94,0x4d,0x68,0x00,0x94,0x4a,0x68,0x81,0x57,0x84,0x4d,0x40,0x19,
0x84,0x4a,0x40,0x00,0x94,0x4d,0x68,0x00,0x94,0x50,0x68,0x83,0x2e,0x84,0x50,0x40,
0x00,0x84,0x4d,0x40,0x32,0x94,0x4d,0x68,0x00,0x94,0x50,0x68,0x81,0x57,0x84,0x50,
0x40,0x00,0x84,0x4d,0x40,0x19,0x94,0x4f,0x68,0x00,0x94,0x52,0x68,0x81,0x57,0x84,
0x52,0x40,0x00,0x84,0x4f,0x40,0x82,0x09,0x94,0x4d,0x68,0x00,0x94,0x50,0x68,0x81,
0x57,0x84,0x50,0x40,0x00,0x84,0x4d,0x40,0x19,0x94,0x4b,0x68,0x00,0x94,0x4f,0x68,
0x81,0x57,0x84,0x4f,0x40,0x00,0x84,0x4b,0x40,0x19,0x94,0x4a,0x68,0x00,0x94,0x4d,
0x68,0x81,0x57,0x84,0x4d,0x40,0x00,0x84,0x4a,0x40,0x19,0x94,0x48,0x68,0x00,0x94,
0x4b,0x68,0x83,0x56,0x84,0x4b,0x40,0x0a,0x84,0x48,0x40,0x00,0x94,0x4b,0x68,0x00,
0x94,0x4f,0x68,0x85,0x50,0x84,0x4f,0x40,0x00,0x84,0x4b,0x40,0x00,0x94,0x43,0x68,
0x00,0x94,0x3f,0x7f,0x81,0x57,0x84,0x43,0x40,0x19,0x94,0x48,0x68,0x00,0x94,0x43,
0x7f,0x0b,0x84,0x3f,0x7f,0x81,0x4c,0x84,0x48,0x40,0x0e,0x84,0x43,0x7f,0x0b,0x94,
0x4b,0x68,0x00,0x94,0x48,0x7f,0x81,0x70,0x84,0x4b,0x40,0x00,0x94,0x54,0x68,0x00,
0x94,0x4f,0x7f,0x0b,0x84,0x48,0x7f,0x81,0x5a,0x84,0x4f,0x7f,0x0b,0x84,0x54,0x40,
0x00,0x94,0x4f,0x64,0x00,0x94,0x48,0x7f,0x81,0x66,0x84,0x48,0x7f,0x0a,0x84,0x4f,
0x64,0x00,0x94,0x4b,0x64,0x00,0x94,0x48,0x7f,0x81,0x65,0x84,0x48,0x7f,0x0b,0x84,
0x4b,0x64,0x00,0x94,0x54,0x68,0x00,0x94,0x4f,0x7f,0x81,0x57,0x84,0x54,0x40,0x19,
0x94,0x53,0x68,0x00,0x94,0x4d,0x7f,0x0b,0x84,0x4f,0x7f,0x81,0x5a,0x84,0x4d,0x7f,
0x0b,0x84,0x53,0x40,0x00,0x94,0x4f,0x64,0x00,0x94,0x4b,0x7f,0x81,0x66,0x84,0x4b,
0x7f,0x0a,0x84,0x4f,0x64,0x00,0x94,0x4b,0x64,0x00,0x94,0x48,0x7f,0x81,0x65,0x84,
0x48,0x7f,0x0b,0x84,0x4b,0x64,0x00,0x94,0x53,0x68,0x00,0x94,0x4f,0x7f,0x81,0x70,
0x84,0x53,0x40,0x00,0x94,0x52,0x68,0x00,0x94,0x4d,0x7f,0x0b,0x84,0x4f,0x7f,0x83,
0x55,0x84,0x52,0x40,0x00,0x84,0x4d,0x7f,0x00,0x94,0x50,0x68,0x00,0x94,0x4b,0x7f,
0x83,0x60,0x84,0x4b,0x7f,0x00,0x84,0x50,0x40,0x81,0x70,0x94,0x50,0x68,0x00,0x94,
0x4b,0x7f,0x81,0x66,0x84,0x4b,0x7f,0x0a,0x84,0x50,0x40,0x00,0x94,0x4f,0x68,0x00,
0x94,0x4a,0x7f,0x81,0x65,0x84,0x4a,0x7f,0x0b,0x84,0x4f,0x40,0x00,0x94,0x4d,0x68,
0x00,0x94,0x48,0x7f,0x81,0x70,0x84,0x4d,0x40,0x00,0x94,0x4f,0x68,0x00,0x94,0x4b,
0x7f,0x0b,0x84,0x48,0x7f,0x83,0x23,0x84,0x4f,0x40,0x32,0x84,0x4b,0x7f,0x00,0x94,
0x4d,0x68,0x00,0x94,0x4a,0x7f,0x83,0x2e,0x84,0x4d,0x40,0x32,0x84,0x4a,0x7f,0x00,
0x94,0x4b,0x68,0x00,0x94,0x48,0x7f,0x81,0x66,0x84,0x48,0x7f,0x0a,0x84,0x4b,0x40,
0x00,0x94,0x4a,0x68,0x00,0x94,0x47,0x7f,0x83,0x2e,0x84,0x4a,0x40,0x32,0x84,0x47,
0x7f,0x00,0x94,0x48,0x68,0x00,0x94,0x43,0x7f,0x81,0x70,0x84,0x48,0x40,0x0b,0x84,
0x43,0x7f,0x8e,0x75,0x94,0x4b,0x48,0x00,0x94,0x57,0x48,0x81,0x57,0x84,0x57,0x40,
0x00,0x84,0x4b,0x40,0x19,0x94,0x3c,0x38,0x00,0x94,0x48,0x38,0x81,0x57,0x84,0x48,
0x40,0x00,0x84,0x3c,0x40,0x19,0x94,0x3f,0x38,0x00,0x94,0x4b,0x38,0x81,0x57,0x84,
0x4b,0x40,0x00,0x84,0x3f,0x40,0x19,0x94,0x3c,0x38,0x00,0x94,0x48,0x38,0x6e,0x84,
0x48,0x40,0x00,0x84,0x3c,0x40,0x0a,0x94,0x43,0x38,0x00,0x94,0x4f,0x38,0x6e,0x84,
0x4f,0x40,0x00,0x84,0x43,0x40,0x81,0x02,0x94,0x43,0x38,0x00,0x94,0x4f,0x38,0x6e,
0x84,0x4f,0x40,0x00,0x84,0x43,0x40,0x0a,0x94,0x3c,0x38,0x00,0x94,0x48,0x38,0x81,
0x57,0x84,0x48,0x40,0x00,0x84,0x3c,0x40,0x19,0x94,0x3f,0x38,0x00,0x94,0x4b,0x38,
0x81,0x57,0x84,0x4b,0x40,0x00,0x84,0x3f,0x40,0x19,0x94,0x3c,0x38,0x00,0x94,0x48,
0x38,0x81,0x57,0x84,0x48,0x40,0x00,0x84,0x3c,0x40,0x19,0x94,0x47,0x48,0x00,0x94,
0x53,0x48,0x81,0x57,0x84,0x53,0x40,0x00,0x84,0x47,0x40,0x19,0x94,0x3b,0x38,0x00,
0x94,0x47,0x38,0x81,0x57,0x84,0x47,0x40,0x00,0x84,0x3b,0x40,0x19,0x94,0x3e,0x38,
0x00,0x94,0x4a,0x38,0x81,0x57,0x84,0x4a,0x40,0x00,0x84,0x3e,0x40,0x19,0x94,0x3b,
0x38,0x00,0x94,0x47,0x38,0x6e,0x84,0x47,0x40,0x00,0x84,0x3b,0x40,0x0a,0x94,0x41,
0x38,0x00,0x94,0x4d,0x38,0x6e,0x84,0x4d,0x40,0x00,0x84,0x41,0x40,0x81,0x02,0x94,
0x41,0x38,0x00,0x94,0x4d,0x38,0x6e,0x84,0x4d,0x40,0x00,0x84,0x41,0x40,0x0a,0x94,
0x3b,0x38,0x00,0x94,0x47,0x38,0x81,0x57,0x84,0x47,0x40,0x00,0x84,0x3b,0x40,0x19,
0x94,0x3e,0x38,0x00,0x94,0x4a,0x38,0x81,0x57,0x84,0x4a,0x40,0x00,0x84,0x3e,0x40,
0x19,0x94,0x3b,0x38,0x00,0x94,0x47,0x38,0x81,0x57,0x84,0x47,0x40,0x00,0x84,0x3b,
0x40,0x19,0x94,0x41,0x48,0x00,0x94,0x4d,0x48,0x81,0x57,0x84,0x4d,0x40,0x00,0x84,
0x41,0x40,0x19,0x94,0x3b,0x38,0x00,0x94,0x47,0x38,0x81,0x57,0x84,0x47,0x40,0x00,
0x84,0x3b,0x40,0x19,0x94,0x3e,0x38,0x00,0x94,0x4a,0x38,0x81,0x57,0x84,0x4a,0x40,
0x00,0x84,0x3e,0x40,0x19,0x94,0x3b,0x38,0x00,0x94,0x47,0x38,0x6e,0x84,0x47,0x40,
0x00,0x84,0x3b,0x40,0x0a,0x94,0x47,0x38,0x00,0x94,0x53,0x38,0x6e,0x84,0x53,0x40,
0x00,0x84,0x47,0x40,0x81,0x02,0x94,0x43,0x38,0x00,0x94,0x4f,0x38,0x6e,0x84,0x4f,
0x40,0x00,0x84,0x43,0x40,0x0a,0x94,0x3b,0x38,0x00,0x94,0x47,0x38,0x81,0x57,0x84,
0x47,0x40,0x00,0x84,0x3b,0x40,0x19,0x94,0x3e,0x38,0x00,0x94,0x4a,0x38,0x81,0x57,
0x84,0x4a,0x40,0x00,0x84,0x3e,0x40,0x19,0x94,0x37,0x38,0x00,0x94,0x43,0x38,0x81,
0x57,0x84,0x43,0x40,0x00,0x84,0x37,0x40,0x19,0x94,0x48,0x48,0x00,0x94,0x54,0x48,
0x81,0x57,0x84,0x54,0x40,0x00,0x84,0x48,0x40,0x19,0x94,0x3c,0x38,0x00,0x94,0x48,
0x38,0x81,0x57,0x84,0x48,0x40,0x00,0x84,0x3c,0x40,0x19,0x94,0x3f,0x38,0x00,0x94,
0x4b,0x38,0x81,0x57,0x84,0x4b,0x40,0x00,0x84,0x3f,0x40,0x19,0x94,0x3c,0x38,0x00,
0x94,0x48,0x38,0x69,0x84,0x48,0x40,0x00,0x84,0x3c,0x40,0x0f,0x94,0x43,0x38,0x00,
0x94,0x4f,0x38,0x69,0x84,0x4f,0x40,0x00,0x84,0x43,0x40,0x81,0x07,0x94,0x43,0x38,
0x00,0x94,0x4f,0x38,0x69,0x84,0x4f,0x40,0x00,0x84,0x43,0x40,0x0f,0x94,0x3c,0x38,
0x00,0x94,0x48,0x38,0x81,0x57,0x84,0x48,0x40,0x00,0x84,0x3c,0x40,0x19,0x94,0x3f,
0x38,0x00,0x94,0x4b,0x38,0x81,0x57,0x84,0x4b,0x40,0x00,0x84,0x3f,0x40,0x19,0x94,
0x3c,0x38,0x00,0x94,0x48,0x38,0x81,0x57,0x84,0x48,0x40,0x00,0x84,0x3c,0x40,0x19,
0x94,0x4b,0x48,0x00,0x94,0x57,0x48,0x81,0x57,0x84,0x57,0x40,0x00,0x84,0x4b,0x40,
0x19,0x94,0x3c,0x38,0x00,0x94,0x48,0x38,0x81,0x57,0x84,0x48,0x40,0x00,0x84,0x3c,
0x40,0x19,0x94,0x3f,0x38,0x00,0x94,0x4b,0x38,0x81,0x57,0x84,0x4b,0x40,0x00,0x84,
0x3f,0x40,0x19,0x94,0x3c,0x38,0x00,0x94,0x48,0x38,0x6e,0x84,0x48,0x40,0x00,0x84,
0x3c,0x40,0x0a,0x94,0x43,0x38,0x00,0x94,0x4f,0x38,0x6e,0x84,0x4f,0x40,0x00,0x84,
0x43,0x40,0x81,0x02,0x94,0x43,0x38,0x00,0x94,0x4f,0x38,0x6e,0x84,0x4f,0x40,0x00,
0x84,0x43,0x40,0x0a,0x94,0x3c,0x38,0x00,0x94,0x48,0x38,0x81,0x57,0x84,0x48,0x40,
0x00,0x84,0x3c,0x40,0x19,0x94,0x3f,0x38,0x00,0x94,0x4b,0x38,0x81,0x57,0x84,0x4b,
0x40,0x00,0x84,0x3f,0x40,0x19,0x94,0x3c,0x38,0x00,0x94,0x48,0x38,0x81,0x57,0x84,
0x48,0x40,0x00,0x84,0x3c,0x40,0x19,0x94,0x47,0x48,0x00,0x94,0x53,0x48,0x81,0x57,
0x84,0x53,0x40,0x00,0x84,0x47,0x40,0x19,0x94,0x3b,0x38,0x00,0x94,0x47,0x38,0x81,
0x57,0x84,0x47,0x40,0x00,0x84,0x3b,0x40,0x19,0x94,0x3e,0x38,0x00,0x94,0x4a,0x38,
0x81,0x57,0x84,0x4a,0x40,0x00,0x84,0x3e,0x40,0x19,0x94,0x3b,0x38,0x00,0x94,0x47,
0x38,0x6e,0x84,0x47,0x40,0x00,0x84,0x3b,0x40,0x0a,0x94,0x41,0x38,0x00,0x94,0x4d,
0x38,0x6e,0x84,0x4d,0x40,0x00,0x84,0x41,0x40,0x81,0x02,0x94,0x41,0x38,0x00,0x94,
0x4d,0x38,0x6e,0x84,0x4d,0x40,0x00,0x84,0x41,0x40,0x0a,0x94,0x3b,0x38,0x00,0x94,
0x47,0x38,0x81,0x57,0x84,0x47,0x40,0x00,0x84,0x3b,0x40,0x19,0x94,0x3e,0x38,0x00,
0x94,0x4a,0x38,0x81,0x57,0x84,0x4a,0x40,0x00,0x84,0x3e,0x40,0x19,0x94,0x3b,0x38,
0x00,0x94,0x47,0x38,0x81,0x57,0x84,0x47,0x40,0x00,0x84,0x3b,0x40,0x19,0x94,0x41,
0x48,0x00,0x94,0x4d,0x48,0x81,0x57,0x84,0x4d,0x40,0x00,0x84,0x41,0x40,0x19,0x94,
0x3b,0x38,0x00,0x94,0x47,0x38,0x81,0x57,0x84,0x47,0x40,0x00,0x84,0x3b,0x40,0x19,
0x94,0x3e,0x38,0x00,0x94,0x4a,0x38,0x81,0x57,0x84,0x4a,0x40,0x00,0x84,0x3e,0x40,
0x19,0x94,0x3b,0x38,0x00,0x94,0x47,0x38,0x6e,0x84,0x47,0x40,0x00,0x84,0x3b,0x40,
0x0a,0x94,0x47,0x38,0x00,0x94,0x53,0x38,0x6e,0x84,0x53,0x40,0x00,0x84,0x47,0x40,
0x81,0x02,0x94,0x43,0x38,0x00,0x94,0x4f,0x38,0x6e,0x84,0x4f,0x40,0x00,0x84,0x43,
0x40,0x0a,0x94,0x3b,0x38,0x00,0x94,0x47,0x38,0x81,0x57,0x84,0x47,0x40,0x00,0x84,
0x3b,0x40,0x19,0x94,0x3e,0x38,0x00,0x94,0x4a,0x38,0x81,0x57,0x84,0x4a,0x40,0x00,
0x84,0x3e,0x40,0x19,0x94,0x37,0x38,0x00,0x94,0x43,0x38,0x81,0x57,0x84,0x43,0x40,
0x00,0x84,0x37,0x40,0x19,0x94,0x48,0x48,0x00,0x94,0x54,0x48,0x81,0x57,0x84,0x54,
0x40,0x00,0x84,0x48,0x40,0x19,0x94,0x3c,0x38,0x00,0x94,0x48,0x38,0x81,0x57,0x84,
0x48,0x40,0x00,0x84,0x3c,0x40,0x19,0x94,0x3f,0x38,0x00,0x94,0x4b,0x38,0x81,0x57,
0x84,0x4b,0x40,0x00,0x84,0x3f,0x40,0x19,0x94,0x3c,0x38,0x00,0x94,0x48,0x38,0x69,
0x84,0x48,0x40,0x00,0x84,0x3c,0x40,0x0f,0x94,0x43,0x38,0x00,0x94,0x4f,0x38,0x69,
0x84,0x4f,0x40,0x00,0x84,0x43,0x40,0x81,0x07,0x94,0x43,0x38,0x00,0x94,0x4f,0x38,
0x69,0x84,0x4f,0x40,0x00,0x84,0x43,0x40,0x0f,0x94,0x3c,0x38,0x00,0x94,0x48,0x38,
0x81,0x57,0x84,0x48,0x40,0x00,0x84,0x3c,0x40,0x19,0x94,0x3f,0x38,0x00,0x94,0x4b,
0x38,0x81,0x57,0x84,0x4b,0x40,0x00,0x84,0x3f,0x40,0x19,0x94,0x3c,0x38,0x00,0x94,
0x48,0x38,0x81,0x57,0x84,0x48,0x40,0x00,0x84,0x3c,0x40,0x19,0x94,0x4b,0x48,0x00,
0x94,0x57,0x48,0x81,0x57,0x84,0x57,0x40,0x00,0x84,0x4b,0x40,0x19,0x94,0x3c,0x38,
0x00,0x94,0x48,0x38,0x81,0x57,0x84,0x48,0x40,0x00,0x84,0x3c,0x40,0x19,0x94,0x3f,
0x38,0x00,0x94,0x4b,0x38,0x81,0x57,0x84,0x4b,0x40,0x00,0x84,0x3f,0x40,0x19,0x94,
0x3c,0x38,0x00,0x94,0x48,0x38,0x6e,0x84,0x48,0x40,0x00,0x84,0x3c,0x40,0x0a,0x94,
0x43,0x38,0x00,0x94,0x4f,0x38,0x6e,0x84,0x4f,0x40,0x00,0x84,0x43,0x40,0x81,0x02,
0x94,0x43,0x38,0x00,0x94,0x4f,0x38,0x6e,0x84,0x4f,0x40,0x00,0x84,0x43,0x40,0x0a,
0x94,0x3c,0x38,0x00,0x94,0x48,0x38,0x81,0x57,0x84,0x48,0x40,0x00,0x84,0x3c,0x40,
0x19,0x94,0x3f,0x38,0x00,0x94,0x4b,0x38,0x81,0x57,0x84,0x4b,0x40,0x00,0x84,0x3f,
0x40,0x19,0x94,0x3c,0x38,0x00,0x94,0x48,0x38,0x81,0x57,0x84,0x48,0x40,0x00,0x84,
0x3c,0x40,0x19,0x94,0x47,0x48,0x00,0x94,0x53,0x48,0x81,0x57,0x84,0x53,0x40,0x00,
0x84,0x47,0x40,0x19,0x94,0x3b,0x38,0x00,0x94,0x47,0x38,0x81,0x57,0x84,0x47,0x40,
0x00,0x84,0x3b,0x40,0x19,0x94,0x3e,0x38,0x00,0x94,0x4a,0x38,0x81,0x57,0x84,0x4a,
0x40,0x00,0x84,0x3e,0x40,0x19,0x94,0x3b,0x38,0x00,0x94,0x47,0x38,0x6e,0x84,0x47,
0x40,0x00,0x84,0x3b,0x40,0x0a,0x94,0x41,0x38,0x00,0x94,0x4d,0x38,0x6e,0x84,0x4d,
0x40,0x00,0x84,0x41,0x40,0x81,0x02,0x94,0x41,0x38,0x00,0x94,0x4d,0x38,0x6e,0x84,
0x4d,0x40,0x00,0x84,0x41,0x40,0x0a,0x94,0x3b,0x38,0x00,0x94,0x47,0x38,0x81,0x57,
0x84,0x47,0x40,0x00,0x84,0x3b,0x40,0x19,0x94,0x3e,0x38,0x00,0x94,0x4a,0x38,0x81,
0x57,0x84,0x4a,0x40,0x00,0x84,0x3e,0x40,0x19,0x94,0x3b,0x38,0x00,0x94,0x47,0x38,
0x81,0x57,0x84,0x47,0x40,0x00,0x84,0x3b,0x40,0x19,0x94,0x41,0x48,0x00,0x94,0x4d,
0x48,0x81,0x57,0x84,0x4d,0x40,0x00,0x84,0x41,0x40,0x19,0x94,0x3b,0x38,0x00,0x94,
0x47,0x38,0x81,0x57,0x84,0x47,0x40,0x00,0x84,0x3b,0x40,0x19,0x94,0x3e,0x38,0x00,
0x94,0x4a,0x38,0x81,0x57,0x84,0x4a,0x40,0x00,0x84,0x3e,0x40,0x19,0x94,0x3b,0x38,
0x00,0x94,0x47,0x38,0x6e,0x84,0x47,0x40,0x00,0x84,0x3b,0x40,0x0a,0x94,0x47,0x38,
0x00,0x94,0x53,0x38,0x6e,0x84,0x53,0x40,0x00,0x84,0x47,0x40,0x81,0x02,0x94,0x43,
0x38,0x00,0x94,0x4f,0x38,0x6e,0x84,0x4f,0x40,0x00,0x84,0x43,0x40,0x0a,0x94,0x3b,
0x38,0x00,0x94,0x47,0x38,0x81,0x57,0x84,0x47,0x40,0x00,0x84,0x3b,0x40,0x19,0x94,
0x3e,0x38,0x00,0x94,0x4a,0x38,0x81,0x57,0x84,0x4a,0x40,0x00,0x84,0x3e,0x40,0x19,
0x94,0x37,0x38,0x00,0x94,0x43,0x38,0x81,0x57,0x84,0x43,0x40,0x00,0x84,0x37,0x40,
0x19,0x94,0x48,0x48,0x00,0x94,0x54,0x48,0x81,0x57,0x84,0x54,0x40,0x00,0x84,0x48,
0x40,0x19,0x94,0x3c,0x38,0x00,0x94,0x48,0x38,0x81,0x57,0x84,0x48,0x40,0x00,0x84,
0x3c,0x40,0x19,0x94,0x3f,0x38,0x00,0x94,0x4b,0x38,0x81,0x57,0x84,0x4b,0x40,0x00,
0x84,0x3f,0x40,0x19,0x94,0x3c,0x38,0x00,0x94,0x48,0x38,0x69,0x84,0x48,0x40,0x00,
0x84,0x3c,0x40,0x0f,0x94,0x43,0x38,0x00,0x94,0x4f,0x38,0x69,0x84,0x4f,0x40,0x00,
0x84,0x43,0x40,0x81,0x07,0x94,0x43,0x38,0x00,0x94,0x4f,0x38,0x69,0x84,0x4f,0x40,
0x00,0x84,0x43,0x40,0x0f,0x94,0x37,0x48,0x00,0x94,0x33,0x48,0x00,0x94,0x3c,0x38,
0x00,0x94,0x48,0x38,0x81,0x57,0x84,0x48,0x40,0x00,0x84,0x3c,0x40,0x00,0x84,0x33,
0x40,0x00,0x84,0x37,0x40,0x19,0x94,0x37,0x48,0x00,0x94,0x3c,0x48,0x00,0x94,0x3f,
0x38,0x00,0x94,0x4b,0x38,0x81,0x57,0x84,0x4b,0x40,0x00,0x84,0x3f,0x40,0x00,0x84,
0x3c,0x40,0x00,0x84,0x37,0x40,0x19,0x94,0x3c,0x48,0x00,0x94,0x3f,0x48,0x00,0x94,
0x3c,0x38,0x00,0x94,0x48,0x38,0x81,0x57,0x84,0x48,0x40,0x00,0x84,0x3c,0x40,0x00,
0x84,0x3f,0x40,0x00,0x84,0x3c,0x40,0x19,0x94,0x3f,0x48,0x00,0x94,0x43,0x48,0x83,
0x2e,0x84,0x43,0x40,0x00,0x84,0x3f,0x40,0x32,0x94,0x3f,0x48,0x00,0x94,0x43,0x48,
0x81,0x57,0x84,0x43,0x40,0x00,0x84,0x3f,0x40,0x19,0x94,0x3e,0x48,0x00,0x94,0x41,
0x48,0x83,0x2e,0x84,0x41,0x40,0x00,0x84,0x3e,0x40,0x32,0x94,0x3e,0x48,0x00,0x94,
0x41,0x48,0x81,0x57,0x84,0x41,0x40,0x00,0x84,0x3e,0x40,0x19,0x94,0x3f,0x48,0x00,
0x94,0x43,0x48,0x83,0x2e,0x84,0x43,0x40,0x00,0x84,0x3f,0x40,0x32,0x94,0x43,0x48,
0x00,0x94,0x46,0x48,0x83,0x2e,0x84,0x46,0x40,0x00,0x84,0x43,0x40,0x32,0x94,0x41,
0x48,0x00,0x94,0x44,0x48,0x83,0x2e,0x84,0x44,0x40,0x00,0x84,0x41,0x40,0x82,0x22,
0x94,0x41,0x48,0x00,0x94,0x44,0x48,0x81,0x57,0x84,0x44,0x40,0x00,0x84,0x41,0x40,
0x19,0x94,0x3f,0x48,0x00,0x94,0x43,0x48,0x81,0x57,0x84,0x43,0x40,0x00,0x84,0x3f,
0x40,0x19,0x94,0x3e,0x48,0x00,0x94,0x41,0x48,0x81,0x57,0x84,0x41,0x40,0x00,0x84,
0x3e,0x40,0x19,0x94,0x37,0x48,0x00,0x94,0x43,0x48,0x83,0x2e,0x84,0x43,0x40,0x00,
0x84,0x37,0x40,0x32,0x94,0x38,0x48,0x00,0x94,0x44,0x48,0x83,0x2e,0x84,0x44,0x40,
0x00,0x84,0x38,0x40,0x32,0x94,0x3a,0x48,0x00,0x94,0x46,0x48,0x81,0x57,0x84,0x46,
0x40,0x00,0x84,0x3a,0x40,0x19,0x94,0x3b,0x48,0x00,0x94,0x47,0x48,0x83,0x2e,0x84,
0x47,0x40,0x00,0x84,0x3b,0x40,0x32,0x94,0x33,0x48,0x00,0x94,0x3c,0x48,0x00,0x94,
0x3f,0x48,0x8f,0x14,0x84,0x3f,0x40,0x00,0x84,0x3c,0x40,0x00,0x84,0x33,0x40,0x00,
0xff,0x2f,0x00,0x4d,0x54,0x72,0x6b,0x00,0x00,0x0f,0x11,0x00,0xff,0x03,0x0b,0x4d,
0x61,0x72,0x73,0x20,0x47,0x75,0x69,0x74,0x61,0x72,0x00,0xff,0x21,0x01,0x00,0x00,
0xff,0x20,0x01,0x05,0x00,0xb5,0x07,0x7b,0x00,0xb5,0x0a,0x40,0x00,0xc5,0x1d,0x8f,
0x00,0x95,0x3c,0x7f,0x53,0x85,0x3c,0x7f,0x15,0x95,0x3c,0x7f,0x14,0x85,0x3c,0x7f,
0x74,0x95,0x3c,0x7f,0x5d,0x85,0x3c,0x7f,0x0b,0x95,0x3c,0x7f,0x0a,0x85,0x3c,0x7f,
0x7e,0x95,0x3f,0x7f,0x53,0x85,0x3f,0x7f,0x15,0x95,0x3f,0x7f,0x14,0x85,0x3f,0x7f,
0x74,0x95,0x3c,0x7f,0x5d,0x85,0x3c,0x7f,0x0b,0x95,0x3c,0x7f,0x0a,0x85,0x3c,0x7f,
0x7e,0x95,0x41,0x7f,0x53,0x85,0x41,0x7f,0x15,0x95,0x41,0x7f,0x14,0x85,0x41,0x7f,
0x74,0x95,0x3c,0x7f,0x5d,0x85,0x3c,0x7f,0x0b,0x95,0x3c,0x7f,0x0a,0x85,0x3c,0x7f,
0x7e,0x95,0x3f,0x7f,0x53,0x85,0x3f,0x7f,0x15,0x95,0x3f,0x7f,0x14,0x85,0x3f,0x7f,
0x74,0x95,0x3c,0x7f,0x5d,0x85,0x3c,0x7f,0x0b,0x95,0x3c,0x7f,0x0a,0x85,0x3c,0x7f,
0x7e,0x95,0x38,0x7f,0x53,0x85,0x38,0x7f,0x15,0x95,0x38,0x7f,0x29,0x85,0x38,0x7f,
0x5f,0x95,0x38,0x7f,0x5d,0x85,0x38,0x7f,0x0b,0x95,0x38,0x7f,0x34,0x85,0x38,0x7f,
0x54,0x95,0x3f,0x7f,0x53,0x85,0x3f,0x7f,0x15,0x95,0x3f,0x7f,0x29,0x85,0x3f,0x7f,
0x5f,0x95,0x3a,0x7f,0x5d,0x85,0x3a,0x7f,0x0b,0x95,0x3a,0x7f,0x34,0x85,0x3a,0x7f,
0x54,0x95,0x3a,0x7f,0x53,0x85,0x3a,0x7f,0x15,0x95,0x3a,0x7f,0x29,0x85,0x3a,0x7f,
0x5f,0x95,0x3a,0x7f,0x5d,0x85,0x3a,0x7f,0x0b,0x95,0x3a,0x7f,0x34,0x85,0x3a,0x7f,
0x54,0x95,0x41,0x7f,0x53,0x85,0x41,0x7f,0x15,0x95,0x41,0x7f,0x29,0x85,0x41,0x7f,
0x5f,0x95,0x3a,0x7f,0x5d,0x85,0x3a,0x7f,0x0b,0x95,0x3a,0x7f,0x34,0x85,0x3a,0x7f,
0x54,0x95,0x3c,0x7f,0x53,0x85,0x3c,0x7f,0x15,0x95,0x3c,0x7f,0x14,0x85,0x3c,0x7f,
0x74,0x95,0x3c,0x7f,0x5d,0x85,0x3c,0x7f,0x0b,0x95,0x3c,0x7f,0x0a,0x85,0x3c,0x7f,
0x7e,0x95,0x3f,0x7f,0x53,0x85,0x3f,0x7f,0x15,0x95,0x3f,0x7f,0x14,0x85,0x3f,0x7f,
0x74,0x95,0x3c,0x7f,0x5d,0x85,0x3c,0x7f,0x0b,0x95,0x3c,0x7f,0x0a,0x85,0x3c,0x7f,
0x7e,0x95,0x41,0x7f,0x53,0x85,0x41,0x7f,0x15,0x95,0x41,0x7f,0x14,0x85,0x41,0x7f,
0x74,0x95,0x3c,0x7f,0x5d,0x85,0x3c,0x7f,0x0b,0x95,0x3c,0x7f,0x0a,0x85,0x3c,0x7f,
0x7e,0x95,0x3f,0x7f,0x53,0x85,0x3f,0x7f,0x15,0x95,0x3f,0x7f,0x14,0x85,0x3f,0x7f,
0x74,0x95,0x3c,0x7f,0x5d,0x85,0x3c,0x7f,0x0b,0x95,0x3c,0x7f,0x0a,0x85,0x3c,0x7f,
0x7e,0x95,0x38,0x7f,0x53,0x85,0x38,0x7f,0x15,0x95,0x38,0x7f,0x29,0x85,0x38,0x7f,
0x5f,0x95,0x38,0x7f,0x5d,0x85,0x38,0x7f,0x0b,0x95,0x38,0x7f,0x34,0x85,0x38,0x7f,
0x54,0x95,0x3f,0x7f,0x53,0x85,0x3f,0x7f,0x15,0x95,0x3f,0x7f,0x29,0x85,0x3f,0x7f,
0x5f,0x95,0x3a,0x7f,0x5d,0x85,0x3a,0x7f,0x0b,0x95,0x3a,0x7f,0x34,0x85,0x3a,0x7f,
0x54,0x95,0x3a,0x7f,0x53,0x85,0x3a,0x7f,0x15,0x95,0x3a,0x7f,0x29,0x85,0x3a,0x7f,
0x5f,0x95,0x3a,0x7f,0x5d,0x85,0x3a,0x7f,0x0b,0x95,0x3a,0x7f,0x34,0x85,0x3a,0x7f,
0x54,0x95,0x41,0x7f,0x53,0x85,0x41,0x7f,0x15,0x95,0x41,0x7f,0x29,0x85,0x41,0x7f,
0x5f,0x95,0x3a,0x7f,0x5d,0x85,0x3a,0x7f,0x0b,0x95,0x3a,0x7f,0x34,0x85,0x3a,0x7f,
0x54,0x95,0x3c,0x7f,0x53,0x85,0x3c,0x7f,0x15,0x95,0x3c,0x7f,0x14,0x85,0x3c,0x7f,
0x74,0x95,0x3c,0x7f,0x5d,0x85,0x3c,0x7f,0x0b,0x95,0x3c,0x7f,0x0a,0x85,0x3c,0x7f,
0x7e,0x95,0x3f,0x7f,0x53,0x85,0x3f,0x7f,0x15,0x95,0x3f,0x7f,0x14,0x85,0x3f,0x7f,
0x74,0x95,0x3c,0x7f,0x5d,0x85,0x3c,0x7f,0x0b,0x95,0x3c,0x7f,0x0a,0x85,0x3c,0x7f,
0x7e,0x95,0x41,0x7f,0x53,0x85,0x41,0x7f,0x15,0x95,0x41,0x7f,0x14,0x85,0x41,0x7f,
0x74,0x95,0x3c,0x7f,0x5d,0x85,0x3c,0x7f,0x0b,0x95,0x3c,0x7f,0x0a,0x85,0x3c,0x7f,
0x7e,0x95,0x3f,0x7f,0x53,0x85,0x3f,0x7f,0x15,0x95,0x3f,0x7f,0x14,0x85,0x3f,0x7f,
0x74,0x95,0x3c,0x7f,0x5d,0x85,0x3c,0x7f,0x0b,0x95,0x3c,0x7f,0x0a,0x85,0x3c,0x7f,
0x7e,0x95,0x38,0x7f,0x53,0x85,0x38,0x7f,0x15,0x95,0x38,0x7f,0x29,0x85,0x38,0x7f,
0x5f,0x95,0x38,0x7f,0x5d,0x85,0x38,0x7f,0x0b,0x95,0x38,0x7f,0x34,0x85,0x38,0x7f,
0x54,0x95,0x3f,0x7f,0x53,0x85,0x3f,0x7f,0x15,0x95,0x3f,0x7f,0x29,0x85,0x3f,0x7f,
0x5f,0x95,0x3a,0x7f,0x5d,0x85,0x3a,0x7f,0x0b,0x95,0x3a,0x7f,0x34,0x85,0x3a,0x7f,
0x54,0x95,0x3a,0x7f,0x53,0x85,0x3a,0x7f,0x15,0x95,0x3a,0x7f,0x29,0x85,0x3a,0x7f,
0x5f,0x95,0x3a,0x7f,0x5d,0x85,0x3a,0x7f,0x0b,0x95,0x3a,0x7f,0x34,0x85,0x3a,0x7f,
0x54,0x95,0x41,0x7f,0x53,0x85,0x41,0x7f,0x15,0x95,0x41,0x7f,0x29,0x85,0x41,0x7f,
0x5f,0x95,0x3a,0x7f,0x5d,0x85,0x3a,0x7f,0x0b,0x95,0x3a,0x7f,0x34,0x85,0x3a,0x7f,
0x54,0x95,0x38,0x7f,0x53,0x85,0x38,0x7f,0x15,0x95,0x38,0x7f,0x14,0x85,0x38,0x7f,
0x74,0x95,0x38,0x7f,0x5d,0x85,0x38,0x7f,0x0b,0x95,0x38,0x7f,0x0a,0x85,0x38,0x7f,
0x7e,0x95,0x38,0x7f,0x53,0x85,0x38,0x7f,0x15,0x95,0x38,0x7f,0x14,0x85,0x38,0x7f,
0x74,0x95,0x38,0x7f,0x5d,0x85,0x38,0x7f,0x0b,0x95,0x38,0x7f,0x0a,0x85,0x38,0x7f,
0x7e,0x95,0x3f,0x7f,0x53,0x85,0x3f,0x7f,0x15,0x95,0x3f,0x7f,0x14,0x85,0x3f,0x7f,
0x74,0x95,0x3f,0x7f,0x5d,0x85,0x3f,0x7f,0x0b,0x95,0x3f,0x7f,0x0a,0x85,0x3f,0x7f,
0x7e,0x95,0x3e,0x7f,0x53,0x85,0x3e,0x7f,0x15,0x95,0x3e,0x7f,0x14,0x85,0x3e,0x7f,
0x74,0x95,0x3e,0x7f,0x5d,0x85,0x3e,0x7f,0x0b,0x95,0x3e,0x7f,0x0a,0x85,0x3e,0x7f,
0x7e,0x95,0x43,0x7f,0x53,0x85,0x43,0x7f,0x15,0x95,0x43,0x7f,0x14,0x85,0x43,0x7f,
0x74,0x95,0x43,0x7f,0x5d,0x85,0x43,0x7f,0x0b,0x95,0x43,0x7f,0x0a,0x85,0x43,0x7f,
0x7e,0x95,0x43,0x7f,0x53,0x85,0x43,0x7f,0x15,0x95,0x43,0x7f,0x14,0x85,0x43,0x7f,
0x74,0x95,0x43,0x7f,0x5d,0x85,0x43,0x7f,0x0b,0x95,0x43,0x7f,0x0a,0x85,0x43,0x7f,
0x81,0x08,0x95,0x43,0x7f,0x5d,0x85,0x43,0x7f,0x0b,0x95,0x43,0x7f,0x0a,0x85,0x43,
0x7f,0x74,0x95,0x41,0x7f,0x5d,0x85,0x41,0x7f,0x0b,0x95,0x41,0x7f,0x0a,0x85,0x41,
0x7f,0x7e,0x95,0x3f,0x7f,0x53,0x85,0x3f,0x7f,0x15,0x95,0x3f,0x7f,0x14,0x85,0x3f,
0x7f,0x74,0x95,0x3e,0x7f,0x5d,0x85,0x3e,0x7f,0x0b,0x95,0x3e,0x7f,0x0a,0x85,0x3e,
0x7f,0x7e,0x95,0x4f,0x68,0x00,0x95,0x4b,0x68,0x83,0x2e,0x85,0x4b,0x40,0x00,0x85,
0x4f,0x40,0x32,0x95,0x4b,0x68,0x00,0x95,0x4f,0x68,0x81,0x70,0x85,0x4f,0x40,0x00,
0x85,0x4b,0x40,0x00,0x95,0x4d,0x68,0x00,0x95,0x4a,0x68,0x81,0x70,0x85,0x4a,0x40,
0x00,0x85,0x4d,0x40,0x81,0x70,0x95,0x4a,0x68,0x00,0x95,0x4d,0x68,0x81,0x70,0x85,
0x4d,0x40,0x00,0x85,0x4a,0x40,0x00,0x95,0x4b,0x68,0x00,0x95,0x48,0x68,0x83,0x60,
0x85,0x48,0x40,0x00,0x85,0x4b,0x40,0x00,0x95,0x4a,0x68,0x00,0x95,0x47,0x68,0x83,
0x54,0x85,0x4a,0x40,0x0c,0x85,0x47,0x40,0x00,0x95,0x4d,0x68,0x00,0x95,0x4a,0x68,
0x85,0x50,0x85,0x4a,0x40,0x00,0x85,0x4d,0x40,0x00,0x95,0x47,0x68,0x00,0x95,0x43,
0x68,0x81,0x57,0x85,0x43,0x40,0x00,0x85,0x47,0x40,0x19,0x95,0x4a,0x68,0x00,0x95,
0x47,0x68,0x81,0x57,0x85,0x4a,0x40,0x19,0x85,0x47,0x40,0x00,0x95,0x4d,0x68,0x00,
0x95,0x4a,0x68,0x81,0x57,0x85,0x4d,0x40,0x19,0x85,0x4a,0x40,0x00,0x95,0x4d,0x68,
0x00,0x95,0x50,0x68,0x83,0x2e,0x85,0x50,0x40,0x00,0x85,0x4d,0x40,0x32,0x95,0x4d,
0x68,0x00,0x95,0x50,0x68,0x81,0x57,0x85,0x50,0x40,0x00,0x85,0x4d,0x40,0x19,0x95,
0x4f,0x68,0x00,0x95,0x52,0x68,0x81,0x57,0x85,0x52,0x40,0x00,0x85,0x4f,0x40,0x82,
0x09,0x95,0x4d,0x68,0x00,0x95,0x50,0x68,0x81,0x57,0x85,0x50,0x40,0x00,0x85,0x4d,
0x40,0x19,0x95,0x4b,0x68,0x00,0x95,0x4f,0x68,0x81,0x57,0x85,0x4f,0x40,0x00,0x85,
0x4b,0x40,0x19,0x95,0x4a,0x68,0x00,0x95,0x4d,0x68,0x81,0x57,0x85,0x4d,0x40,0x00,
0x85,0x4a,0x40,0x19,0x95,0x48,0x68,0x00,0x95,0x4b,0x68,0x83,0x56,0x85,0x4b,0x40,
0x0a,0x85,0x48,0x40,0x00,0x95,0x4b,0x68,0x00,0x95,0x4f,0x68,0x85,0x50,0x85,0x4f,
0x40,0x00,0x85,0x4b,0x40,0x00,0x95,0x43,0x68,0x00,0x95,0x3f,0x7f,0x81,0x57,0x85,
0x43,0x40,0x19,0x95,0x48,0x68,0x00,0x95,0x43,0x7f,0x0b,0x85,0x3f,0x7f,0x81,0x4c,
0x85,0x48,0x40,0x0e,0x85,0x43,0x7f,0x0b,0x95,0x4b,0x68,0x00,0x95,0x48,0x7f,0x81,
0x70,0x85,0x4b,0x40,0x00,0x95,0x54,0x68,0x00,0x95,0x4f,0x7f,0x0b,0x85,0x48,0x7f,
0x81,0x5a,0x85,0x4f,0x7f,0x0b,0x85,0x54,0x40,0x00,0x95,0x4f,0x64,0x00,0x95,0x48,
0x7f,0x81,0x66,0x85,0x48,0x7f,0x0a,0x85,0x4f,0x64,0x00,0x95,0x4b,0x64,0x00,0x95,
0x48,0x7f,0x81,0x65,0x85,0x48,0x7f,0x0b,0x85,0x4b,0x64,0x00,0x95,0x54,0x68,0x00,
0x95,0x4f,0x7f,0x81,0x57,0x85,0x54,0x40,0x19,0x95,0x53,0x68,0x00,0x95,0x4d,0x7f,
0x0b,0x85,0x4f,0x7f,0x81,0x5a,0x85,0x4d,0x7f,0x0b,0x85,0x53,0x40,0x00,0x95,0x4f,
0x64,0x00,0x95,0x4b,0x7f,0x81,0x66,0x85,0x4b,0x7f,0x0a,0x85,0x4f,0x64,0x00,0x95,
0x4b,0x64,0x00,0x95,0x48,0x7f,0x81,0x65,0x85,0x48,0x7f,0x0b,0x85,0x4b,0x64,0x00,
0x95,0x53,0x68,0x00,0x95,0x4f,0x7f,0x81,0x70,0x85,0x53,0x40,0x00,0x95,0x52,0x68,
0x00,0x95,0x4d,0x7f,0x0b,0x85,0x4f,0x7f,0x83,0x55,0x85,0x52,0x40,0x00,0x85,0x4d,
0x7f,0x00,0x95,0x50,0x68,0x00,0x95,0x4b,0x7f,0x83,0x60,0x85,0x4b,0x7f,0x00,0x85,
0x50,0x40,0x81,0x70,0x95,0x50,0x68,0x00,0x95,0x4b,0x7f,0x81,0x66,0x85,0x4b,0x7f,
0x0a,0x85,0x50,0x40,0x00,0x95,0x4f,0x68,0x00,0x95,0x4a,0x7f,0x81,0x65,0x85,0x4a,
0x7f,0x0b,0x85,0x4f,0x40,0x00,0x95,0x4d,0x68,0x00,0x95,0x48,0x7f,0x81,0x70,0x85,
0x4d,0x40,0x00,0x95,0x4f,0x68,0x00,0x95,0x4b,0x7f,0x0b,0x85,0x48,0x7f,0x83,0x23,
0x85,0x4f,0x40,0x32,0x85,0x4b,0x7f,0x00,0x95,0x4d,0x68,0x00,0x95,0x4a,0x7f,0x83,
0x2e,0x85,0x4d,0x40,0x32,0x85,0x4a,0x7f,0x00,0x95,0x4b,0x68,0x00,0x95,0x48,0x7f,
0x81,0x66,0x85,0x48,0x7f,0x0a,0x85,0x4b,0x40,0x00,0x95,0x4a,0x68,0x00,0x95,0x47,
0x7f,0x83,0x2e,0x85,0x4a,0x40,0x32,0x85,0x47,0x7f,0x00,0x95,0x48,0x68,0x00,0x95,
0x43,0x7f,0x81,0x70,0x85,0x48,0x40,0x0b,0x85,0x43,0x7f,0x8e,0x75,0x95,0x4b,0x48,
0x00,0x95,0x57,0x48,0x81,0x57,0x85,0x57,0x40,0x00,0x85,0x4b,0x40,0x19,0x95,0x3c,
0x38,0x00,0x95,0x48,0x38,0x81,0x57,0x85,0x48,0x40,0x00,0x85,0x3c,0x40,0x19,0x95,
0x3f,0x38,0x00,0x95,0x4b,0x38,0x81,0x57,0x85,0x4b,0x40,0x00,0x85,0x3f,0x40,0x19,
0x95,0x3c,0x38,0x00,0x95,0x48,0x38,0x6e,0x85,0x48,0x40,0x00,0x85,0x3c,0x40,0x0a,
0x95,0x43,0x38,0x00,0x95,0x4f,0x38,0x6e,0x85,0x4f,0x40,0x00,0x85,0x43,0x40,0x81,
0x02,0x95,0x43,0x38,0x00,0x95,0x4f,0x38,0x6e,0x85,0x4f,0x40,0x00,0x85,0x43,0x40,
0x0a,0x95,0x3c,0x38,0x00,0x95,0x48,0x38,0x81,0x57,0x85,0x48,0x40,0x00,0x85,0x3c,
0x40,0x19,0x95,0x3f,0x38,0x00,0x95,0x4b,0x38,0x81,0x57,0x85,0x4b,0x40,0x00,0x85,
0x3f,0x40,0x19,0x95,0x3c,0x38,0x00,0x95,0x48,0x38,0x81,0x57,0x85,0x48,0x40,0x00,
0x85,0x3c,0x40,0x19,0x95,0x47,0x48,0x00,0x95,0x53,0x48,0x81,0x57,0x85,0x53,0x40,
0x00,0x85,0x47,0x40,0x19,0x95,0x3b,0x38,0x00,0x95,0x47,0x38,0x81,0x57,0x85,0x47,
0x40,0x00,0x85,0x3b,0x40,0x19,0x95,0x3e,0x38,0x00,0x95,0x4a,0x38,0x81,0x57,0x85,
0x4a,0x40,0x00,0x85,0x3e,0x40,0x19,0x95,0x3b,0x38,0x00,0x95,0x47,0x38,0x6e,0x85,
0x47,0x40,0x00,0x85,0x3b,0x40,0x0a,0x95,0x41,0x38,0x00,0x95,0x4d,0x38,0x6e,0x85,
0x4d,0x40,0x00,0x85,0x41,0x40,0x81,0x02,0x95,0x41,0x38,0x00,0x95,0x4d,0x38,0x6e,
0x85,0x4d,0x40,0x00,0x85,0x41,0x40,0x0a,0x95,0x3b,0x38,0x00,0x95,0x47,0x38,0x81,
0x57,0x85,0x47,0x40,0x00,0x85,0x3b,0x40,0x19,0x95,0x3e,0x38,0x00,0x95,0x4a,0x38,
0x81,0x57,0x85,0x4a,0x40,0x00,0x85,0x3e,0x40,0x19,0x95,0x3b,0x38,0x00,0x95,0x47,
0x38,0x81,0x57,0x85,0x47,0x40,0x00,0x85,0x3b,0x40,0x19,0x95,0x41,0x48,0x00,0x95,
0x4d,0x48,0x81,0x57,0x85,0x4d,0x40,0x00,0x85,0x41,0x40,0x19,0x95,0x3b,0x38,0x00,
0x95,0x47,0x38,0x81,0x57,0x85,0x47,0x40,0x00,0x85,0x3b,0x40,0x19,0x95,0x3e,0x38,
0x00,0x95,0x4a,0x38,0x81,0x57,0x85,0x4a,0x40,0x00,0x85,0x3e,0x40,0x19,0x95,0x3b,
0x38,0x00,0x95,0x47,0x38,0x6e,0x85,0x47,0x40,0x00,0x85,0x3b,0x40,0x0a,0x95,0x47,
0x38,0x00,0x95,0x53,0x38,0x6e,0x85,0x53,0x40,0x00,0x85,0x47,0x40,0x81,0x02,0x95,
0x43,0x38,0x00,0x95,0x4f,0x38,0x6e,0x85,0x4f,0x40,0x00,0x85,0x43,0x40,0x0a,0x95,
0x3b,0x38,0x00,0x95,0x47,0x38,0x81,0x57,0x85,0x47,0x40,0x00,0x85,0x3b,0x40,0x19,
0x95,0x3e,0x38,0x00,0x95,0x4a,0x38,0x81,0x57,0x85,0x4a,0x40,0x00,0x85,0x3e,0x40,
0x19,0x95,0x37,0x38,0x00,0x95,0x43,0x38,0x81,0x57,0x85,0x43,0x40,0x00,0x85,0x37,
0x40,0x19,0x95,0x48,0x48,0x00,0x95,0x54,0x48,0x81,0x57,0x85,0x54,0x40,0x00,0x85,
0x48,0x40,0x19,0x95,0x3c,0x38,0x00,0x95,0x48,0x38,0x81,0x57,0x85,0x48,0x40,0x00,
0x85,0x3c,0x40,0x19,0x95,0x3f,0x38,0x00,0x95,0x4b,0x38,0x81,0x57,0x85,0x4b,0x40,
0x00,0x85,0x3f,0x40,0x19,0x95,0x3c,0x38,0x00,0x95,0x48,0x38,0x69,0x85,0x48,0x40,
0x00,0x85,0x3c,0x40,0x0f,0x95,0x43,0x38,0x00,0x95,0x4f,0x38,0x69,0x85,0x4f,0x40,
0x00,0x85,0x43,0x40,0x81,0x07,0x95,0x43,0x38,0x00,0x95,0x4f,0x38,0x69,0x85,0x4f,
0x40,0x00,0x85,0x43,0x40,0x0f,0x95,0x3c,0x38,0x00,0x95,0x48,0x38,0x81,0x57,0x85,
0x48,0x40,0x00,0x85,0x3c,0x40,0x19,0x95,0x3f,0x38,0x00,0x95,0x4b,0x38,0x81,0x57,
0x85,0x4b,0x40,0x00,0x85,0x3f,0x40,0x19,0x95,0x3c,0x38,0x00,0x95,0x48,0x38,0x81,
0x57,0x85,0x48,0x40,0x00,0x85,0x3c,0x40,0x19,0x95,0x4b,0x48,0x00,0x95,0x57,0x48,
0x81,0x57,0x85,0x57,0x40,0x00,0x85,0x4b,0x40,0x19,0x95,0x3c,0x38,0x00,0x95,0x48,
0x38,0x81,0x57,0x85,0x48,0x40,0x00,0x85,0x3c,0x40,0x19,0x95,0x3f,0x38,0x00,0x95,
0x4b,0x38,0x81,0x57,0x85,0x4b,0x40,0x00,0x85,0x3f,0x40,0x19,0x95,0x3c,0x38,0x00,
0x95,0x48,0x38,0x6e,0x85,0x48,0x40,0x00,0x85,0x3c,0x40,0x0a,0x95,0x43,0x38,0x00,
0x95,0x4f,0x38,0x6e,0x85,0x4f,0x40,0x00,0x85,0x43,0x40,0x81,0x02,0x95,0x43,0x38,
0x00,0x95,0x4f,0x38,0x6e,0x85,0x4f,0x40,0x00,0x85,0x43,0x40,0x0a,0x95,0x3c,0x38,
0x00,0x95,0x48,0x38,0x81,0x57,0x85,0x48,0x40,0x00,0x85,0x3c,0x40,0x19,0x95,0x3f,
0x38,0x00,0x95,0x4b,0x38,0x81,0x57,0x85,0x4b,0x40,0x00,0x85,0x3f,0x40,0x19,0x95,
0x3c,0x38,0x00,0x95,0x48,0x38,0x81,0x57,0x85,0x48,0x40,0x00,0x85,0x3c,0x40,0x19,
0x95,0x47,0x48,0x00,0x95,0x53,0x48,0x81,0x57,0x85,0x53,0x40,0x00,0x85,0x47,0x40,
0x19,0x95,0x3b,0x38,0x00,0x95,0x47,0x38,0x81,0x57,0x85,0x47,0x40,0x00,0x85,0x3b,
0x40,0x19,0x95,0x3e,0x38,0x00,0x95,0x4a,0x38,0x81,0x57,0x85,0x4a,0x40,0x00,0x85,
0x3e,0x40,0x19,0x95,0x3b,0x38,0x00,0x95,0x47,0x38,0x6e,0x85,0x47,0x40,0x00,0x85,
0x3b,0x40,0x0a,0x95,0x41,0x38,0x00,0x95,0x4d,0x38,0x6e,0x85,0x4d,0x40,0x00,0x85,
0x41,0x40,0x81,0x02,0x95,0x41,0x38,0x00,0x95,0x4d,0x38,0x6e,0x85,0x4d,0x40,0x00,
0x85,0x41,0x40,0x0a,0x95,0x3b,0x38,0x00,0x95,0x47,0x38,0x81,0x57,0x85,0x47,0x40,
0x00,0x85,0x3b,0x40,0x19,0x95,0x3e,0x38,0x00,0x95,0x4a,0x38,0x81,0x57,0x85,0x4a,
0x40,0x00,0x85,0x3e,0x40,0x19,0x95,0x3b,0x38,0x00,0x95,0x47,0x38,0x81,0x57,0x85,
0x47,0x40,0x00,0x85,0x3b,0x40,0x19,0x95,0x41,0x48,0x00,0x95,0x4d,0x48,0x81,0x57,
0x85,0x4d,0x40,0x00,0x85,0x41,0x40,0x19,0x95,0x3b,0x38,0x00,0x95,0x47,0x38,0x81,
0x57,0x85,0x47,0x40,0x00,0x85,0x3b,0x40,0x19,0x95,0x3e,0x38,0x00,0x95,0x4a,0x38,
0x81,0x57,0x85,0x4a,0x40,0x00,0x85,0x3e,0x40,0x19,0x95,0x3b,0x38,0x00,0x95,0x47,
0x38,0x6e,0x85,0x47,0x40,0x00,0x85,0x3b,0x40,0x0a,0x95,0x47,0x38,0x00,0x95,0x53,
0x38,0x6e,0x85,0x53,0x40,0x00,0x85,0x47,0x40,0x81,0x02,0x95,0x43,0x38,0x00,0x95,
0x4f,0x38,0x6e,0x85,0x4f,0x40,0x00,0x85,0x43,0x40,0x0a,0x95,0x3b,0x38,0x00,0x95,
0x47,0x38,0x81,0x57,0x85,0x47,0x40,0x00,0x85,0x3b,0x40,0x19,0x95,0x3e,0x38,0x00,
0x95,0x4a,0x38,0x81,0x57,0x85,0x4a,0x40,0x00,0x85,0x3e,0x40,0x19,0x95,0x37,0x38,
0x00,0x95,0x43,0x38,0x81,0x57,0x85,0x43,0x40,0x00,0x85,0x37,0x40,0x19,0x95,0x48,
0x48,0x00,0x95,0x54,0x48,0x81,0x57,0x85,0x54,0x40,0x00,0x85,0x48,0x40,0x19,0x95,
0x3c,0x38,0x00,0x95,0x48,0x38,0x81,0x57,0x85,0x48,0x40,0x00,0x85,0x3c,0x40,0x19,
0x95,0x3f,0x38,0x00,0x95,0x4b,0x38,0x81,0x57,0x85,0x4b,0x40,0x00,0x85,0x3f,0x40,
0x19,0x95,0x3c,0x38,0x00,0x95,0x48,0x38,0x69,0x85,0x48,0x40,0x00,0x85,0x3c,0x40,
0x0f,0x95,0x43,0x38,0x00,0x95,0x4f,0x38,0x69,0x85,0x4f,0x40,0x00,0x85,0x43,0x40,
0x81,0x07,0x95,0x43,0x38,0x00,0x95,0x4f,0x38,0x69,0x85,0x4f,0x40,0x00,0x85,0x43,
0x40,0x0f,0x95,0x3c,0x38,0x00,0x95,0x48,0x38,0x81,0x57,0x85,0x48,0x40,0x00,0x85,
0x3c,0x40,0x19,0x95,0x3f,0x38,0x00,0x95,0x4b,0x38,0x81,0x57,0x85,0x4b,0x40,0x00,
0x85,0x3f,0x40,0x19,0x95,0x3c,0x38,0x00,0x95,0x48,0x38,0x81,0x57,0x85,0x48,0x40,
0x00,0x85,0x3c,0x40,0x19,0x95,0x4b,0x48,0x00,0x95,0x57,0x48,0x81,0x57,0x85,0x57,
0x40,0x00,0x85,0x4b,0x40,0x19,0x95,0x3c,0x38,0x00,0x95,0x48,0x38,0x81,0x57,0x85,
0x48,0x40,0x00,0x85,0x3c,0x40,0x19,0x95,0x3f,0x38,0x00,0x95,0x4b,0x38,0x81,0x57,
0x85,0x4b,0x40,0x00,0x85,0x3f,0x40,0x19,0x95,0x3c,0x38,0x00,0x95,0x48,0x38,0x6e,
0x85,0x48,0x40,0x00,0x85,0x3c,0x40,0x0a,0x95,0x43,0x38,0x00,0x95,0x4f,0x38,0x6e,
0x85,0x4f,0x40,0x00,0x85,0x43,0x40,0x81,0x02,0x95,0x43,0x38,0x00,0x95,0x4f,0x38,
0x6e,0x85,0x4f,0x40,0x00,0x85,0x43,0x40,0x0a,0x95,0x3c,0x38,0x00,0x95,0x48,0x38,
0x81,0x57,0x85,0x48,0x40,0x00,0x85,0x3c,0x40,0x19,0x95,0x3f,0x38,0x00,0x95,0x4b,
0x38,0x81,0x57,0x85,0x4b,0x40,0x00,0x85,0x3f,0x40,0x19,0x95,0x3c,0x38,0x00,0x95,
0x48,0x38,0x81,0x57,0x85,0x48,0x40,0x00,0x85,0x3c,0x40,0x19,0x95,0x47,0x48,0x00,
0x95,0x53,0x48,0x81,0x57,0x85,0x53,0x40,0x00,0x85,0x47,0x40,0x19,0x95,0x3b,0x38,
0x00,0x95,0x47,0x38,0x81,0x57,0x85,0x47,0x40,0x00,0x85,0x3b,0x40,0x19,0x95,0x3e,
0x38,0x00,0x95,0x4a,0x38,0x81,0x57,0x85,0x4a,0x40,0x00,0x85,0x3e,0x40,0x19,0x95,
0x3b,0x38,0x00,0x95,0x47,0x38,0x6e,0x85,0x47,0x40,0x00,0x85,0x3b,0x40,0x0a,0x95,
0x41,0x38,0x00,0x95,0x4d,0x38,0x6e,0x85,0x4d,0x40,0x00,0x85,0x41,0x40,0x81,0x02,
0x95,0x41,0x38,0x00,0x95,0x4d,0x38,0x6e,0x85,0x4d,0x40,0x00,0x85,0x41,0x40,0x0a,
0x95,0x3b,0x38,0x00,0x95,0x47,0x38,0x81,0x57,0x85,0x47,0x40,0x00,0x85,0x3b,0x40,
0x19,0x95,0x3e,0x38,0x00,0x95,0x4a,0x38,0x81,0x57,0x85,0x4a,0x40,0x00,0x85,0x3e,
0x40,0x19,0x95,0x3b,0x38,0x00,0x95,0x47,0x38,0x81,0x57,0x85,0x47,0x40,0x00,0x85,
0x3b,0x40,0x19,0x95,0x41,0x48,0x00,0x95,0x4d,0x48,0x81,0x57,0x85,0x4d,0x40,0x00,
0x85,0x41,0x40,0x19,0x95,0x3b,0x38,0x00,0x95,0x47,0x38,0x81,0x57,0x85,0x47,0x40,
0x00,0x85,0x3b,0x40,0x19,0x95,0x3e,0x38,0x00,0x95,0x4a,0x38,0x81,0x57,0x85,0x4a,
0x40,0x00,0x85,0x3e,0x40,0x19,0x95,0x3b,0x38,0x00,0x95,0x47,0x38,0x6e,0x85,0x47,
0x40,0x00,0x85,0x3b,0x40,0x0a,0x95,0x47,0x38,0x00,0x95,0x53,0x38,0x6e,0x85,0x53,
0x40,0x00,0x85,0x47,0x40,0x81,0x02,0x95,0x43,0x38,0x00,0x95,0x4f,0x38,0x6e,0x85,
0x4f,0x40,0x00,0x85,0x43,0x40,0x0a,0x95,0x3b,0x38,0x00,0x95,0x47,0x38,0x81,0x57,
0x85,0x47,0x40,0x00,0x85,0x3b,0x40,0x19,0x95,0x3e,0x38,0x00,0x95,0x4a,0x38,0x81,
0x57,0x85,0x4a,0x40,0x00,0x85,0x3e,0x40,0x19,0x95,0x37,0x38,0x00,0x95,0x43,0x38,
0x81,0x57,0x85,0x43,0x40,0x00,0x85,0x37,0x40,0x19,0x95,0x48,0x48,0x00,0x95,0x54,
0x48,0x81,0x57,0x85,0x54,0x40,0x00,0x85,0x48,0x40,0x19,0x95,0x3c,0x38,0x00,0x95,
0x48,0x38,0x81,0x57,0x85,0x48,0x40,0x00,0x85,0x3c,0x40,0x19,0x95,0x3f,0x38,0x00,
0x95,0x4b,0x38,0x81,0x57,0x85,0x4b,0x40,0x00,0x85,0x3f,0x40,0x19,0x95,0x3c,0x38,
0x00,0x95,0x48,0x38,0x69,0x85,0x48,0x40,0x00,0x85,0x3c,0x40,0x0f,0x95,0x43,0x38,
0x00,0x95,0x4f,0x38,0x69,0x85,0x4f,0x40,0x00,0x85,0x43,0x40,0x81,0x07,0x95,0x43,
0x38,0x00,0x95,0x4f,0x38,0x69,0x85,0x4f,0x40,0x00,0x85,0x43,0x40,0x0f,0x95,0x37,
0x48,0x00,0x95,0x33,0x48,0x00,0x95,0x3c,0x38,0x00,0x95,0x48,0x38,0x81,0x57,0x85,
0x48,0x40,0x00,0x85,0x3c,0x40,0x00,0x85,0x33,0x40,0x00,0x85,0x37,0x40,0x19,0x95,
0x37,0x48,0x00,0x95,0x3c,0x48,0x00,0x95,0x3f,0x38,0x00,0x95,0x4b,0x38,0x81,0x57,
0x85,0x4b,0x40,0x00,0x85,0x3f,0x40,0x00,0x85,0x3c,0x40,0x00,0x85,0x37,0x40,0x19,
0x95,0x3c,0x48,0x00,0x95,0x3f,0x48,0x00,0x95,0x3c,0x38,0x00,0x95,0x48,0x38,0x81,
0x57,0x85,0x48,0x40,0x00,0x85,0x3c,0x40,0x00,0x85,0x3f,0x40,0x00,0x85,0x3c,0x40,
0x19,0x95,0x3f,0x48,0x00,0x95,0x43,0x48,0x83,0x2e,0x85,0x43,0x40,0x00,0x85,0x3f,
0x40,0x32,0x95,0x3f,0x48,0x00,0x95,0x43,0x48,0x81,0x57,0x85,0x43,0x40,0x00,0x85,
0x3f,0x40,0x19,0x95,0x3e,0x48,0x00,0x95,0x41,0x48,0x83,0x2e,0x85,0x41,0x40,0x00,
0x85,0x3e,0x40,0x32,0x95,0x3e,0x48,0x00,0x95,0x41,0x48,0x81,0x57,0x85,0x41,0x40,
0x00,0x85,0x3e,0x40,0x19,0x95,0x3f,0x48,0x00,0x95,0x43,0x48,0x83,0x2e,0x85,0x43,
0x40,0x00,0x85,0x3f,0x40,0x32,0x95,0x43,0x48,0x00,0x95,0x46,0x48,0x83,0x2e,0x85,
0x46,0x40,0x00,0x85,0x43,0x40,0x32,0x95,0x41,0x48,0x00,0x95,0x44,0x48,0x83,0x2e,
0x85,0x44,0x40,0x00,0x85,0x41,0x40,0x82,0x22,0x95,0x41,0x48,0x00,0x95,0x44,0x48,
0x81,0x57,0x85,0x44,0x40,0x00,0x85,0x41,0x40,0x19,0x95,0x3f,0x48,0x00,0x95,0x43,
0x48,0x81,0x57,0x85,0x43,0x40,0x00,0x85,0x3f,0x40,0x19,0x95,0x3e,0x48,0x00,0x95,
0x41,0x48,0x81,0x57,0x85,0x41,0x40,0x00,0x85,0x3e,0x40,0x19,0x95,0x37,0x48,0x00,
0x95,0x43,0x48,0x83,0x2e,0x85,0x43,0x40,0x00,0x85,0x37,0x40,0x32,0x95,0x38,0x48,
0x00,0x95,0x44,0x48,0x83,0x2e,0x85,0x44,0x40,0x00,0x85,0x38,0x40,0x32,0x95,0x3a,
0x48,0x00,0x95,0x46,0x48,0x81,0x57,0x85,0x46,0x40,0x00,0x85,0x3a,0x40,0x19,0x95,
0x3b,0x48,0x00,0x95,0x47,0x48,0x83,0x2e,0x85,0x47,0x40,0x00,0x85,0x3b,0x40,0x32,
0x95,0x33,0x48,0x00,0x95,0x3c,0x48,0x00,0x95,0x3f,0x48,0x8f,0x14,0x85,0x3f,0x40,
0x00,0x85,0x3c,0x40,0x00,0x85,0x33,0x40,0x00,0xff,0x2f,0x00,0x4d,0x54,0x72,0x6b,
0x00,0x00,0x0f,0x11,0x00,0xff,0x03,0x0b,0x47,0x75,0x69,0x74,0x61,0x72,0x20,0x45,
0x63,0x68,0x6f,0x00,0xff,0x21,0x01,0x00,0x00,0xff,0x20,0x01,0x06,0x00,0xb6,0x07,
0x5c,0x00,0xb6,0x0a,0x40,0x00,0xc6,0x1e,0x90,0x7a,0x96,0x3c,0x7f,0x53,0x86,0x3c,
0x7f,0x15,0x96,0x3c,0x7f,0x14,0x86,0x3c,0x7f,0x74,0x96,0x3c,0x7f,0x5d,0x86,0x3c,
0x7f,0x0b,0x96,0x3c,0x7f,0x0a,0x86,0x3c,0x7f,0x7e,0x96,0x3f,0x7f,0x53,0x86,0x3f,
0x7f,0x15,0x96,0x3f,0x7f,0x14,0x86,0x3f,0x7f,0x74,0x96,0x3c,0x7f,0x5d,0x86,0x3c,
0x7f,0x0b,0x96,0x3c,0x7f,0x0a,0x86,0x3c,0x7f,0x7e,0x96,0x41,0x7f,0x53,0x86,0x41,
0x7f,0x15,0x96,0x41,0x7f,0x14,0x86,0x41,0x7f,0x74,0x96,0x3c,0x7f,0x5d,0x86,0x3c,
0x7f,0x0b,0x96,0x3c,0x7f,0x0a,0x86,0x3c,0x7f,0x7e,0x96,0x3f,0x7f,0x53,0x86,0x3f,
0x7f,0x15,0x96,0x3f,0x7f,0x14,0x86,0x3f,0x7f,0x74,0x96,0x3c,0x7f,0x5d,0x86,0x3c,
0x7f,0x0b,0x96,0x3c,0x7f,0x0a,0x86,0x3c,0x7f,0x7e,0x96,0x38,0x7f,0x53,0x86,0x38,
0x7f,0x15,0x96,0x38,0x7f,0x29,0x86,0x38,0x7f,0x5f,0x96,0x38,0x7f,0x5d,0x86,0x38,
0x7f,0x0b,0x96,0x38,0x7f,0x34,0x86,0x38,0x7f,0x54,0x96,0x3f,0x7f,0x53,0x86,0x3f,
0x7f,0x15,0x96,0x3f,0x7f,0x29,0x86,0x3f,0x7f,0x5f,0x96,0x3a,0x7f,0x5d,0x86,0x3a,
0x7f,0x0b,0x96,0x3a,0x7f,0x34,0x86,0x3a,0x7f,0x54,0x96,0x3a,0x7f,0x53,0x86,0x3a,
0x7f,0x15,0x96,0x3a,0x7f,0x29,0x86,0x3a,0x7f,0x5f,0x96,0x3a,0x7f,0x5d,0x86,0x3a,
0x7f,0x0b,0x96,0x3a,0x7f,0x34,0x86,0x3a,0x7f,0x54,0x96,0x41,0x7f,0x53,0x86,0x41,
0x7f,0x15,0x96,0x41,0x7f,0x29,0x86,0x41,0x7f,0x5f,0x96,0x3a,0x7f,0x5d,0x86,0x3a,
0x7f,0x0b,0x96,0x3a,0x7f,0x34,0x86,0x3a,0x7f,0x54,0x96,0x3c,0x7f,0x53,0x86,0x3c,
0x7f,0x15,0x96,0x3c,0x7f,0x14,0x86,0x3c,0x7f,0x74,0x96,0x3c,0x7f,0x5d,0x86,0x3c,
0x7f,0x0b,0x96,0x3c,0x7f,0x0a,0x86,0x3c,0x7f,0x7e,0x96,0x3f,0x7f,0x53,0x86,0x3f,
0x7f,0x15,0x96,0x3f,0x7f,0x14,0x86,0x3f,0x7f,0x74,0x96,0x3c,0x7f,0x5d,0x86,0x3c,
0x7f,0x0b,0x96,0x3c,0x7f,0x0a,0x86,0x3c,0x7f,0x7e,0x96,0x41,0x7f,0x53,0x86,0x41,
0x7f,0x15,0x96,0x41,0x7f,0x14,0x86,0x41,0x7f,0x74,0x96,0x3c,0x7f,0x5d,0x86,0x3c,
0x7f,0x0b,0x96,0x3c,0x7f,0x0a,0x86,0x3c,0x7f,0x7e,0x96,0x3f,0x7f,0x53,0x86,0x3f,
0x7f,0x15,0x96,0x3f,0x7f,0x14,0x86,0x3f,0x7f,0x74,0x96,0x3c,0x7f,0x5d,0x86,0x3c,
0x7f,0x0b,0x96,0x3c,0x7f,0x0a,0x86,0x3c,0x7f,0x7e,0x96,0x38,0x7f,0x53,0x86,0x38,
0x7f,0x15,0x96,0x38,0x7f,0x29,0x86,0x38,0x7f,0x5f,0x96,0x38,0x7f,0x5d,0x86,0x38,
0x7f,0x0b,0x96,0x38,0x7f,0x34,0x86,0x38,0x7f,0x54,0x96,0x3f,0x7f,0x53,0x86,0x3f,
0x7f,0x15,0x96,0x3f,0x7f,0x29,0x86,0x3f,0x7f,0x5f,0x96,0x3a,0x7f,0x5d,0x86,0x3a,
0x7f,0x0b,0x96,0x3a,0x7f,0x34,0x86,0x3a,0x7f,0x54,0x96,0x3a,0x7f,0x53,0x86,0x3a,
0x7f,0x15,0x96,0x3a,0x7f,0x29,0x86,0x3a,0x7f,0x5f,0x96,0x3a,0x7f,0x5d,0x86,0x3a,
0x7f,0x0b,0x96,0x3a,0x7f,0x34,0x86,0x3a,0x7f,0x54,0x96,0x41,0x7f,0x53,0x86,0x41,
0x7f,0x15,0x96,0x41,0x7f,0x29,0x86,0x41,0x7f,0x5f,0x96,0x3a,0x7f,0x5d,0x86,0x3a,
0x7f,0x0b,0x96,0x3a,0x7f,0x34,0x86,0x3a,0x7f,0x54,0x96,0x3c,0x7f,0x53,0x86,0x3c,
0x7f,0x15,0x96,0x3c,0x7f,0x14,0x86,0x3c,0x7f,0x74,0x96,0x3c,0x7f,0x5d,0x86,0x3c,
0x7f,0x0b,0x96,0x3c,0x7f,0x0a,0x86,0x3c,0x7f,0x7e,0x96,0x3f,0x7f,0x53,0x86,0x3f,
0x7f,0x15,0x96,0x3f,0x7f,0x14,0x86,0x3f,0x7f,0x74,0x96,0x3c,0x7f,0x5d,0x86,0x3c,
0x7f,0x0b,0x96,0x3c,0x7f,0x0a,0x86,0x3c,0x7f,0x7e,0x96,0x41,0x7f,0x53,0x86,0x41,
0x7f,0x15,0x96,0x41,0x7f,0x14,0x86,0x41,0x7f,0x74,0x96,0x3c,0x7f,0x5d,0x86,0x3c,
0x7f,0x0b,0x96,0x3c,0x7f,0x0a,0x86,0x3c,0x7f,0x7e,0x96,0x3f,0x7f,0x53,0x86,0x3f,
0x7f,0x15,0x96,0x3f,0x7f,0x14,0x86,0x3f,0x7f,0x74,0x96,0x3c,0x7f,0x5d,0x86,0x3c,
0x7f,0x0b,0x96,0x3c,0x7f,0x0a,0x86,0x3c,0x7f,0x7e,0x96,0x38,0x7f,0x53,0x86,0x38,
0x7f,0x15,0x96,0x38,0x7f,0x29,0x86,0x38,0x7f,0x5f,0x96,0x38,0x7f,0x5d,0x86,0x38,
0x7f,0x0b,0x96,0x38,0x7f,0x34,0x86,0x38,0x7f,0x54,0x96,0x3f,0x7f,0x53,0x86,0x3f,
0x7f,0x15,0x96,0x3f,0x7f,0x29,0x86,0x3f,0x7f,0x5f,0x96,0x3a,0x7f,0x5d,0x86,0x3a,
0x7f,0x0b,0x96,0x3a,0x7f,0x34,0x86,0x3a,0x7f,0x54,0x96,0x3a,0x7f,0x53,0x86,0x3a,
0x7f,0x15,0x96,0x3a,0x7f,0x29,0x86,0x3a,0x7f,0x5f,0x96,0x3a,0x7f,0x5d,0x86,0x3a,
0x7f,0x0b,0x96,0x3a,0x7f,0x34,0x86,0x3a,0x7f,0x54,0x96,0x41,0x7f,0x53,0x86,0x41,
0x7f,0x15,0x96,0x41,0x7f,0x29,0x86,0x41,0x7f,0x5f,0x96,0x3a,0x7f,0x5d,0x86,0x3a,
0x7f,0x0b,0x96,0x3a,0x7f,0x34,0x86,0x3a,0x7f,0x54,0x96,0x38,0x7f,0x53,0x86,0x38,
0x7f,0x15,0x96,0x38,0x7f,0x14,0x86,0x38,0x7f,0x74,0x96,0x38,0x7f,0x5d,0x86,0x38,
0x7f,0x0b,0x96,0x38,0x7f,0x0a,0x86,0x38,0x7f,0x7e,0x96,0x38,0x7f,0x53,0x86,0x38,
0x7f,0x15,0x96,0x38,0x7f,0x14,0x86,0x38,0x7f,0x74,0x96,0x38,0x7f,0x5d,0x86,0x38,
0x7f,0x0b,0x96,0x38,0x7f,0x0a,0x86,0x38,0x7f,0x7e,0x96,0x3f,0x7f,0x53,0x86,0x3f,
0x7f,0x15,0x96,0x3f,0x7f,0x14,0x86,0x3f,0x7f,0x74,0x96,0x3f,0x7f,0x5d,0x86,0x3f,
0x7f,0x0b,0x96,0x3f,0x7f,0x0a,0x86,0x3f,0x7f,0x7e,0x96,0x3e,0x7f,0x53,0x86,0x3e,
0x7f,0x15,0x96,0x3e,0x7f,0x14,0x86,0x3e,0x7f,0x74,0x96,0x3e,0x7f,0x5d,0x86,0x3e,
0x7f,0x0b,0x96,0x3e,0x7f,0x0a,0x86,0x3e,0x7f,0x7e,0x96,0x43,0x7f,0x53,0x86,0x43,
0x7f,0x15,0x96,0x43,0x7f,0x14,0x86,0x43,0x7f,0x74,0x96,0x43,0x7f,0x5d,0x86,0x43,
0x7f,0x0b,0x96,0x43,0x7f,0x0a,0x86,0x43,0x7f,0x7e,0x96,0x43,0x7f,0x53,0x86,0x43,
0x7f,0x15,0x96,0x43,0x7f,0x14,0x86,0x43,0x7f,0x74,0x96,0x43,0x7f,0x5d,0x86,0x43,
0x7f,0x0b,0x96,0x43,0x7f,0x0a,0x86,0x43,0x7f,0x81,0x08,0x96,0x43,0x7f,0x5d,0x86,
0x43,0x7f,0x0b,0x96,0x43,0x7f,0x0a,0x86,0x43,0x7f,0x74,0x96,0x41,0x7f,0x5d,0x86,
0x41,0x7f,0x0b,0x96,0x41,0x7f,0x0a,0x86,0x41,0x7f,0x7e,0x96,0x3f,0x7f,0x53,0x86,
0x3f,0x7f,0x15,0x96,0x3f,0x7f,0x14,0x86,0x3f,0x7f,0x74,0x96,0x3e,0x7f,0x5d,0x86,
0x3e,0x7f,0x0b,0x96,0x3e,0x7f,0x0a,0x86,0x3e,0x7f,0x7e,0x96,0x4f,0x68,0x00,0x96,
0x4b,0x68,0x83,0x2e,0x86,0x4b,0x40,0x00,0x86,0x4f,0x40,0x32,0x96,0x4b,0x68,0x00,
0x96,0x4f,0x68,0x81,0x70,0x86,0x4f,0x40,0x00,0x86,0x4b,0x40,0x00,0x96,0x4d,0x68,
0x00,0x96,0x4a,0x68,0x81,0x70,0x86,0x4a,0x40,0x00,0x86,0x4d,0x40,0x81,0x70,0x96,
0x4a,0x68,0x00,0x96,0x4d,0x68,0x81,0x70,0x86,0x4d,0x40,0x00,0x86,0x4a,0x40,0x00,
0x96,0x4b,0x68,0x00,0x96,0x48,0x68,0x83,0x60,0x86,0x48,0x40,0x00,0x86,0x4b,0x40,
0x00,0x96,0x4a,0x68,0x00,0x96,0x47,0x68,0x83,0x54,0x86,0x4a,0x40,0x0c,0x86,0x47,
0x40,0x00,0x96,0x4d,0x68,0x00,0x96,0x4a,0x68,0x85,0x50,0x86,0x4a,0x40,0x00,0x86,
0x4d,0x40,0x00,0x96,0x47,0x68,0x00,0x96,0x43,0x68,0x81,0x57,0x86,0x43,0x40,0x00,
0x86,0x47,0x40,0x19,0x96,0x4a,0x68,0x00,0x96,0x47,0x68,0x81,0x57,0x86,0x4a,0x40,
0x19,0x86,0x47,0x40,0x00,0x96,0x4d,0x68,0x00,0x96,0x4a,0x68,0x81,0x57,0x86,0x4d,
0x40,0x19,0x86,0x4a,0x40,0x00,0x96,0x4d,0x68,0x00,0x96,0x50,0x68,0x83,0x2e,0x86,
0x50,0x40,0x00,0x86,0x4d,0x40,0x32,0x96,0x4d,0x68,0x00,0x96,0x50,0x68,0x81,0x57,
0x86,0x50,0x40,0x00,0x86,0x4d,0x40,0x19,0x96,0x4f,0x68,0x00,0x96,0x52,0x68,0x81,
0x57,0x86,0x52,0x40,0x00,0x86,0x4f,0x40,0x82,0x09,0x96,0x4d,0x68,0x00,0x96,0x50,
0x68,0x81,0x57,0x86,0x50,0x40,0x00,0x86,0x4d,0x40,0x19,0x96,0x4b,0x68,0x00,0x96,
0x4f,0x68,0x81,0x57,0x86,0x4f,0x40,0x00,0x86,0x4b,0x40,0x19,0x96,0x4a,0x68,0x00,
0x96,0x4d,0x68,0x81,0x57,0x86,0x4d,0x40,0x00,0x86,0x4a,0x40,0x19,0x96,0x48,0x68,
0x00,0x96,0x4b,0x68,0x83,0x56,0x86,0x4b,0x40,0x0a,0x86,0x48,0x40,0x00,0x96,0x4b,
0x68,0x00,0x96,0x4f,0x68,0x85,0x50,0x86,0x4f,0x40,0x00,0x86,0x4b,0x40,0x00,0x96,
0x43,0x68,0x00,0x96,0x3f,0x7f,0x81,0x57,0x86,0x43,0x40,0x19,0x96,0x48,0x68,0x00,
0x96,0x43,0x7f,0x0b,0x86,0x3f,0x7f,0x81,0x4c,0x86,0x48,0x40,0x0e,0x86,0x43,0x7f,
0x0b,0x96,0x4b,0x68,0x00,0x96,0x48,0x7f,0x81,0x70,0x86,0x4b,0x40,0x00,0x96,0x54,
0x68,0x00,0x96,0x4f,0x7f,0x0b,0x86,0x48,0x7f,0x81,0x5a,0x86,0x4f,0x7f,0x0b,0x86,
0x54,0x40,0x00,0x96,0x4f,0x64,0x00,0x96,0x48,0x7f,0x81,0x66,0x86,0x48,0x7f,0x0a,
0x86,0x4f,0x64,0x00,0x96,0x4b,0x64,0x00,0x96,0x48,0x7f,0x81,0x65,0x86,0x48,0x7f,
0x0b,0x86,0x4b,0x64,0x00,0x96,0x54,0x68,0x00,0x96,0x4f,0x7f,0x81,0x57,0x86,0x54,
0x40,0x19,0x96,0x53,0x68,0x00,0x96,0x4d,0x7f,0x0b,0x86,0x4f,0x7f,0x81,0x5a,0x86,
0x4d,0x7f,0x0b,0x86,0x53,0x40,0x00,0x96,0x4f,0x64,0x00,0x96,0x4b,0x7f,0x81,0x66,
0x86,0x4b,0x7f,0x0a,0x86,0x4f,0x64,0x00,0x96,0x4b,0x64,0x00,0x96,0x48,0x7f,0x81,
0x65,0x86,0x48,0x7f,0x0b,0x86,0x4b,0x64,0x00,0x96,0x53,0x68,0x00,0x96,0x4f,0x7f,
0x81,0x70,0x86,0x53,0x40,0x00,0x96,0x52,0x68,0x00,0x96,0x4d,0x7f,0x0b,0x86,0x4f,
0x7f,0x83,0x55,0x86,0x52,0x40,0x00,0x86,0x4d,0x7f,0x00,0x96,0x50,0x68,0x00,0x96,
0x4b,0x7f,0x83,0x60,0x86,0x4b,0x7f,0x00,0x86,0x50,0x40,0x81,0x70,0x96,0x50,0x68,
0x00,0x96,0x4b,0x7f,0x81,0x66,0x86,0x4b,0x7f,0x0a,0x86,0x50,0x40,0x00,0x96,0x4f,
0x68,0x00,0x96,0x4a,0x7f,0x81,0x65,0x86,0x4a,0x7f,0x0b,0x86,0x4f,0x40,0x00,0x96,
0x4d,0x68,0x00,0x96,0x48,0x7f,0x81,0x70,0x86,0x4d,0x40,0x00,0x96,0x4f,0x68,0x00,
0x96,0x4b,0x7f,0x0b,0x86,0x48,0x7f,0x83,0x23,0x86,0x4f,0x40,0x32,0x86,0x4b,0x7f,
0x00,0x96,0x4d,0x68,0x00,0x96,0x4a,0x7f,0x83,0x2e,0x86,0x4d,0x40,0x32,0x86,0x4a,
0x7f,0x00,0x96,0x4b,0x68,0x00,0x96,0x48,0x7f,0x81,0x66,0x86,0x48,0x7f,0x0a,0x86,
0x4b,0x40,0x00,0x96,0x4a,0x68,0x00,0x96,0x47,0x7f,0x83,0x2e,0x86,0x4a,0x40,0x32,
0x86,0x47,0x7f,0x00,0x96,0x48,0x68,0x00,0x96,0x43,0x7f,0x81,0x70,0x86,0x48,0x40,
0x0b,0x86,0x43,0x7f,0x8e,0x75,0x96,0x4b,0x48,0x00,0x96,0x57,0x48,0x81,0x57,0x86,
0x57,0x40,0x00,0x86,0x4b,0x40,0x19,0x96,0x3c,0x38,0x00,0x96,0x48,0x38,0x81,0x57,
0x86,0x48,0x40,0x00,0x86,0x3c,0x40,0x19,0x96,0x3f,0x38,0x00,0x96,0x4b,0x38,0x81,
0x57,0x86,0x4b,0x40,0x00,0x86,0x3f,0x40,0x19,0x96,0x3c,0x38,0x00,0x96,0x48,0x38,
0x6e,0x86,0x48,0x40,0x00,0x86,0x3c,0x40,0x0a,0x96,0x43,0x38,0x00,0x96,0x4f,0x38,
0x6e,0x86,0x4f,0x40,0x00,0x86,0x43,0x40,0x81,0x02,0x96,0x43,0x38,0x00,0x96,0x4f,
0x38,0x6e,0x86,0x4f,0x40,0x00,0x86,0x43,0x40,0x0a,0x96,0x3c,0x38,0x00,0x96,0x48,
0x38,0x81,0x57,0x86,0x48,0x40,0x00,0x86,0x3c,0x40,0x19,0x96,0x3f,0x38,0x00,0x96,
0x4b,0x38,0x81,0x57,0x86,0x4b,0x40,0x00,0x86,0x3f,0x40,0x19,0x96,0x3c,0x38,0x00,
0x96,0x48,0x38,0x81,0x57,0x86,0x48,0x40,0x00,0x86,0x3c,0x40,0x19,0x96,0x47,0x48,
0x00,0x96,0x53,0x48,0x81,0x57,0x86,0x53,0x40,0x00,0x86,0x47,0x40,0x19,0x96,0x3b,
0x38,0x00,0x96,0x47,0x38,0x81,0x57,0x86,0x47,0x40,0x00,0x86,0x3b,0x40,0x19,0x96,
0x3e,0x38,0x00,0x96,0x4a,0x38,0x81,0x57,0x86,0x4a,0x40,0x00,0x86,0x3e,0x40,0x19,
0x96,0x3b,0x38,0x00,0x96,0x47,0x38,0x6e,0x86,0x47,0x40,0x00,0x86,0x3b,0x40,0x0a,
0x96,0x41,0x38,0x00,0x96,0x4d,0x38,0x6e,0x86,0x4d,0x40,0x00,0x86,0x41,0x40,0x81,
0x02,0x96,0x41,0x38,0x00,0x96,0x4d,0x38,0x6e,0x86,0x4d,0x40,0x00,0x86,0x41,0x40,
0x0a,0x96,0x3b,0x38,0x00,0x96,0x47,0x38,0x81,0x57,0x86,0x47,0x40,0x00,0x86,0x3b,
0x40,0x19,0x96,0x3e,0x38,0x00,0x96,0x4a,0x38,0x81,0x57,0x86,0x4a,0x40,0x00,0x86,
0x3e,0x40,0x19,0x96,0x3b,0x38,0x00,0x96,0x47,0x38,0x81,0x57,0x86,0x47,0x40,0x00,
0x86,0x3b,0x40,0x19,0x96,0x41,0x48,0x00,0x96,0x4d,0x48,0x81,0x57,0x86,0x4d,0x40,
0x00,0x86,0x41,0x40,0x19,0x96,0x3b,0x38,0x00,0x96,0x47,0x38,0x81,0x57,0x86,0x47,
0x40,0x00,0x86,0x3b,0x40,0x19,0x96,0x3e,0x38,0x00,0x96,0x4a,0x38,0x81,0x57,0x86,
0x4a,0x40,0x00,0x86,0x3e,0x40,0x19,0x96,0x3b,0x38,0x00,0x96,0x47,0x38,0x6e,0x86,
0x47,0x40,0x00,0x86,0x3b,0x40,0x0a,0x96,0x47,0x38,0x00,0x96,0x53,0x38,0x6e,0x86,
0x53,0x40,0x00,0x86,0x47,0x40,0x81,0x02,0x96,0x43,0x38,0x00,0x96,0x4f,0x38,0x6e,
0x86,0x4f,0x40,0x00,0x86,0x43,0x40,0x0a,0x96,0x3b,0x38,0x00,0x96,0x47,0x38,0x81,
0x57,0x86,0x47,0x40,0x00,0x86,0x3b,0x40,0x19,0x96,0x3e,0x38,0x00,0x96,0x4a,0x38,
0x81,0x57,0x86,0x4a,0x40,0x00,0x86,0x3e,0x40,0x19,0x96,0x37,0x38,0x00,0x96,0x43,
0x38,0x81,0x57,0x86,0x43,0x40,0x00,0x86,0x37,0x40,0x19,0x96,0x48,0x48,0x00,0x96,
0x54,0x48,0x81,0x57,0x86,0x54,0x40,0x00,0x86,0x48,0x40,0x19,0x96,0x3c,0x38,0x00,
0x96,0x48,0x38,0x81,0x57,0x86,0x48,0x40,0x00,0x86,0x3c,0x40,0x19,0x96,0x3f,0x38,
0x00,0x96,0x4b,0x38,0x81,0x57,0x86,0x4b,0x40,0x00,0x86,0x3f,0x40,0x19,0x96,0x3c,
0x38,0x00,0x96,0x48,0x38,0x69,0x86,0x48,0x40,0x00,0x86,0x3c,0x40,0x0f,0x96,0x43,
0x38,0x00,0x96,0x4f,0x38,0x69,0x86,0x4f,0x40,0x00,0x86,0x43,0x40,0x81,0x07,0x96,
0x43,0x38,0x00,0x96,0x4f,0x38,0x69,0x86,0x4f,0x40,0x00,0x86,0x43,0x40,0x0f,0x96,
0x3c,0x38,0x00,0x96,0x48,0x38,0x81,0x57,0x86,0x48,0x40,0x00,0x86,0x3c,0x40,0x19,
0x96,0x3f,0x38,0x00,0x96,0x4b,0x38,0x81,0x57,0x86,0x4b,0x40,0x00,0x86,0x3f,0x40,
0x19,0x96,0x3c,0x38,0x00,0x96,0x48,0x38,0x81,0x57,0x86,0x48,0x40,0x00,0x86,0x3c,
0x40,0x19,0x96,0x4b,0x48,0x00,0x96,0x57,0x48,0x81,0x57,0x86,0x57,0x40,0x00,0x86,
0x4b,0x40,0x19,0x96,0x3c,0x38,0x00,0x96,0x48,0x38,0x81,0x57,0x86,0x48,0x40,0x00,
0x86,0x3c,0x40,0x19,0x96,0x3f,0x38,0x00,0x96,0x4b,0x38,0x81,0x57,0x86,0x4b,0x40,
0x00,0x86,0x3f,0x40,0x19,0x96,0x3c,0x38,0x00,0x96,0x48,0x38,0x6e,0x86,0x48,0x40,
0x00,0x86,0x3c,0x40,0x0a,0x96,0x43,0x38,0x00,0x96,0x4f,0x38,0x6e,0x86,0x4f,0x40,
0x00,0x86,0x43,0x40,0x81,0x02,0x96,0x43,0x38,0x00,0x96,0x4f,0x38,0x6e,0x86,0x4f,
0x40,0x00,0x86,0x43,0x40,0x0a,0x96,0x3c,0x38,0x00,0x96,0x48,0x38,0x81,0x57,0x86,
0x48,0x40,0x00,0x86,0x3c,0x40,0x19,0x96,0x3f,0x38,0x00,0x96,0x4b,0x38,0x81,0x57,
0x86,0x4b,0x40,0x00,0x86,0x3f,0x40,0x19,0x96,0x3c,0x38,0x00,0x96,0x48,0x38,0x81,
0x57,0x86,0x48,0x40,0x00,0x86,0x3c,0x40,0x19,0x96,0x47,0x48,0x00,0x96,0x53,0x48,
0x81,0x57,0x86,0x53,0x40,0x00,0x86,0x47,0x40,0x19,0x96,0x3b,0x38,0x00,0x96,0x47,
0x38,0x81,0x57,0x86,0x47,0x40,0x00,0x86,0x3b,0x40,0x19,0x96,0x3e,0x38,0x00,0x96,
0x4a,0x38,0x81,0x57,0x86,0x4a,0x40,0x00,0x86,0x3e,0x40,0x19,0x96,0x3b,0x38,0x00,
0x96,0x47,0x38,0x6e,0x86,0x47,0x40,0x00,0x86,0x3b,0x40,0x0a,0x96,0x41,0x38,0x00,
0x96,0x4d,0x38,0x6e,0x86,0x4d,0x40,0x00,0x86,0x41,0x40,0x81,0x02,0x96,0x41,0x38,
0x00,0x96,0x4d,0x38,0x6e,0x86,0x4d,0x40,0x00,0x86,0x41,0x40,0x0a,0x96,0x3b,0x38,
0x00,0x96,0x47,0x38,0x81,0x57,0x86,0x47,0x40,0x00,0x86,0x3b,0x40,0x19,0x96,0x3e,
0x38,0x00,0x96,0x4a,0x38,0x81,0x57,0x86,0x4a,0x40,0x00,0x86,0x3e,0x40,0x19,0x96,
0x3b,0x38,0x00,0x96,0x47,0x38,0x81,0x57,0x86,0x47,0x40,0x00,0x86,0x3b,0x40,0x19,
0x96,0x41,0x48,0x00,0x96,0x4d,0x48,0x81,0x57,0x86,0x4d,0x40,0x00,0x86,0x41,0x40,
0x19,0x96,0x3b,0x38,0x00,0x96,0x47,0x38,0x81,0x57,0x86,0x47,0x40,0x00,0x86,0x3b,
0x40,0x19,0x96,0x3e,0x38,0x00,0x96,0x4a,0x38,0x81,0x57,0x86,0x4a,0x40,0x00,0x86,
0x3e,0x40,0x19,0x96,0x3b,0x38,0x00,0x96,0x47,0x38,0x6e,0x86,0x47,0x40,0x00,0x86,
0x3b,0x40,0x0a,0x96,0x47,0x38,0x00,0x96,0x53,0x38,0x6e,0x86,0x53,0x40,0x00,0x86,
0x47,0x40,0x81,0x02,0x96,0x43,0x38,0x00,0x96,0x4f,0x38,0x6e,0x86,0x4f,0x40,0x00,
0x86,0x43,0x40,0x0a,0x96,0x3b,0x38,0x00,0x96,0x47,0x38,0x81,0x57,0x86,0x47,0x40,
0x00,0x86,0x3b,0x40,0x19,0x96,0x3e,0x38,0x00,0x96,0x4a,0x38,0x81,0x57,0x86,0x4a,
0x40,0x00,0x86,0x3e,0x40,0x19,0x96,0x37,0x38,0x00,0x96,0x43,0x38,0x81,0x57,0x86,
0x43,0x40,0x00,0x86,0x37,0x40,0x19,0x96,0x48,0x48,0x00,0x96,0x54,0x48,0x81,0x57,
0x86,0x54,0x40,0x00,0x86,0x48,0x40,0x19,0x96,0x3c,0x38,0x00,0x96,0x48,0x38,0x81,
0x57,0x86,0x48,0x40,0x00,0x86,0x3c,0x40,0x19,0x96,0x3f,0x38,0x00,0x96,0x4b,0x38,
0x81,0x57,0x86,0x4b,0x40,0x00,0x86,0x3f,0x40,0x19,0x96,0x3c,0x38,0x00,0x96,0x48,
0x38,0x69,0x86,0x48,0x40,0x00,0x86,0x3c,0x40,0x0f,0x96,0x43,0x38,0x00,0x96,0x4f,
0x38,0x69,0x86,0x4f,0x40,0x00,0x86,0x43,0x40,0x81,0x07,0x96,0x43,0x38,0x00,0x96,
0x4f,0x38,0x69,0x86,0x4f,0x40,0x00,0x86,0x43,0x40,0x0f,0x96,0x3c,0x38,0x00,0x96,
0x48,0x38,0x81,0x57,0x86,0x48,0x40,0x00,0x86,0x3c,0x40,0x19,0x96,0x3f,0x38,0x00,
0x96,0x4b,0x38,0x81,0x57,0x86,0x4b,0x40,0x00,0x86,0x3f,0x40,0x19,0x96,0x3c,0x38,
0x00,0x96,0x48,0x38,0x81,0x57,0x86,0x48,0x40,0x00,0x86,0x3c,0x40,0x19,0x96,0x4b,
0x48,0x00,0x96,0x57,0x48,0x81,0x57,0x86,0x57,0x40,0x00,0x86,0x4b,0x40,0x19,0x96,
0x3c,0x38,0x00,0x96,0x48,0x38,0x81,0x57,0x86,0x48,0x40,0x00,0x86,0x3c,0x40,0x19,
0x96,0x3f,0x38,0x00,0x96,0x4b,0x38,0x81,0x57,0x86,0x4b,0x40,0x00,0x86,0x3f,0x40,
0x19,0x96,0x3c,0x38,0x00,0x96,0x48,0x38,0x6e,0x86,0x48,0x40,0x00,0x86,0x3c,0x40,
0x0a,0x96,0x43,0x38,0x00,0x96,0x4f,0x38,0x6e,0x86,0x4f,0x40,0x00,0x86,0x43,0x40,
0x81,0x02,0x96,0x43,0x38,0x00,0x96,0x4f,0x38,0x6e,0x86,0x4f,0x40,0x00,0x86,0x43,
0x40,0x0a,0x96,0x3c,0x38,0x00,0x96,0x48,0x38,0x81,0x57,0x86,0x48,0x40,0x00,0x86,
0x3c,0x40,0x19,0x96,0x3f,0x38,0x00,0x96,0x4b,0x38,0x81,0x57,0x86,0x4b,0x40,0x00,
0x86,0x3f,0x40,0x19,0x96,0x3c,0x38,0x00,0x96,0x48,0x38,0x81,0x57,0x86,0x48,0x40,
0x00,0x86,0x3c,0x40,0x19,0x96,0x47,0x48,0x00,0x96,0x53,0x48,0x81,0x57,0x86,0x53,
0x40,0x00,0x86,0x47,0x40,0x19,0x96,0x3b,0x38,0x00,0x96,0x47,0x38,0x81,0x57,0x86,
0x47,0x40,0x00,0x86,0x3b,0x40,0x19,0x96,0x3e,0x38,0x00,0x96,0x4a,0x38,0x81,0x57,
0x86,0x4a,0x40,0x00,0x86,0x3e,0x40,0x19,0x96,0x3b,0x38,0x00,0x96,0x47,0x38,0x6e,
0x86,0x47,0x40,0x00,0x86,0x3b,0x40,0x0a,0x96,0x41,0x38,0x00,0x96,0x4d,0x38,0x6e,
0x86,0x4d,0x40,0x00,0x86,0x41,0x40,0x81,0x02,0x96,0x41,0x38,0x00,0x96,0x4d,0x38,
0x6e,0x86,0x4d,0x40,0x00,0x86,0x41,0x40,0x0a,0x96,0x3b,0x38,0x00,0x96,0x47,0x38,
0x81,0x57,0x86,0x47,0x40,0x00,0x86,0x3b,0x40,0x19,0x96,0x3e,0x38,0x00,0x96,0x4a,
0x38,0x81,0x57,0x86,0x4a,0x40,0x00,0x86,0x3e,0x40,0x19,0x96,0x3b,0x38,0x00,0x96,
0x47,0x38,0x81,0x57,0x86,0x47,0x40,0x00,0x86,0x3b,0x40,0x19,0x96,0x41,0x48,0x00,
0x96,0x4d,0x48,0x81,0x57,0x86,0x4d,0x40,0x00,0x86,0x41,0x40,0x19,0x96,0x3b,0x38,
0x00,0x96,0x47,0x38,0x81,0x57,0x86,0x47,0x40,0x00,0x86,0x3b,0x40,0x19,0x96,0x3e,
0x38,0x00,0x96,0x4a,0x38,0x81,0x57,0x86,0x4a,0x40,0x00,0x86,0x3e,0x40,0x19,0x96,
0x3b,0x38,0x00,0x96,0x47,0x38,0x6e,0x86,0x47,0x40,0x00,0x86,0x3b,0x40,0x0a,0x96,
0x47,0x38,0x00,0x96,0x53,0x38,0x6e,0x86,0x53,0x40,0x00,0x86,0x47,0x40,0x81,0x02,
0x96,0x43,0x38,0x00,0x96,0x4f,0x38,0x6e,0x86,0x4f,0x40,0x00,0x86,0x43,0x40,0x0a,
0x96,0x3b,0x38,0x00,0x96,0x47,0x38,0x81,0x57,0x86,0x47,0x40,0x00,0x86,0x3b,0x40,
0x19,0x96,0x3e,0x38,0x00,0x96,0x4a,0x38,0x81,0x57,0x86,0x4a,0x40,0x00,0x86,0x3e,
0x40,0x19,0x96,0x37,0x38,0x00,0x96,0x43,0x38,0x81,0x57,0x86,0x43,0x40,0x00,0x86,
0x37,0x40,0x19,0x96,0x48,0x48,0x00,0x96,0x54,0x48,0x81,0x57,0x86,0x54,0x40,0x00,
0x86,0x48,0x40,0x19,0x96,0x3c,0x38,0x00,0x96,0x48,0x38,0x81,0x57,0x86,0x48,0x40,
0x00,0x86,0x3c,0x40,0x19,0x96,0x3f,0x38,0x00,0x96,0x4b,0x38,0x81,0x57,0x86,0x4b,
0x40,0x00,0x86,0x3f,0x40,0x19,0x96,0x3c,0x38,0x00,0x96,0x48,0x38,0x69,0x86,0x48,
0x40,0x00,0x86,0x3c,0x40,0x0f,0x96,0x43,0x38,0x00,0x96,0x4f,0x38,0x69,0x86,0x4f,
0x40,0x00,0x86,0x43,0x40,0x81,0x07,0x96,0x43,0x38,0x00,0x96,0x4f,0x38,0x69,0x86,
0x4f,0x40,0x00,0x86,0x43,0x40,0x0f,0x96,0x37,0x48,0x00,0x96,0x33,0x48,0x00,0x96,
0x3c,0x38,0x00,0x96,0x48,0x38,0x81,0x57,0x86,0x48,0x40,0x00,0x86,0x3c,0x40,0x00,
0x86,0x33,0x40,0x00,0x86,0x37,0x40,0x19,0x96,0x37,0x48,0x00,0x96,0x3c,0x48,0x00,
0x96,0x3f,0x38,0x00,0x96,0x4b,0x38,0x81,0x57,0x86,0x4b,0x40,0x00,0x86,0x3f,0x40,
0x00,0x86,0x3c,0x40,0x00,0x86,0x37,0x40,0x19,0x96,0x3c,0x48,0x00,0x96,0x3f,0x48,
0x00,0x96,0x3c,0x38,0x00,0x96,0x48,0x38,0x81,0x57,0x86,0x48,0x40,0x00,0x86,0x3c,
0x40,0x00,0x86,0x3f,0x40,0x00,0x86,0x3c,0x40,0x19,0x96,0x3f,0x48,0x00,0x96,0x43,
0x48,0x83,0x2e,0x86,0x43,0x40,0x00,0x86,0x3f,0x40,0x32,0x96,0x3f,0x48,0x00,0x96,
0x43,0x48,0x81,0x57,0x86,0x43,0x40,0x00,0x86,0x3f,0x40,0x19,0x96,0x3e,0x48,0x00,
0x96,0x41,0x48,0x83,0x2e,0x86,0x41,0x40,0x00,0x86,0x3e,0x40,0x32,0x96,0x3e,0x48,
0x00,0x96,0x41,0x48,0x81,0x57,0x86,0x41,0x40,0x00,0x86,0x3e,0x40,0x19,0x96,0x3f,
0x48,0x00,0x96,0x43,0x48,0x83,0x2e,0x86,0x43,0x40,0x00,0x86,0x3f,0x40,0x32,0x96,
0x43,0x48,0x00,0x96,0x46,0x48,0x83,0x2e,0x86,0x46,0x40,0x00,0x86,0x43,0x40,0x32,
0x96,0x41,0x48,0x00,0x96,0x44,0x48,0x83,0x2e,0x86,0x44,0x40,0x00,0x86,0x41,0x40,
0x82,0x22,0x96,0x41,0x48,0x00,0x96,0x44,0x48,0x81,0x57,0x86,0x44,0x40,0x00,0x86,
0x41,0x40,0x19,0x96,0x3f,0x48,0x00,0x96,0x43,0x48,0x81,0x57,0x86,0x43,0x40,0x00,
0x86,0x3f,0x40,0x19,0x96,0x3e,0x48,0x00,0x96,0x41,0x48,0x81,0x57,0x86,0x41,0x40,
0x00,0x86,0x3e,0x40,0x19,0x96,0x37,0x48,0x00,0x96,0x43,0x48,0x83,0x2e,0x86,0x43,
0x40,0x00,0x86,0x37,0x40,0x32,0x96,0x38,0x48,0x00,0x96,0x44,0x48,0x83,0x2e,0x86,
0x44,0x40,0x00,0x86,0x38,0x40,0x32,0x96,0x3a,0x48,0x00,0x96,0x46,0x48,0x81,0x57,
0x86,0x46,0x40,0x00,0x86,0x3a,0x40,0x19,0x96,0x3b,0x48,0x00,0x96,0x47,0x48,0x83,
0x2e,0x86,0x47,0x40,0x00,0x86,0x3b,0x40,0x32,0x96,0x33,0x48,0x00,0x96,0x3c,0x48,
0x00,0x96,0x3f,0x48,0x8f,0x14,0x86,0x3f,0x40,0x00,0x86,0x3c,0x40,0x00,0x86,0x33,
0x40,0x00,0xff,0x2f,0x00,0x4d,0x54,0x72,0x6b,0x00,0x00,0x07,0x57,0x00,0xff,0x03,
0x05,0x53,0x79,0x6e,0x74,0x68,0x00,0xff,0x21,0x01,0x00,0x00,0xff,0x20,0x01,0x07,
0x00,0xb7,0x07,0x77,0x00,0xb7,0x0a,0x40,0x00,0xc7,0x50,0x82,0x80,0x70,0x97,0x54,
0x48,0x00,0x97,0x48,0x48,0x81,0x57,0x87,0x48,0x40,0x00,0x87,0x54,0x40,0x19,0x97,
0x4b,0x48,0x00,0x97,0x57,0x48,0x81,0x57,0x87,0x57,0x40,0x00,0x87,0x4b,0x40,0x19,
0x97,0x48,0x48,0x00,0x97,0x54,0x48,0x69,0x87,0x54,0x40,0x00,0x87,0x48,0x40,0x0f,
0x97,0x48,0x48,0x00,0x97,0x54,0x48,0x69,0x87,0x54,0x40,0x00,0x87,0x48,0x40,0x81,
0x07,0x97,0x48,0x48,0x00,0x97,0x54,0x48,0x69,0x87,0x54,0x40,0x00,0x87,0x48,0x40,
0x0f,0x97,0x48,0x48,0x00,0x97,0x54,0x48,0x81,0x57,0x87,0x54,0x40,0x00,0x87,0x48,
0x40,0x19,0x97,0x4b,0x48,0x00,0x97,0x57,0x48,0x81,0x57,0x87,0x57,0x40,0x00,0x87,
0x4b,0x40,0x19,0x97,0x48,0x48,0x00,0x97,0x54,0x48,0x81,0x57,0x87,0x54,0x40,0x00,
0x87,0x48,0x40,0x82,0x09,0x97,0x47,0x48,0x00,0x97,0x53,0x48,0x81,0x57,0x87,0x53,
0x40,0x00,0x87,0x47,0x40,0x19,0x97,0x4a,0x48,0x00,0x97,0x56,0x48,0x81,0x57,0x87,
0x56,0x40,0x00,0x87,0x4a,0x40,0x19,0x97,0x47,0x48,0x00,0x97,0x53,0x48,0x69,0x87,
0x53,0x40,0x00,0x87,0x47,0x40,0x0f,0x97,0x47,0x48,0x00,0x97,0x53,0x48,0x69,0x87,
0x53,0x40,0x00,0x87,0x47,0x40,0x81,0x07,0x97,0x47,0x48,0x00,0x97,0x53,0x48,0x69,
0x87,0x53,0x40,0x00,0x87,0x47,0x40,0x0f,0x97,0x47,0x48,0x00,0x97,0x53,0x48,0x81,
0x57,0x87,0x53,0x40,0x00,0x87,0x47,0x40,0x19,0x97,0x4a,0x48,0x00,0x97,0x56,0x48,
0x81,0x57,0x87,0x56,0x40,0x00,0x87,0x4a,0x40,0x19,0x97,0x47,0x48,0x00,0x97,0x53,
0x48,0x81,0x57,0x87,0x53,0x40,0x00,0x87,0x47,0x40,0x82,0x09,0x97,0x47,0x48,0x00,
0x97,0x53,0x48,0x81,0x57,0x87,0x53,0x40,0x00,0x87,0x47,0x40,0x19,0x97,0x4a,0x48,
0x00,0x97,0x56,0x48,0x81,0x57,0x87,0x56,0x40,0x00,0x87,0x4a,0x40,0x19,0x97,0x47,
0x48,0x00,0x97,0x53,0x48,0x69,0x87,0x53,0x40,0x00,0x87,0x47,0x40,0x0f,0x97,0x47,
0x48,0x00,0x97,0x53,0x48,0x69,0x87,0x53,0x40,0x00,0x87,0x47,0x40,0x81,0x07,0x97,
0x47,0x48,0x00,0x97,0x53,0x48,0x69,0x87,0x53,0x40,0x00,0x87,0x47,0x40,0x0f,0x97,
0x47,0x48,0x00,0x97,0x53,0x48,0x81,0x57,0x87,0x53,0x40,0x00,0x87,0x47,0x40,0x19,
0x97,0x4a,0x48,0x00,0x97,0x56,0x48,0x81,0x57,0x87,0x56,0x40,0x00,0x87,0x4a,0x40,
0x19,0x97,0x47,0x48,0x00,0x97,0x53,0x48,0x81,0x57,0x87,0x53,0x40,0x00,0x87,0x47,
0x40,0x82,0x09,0x97,0x48,0x48,0x00,0x97,0x54,0x48,0x81,0x57,0x87,0x54,0x40,0x00,
0x87,0x48,0x40,0x19,0x97,0x4b,0x48,0x00,0x97,0x57,0x48,0x81,0x57,0x87,0x57,0x40,
0x00,0x87,0x4b,0x40,0x19,0x97,0x48,0x48,0x00,0x97,0x54,0x48,0x69,0x87,0x54,0x40,
0x00,0x87,0x48,0x40,0x0f,0x97,0x48,0x48,0x00,0x97,0x54,0x48,0x69,0x87,0x54,0x40,
0x00,0x87,0x48,0x40,0x81,0x07,0x97,0x48,0x48,0x00,0x97,0x54,0x48,0x69,0x87,0x54,
0x40,0x00,0x87,0x48,0x40,0x0f,0x97,0x48,0x48,0x00,0x97,0x54,0x48,0x81,0x57,0x87,
0x54,0x40,0x00,0x87,0x48,0x40,0x19,0x97,0x4b,0x48,0x00,0x97,0x57,0x48,0x81,0x57,
0x87,0x57,0x40,0x00,0x87,0x4b,0x40,0x19,0x97,0x48,0x48,0x00,0x97,0x54,0x48,0x81,
0x57,0x87,0x54,0x40,0x00,0x87,0x48,0x40,0x82,0x09,0x97,0x54,0x48,0x00,0x97,0x48,
0x48,0x81,0x57,0x87,0x48,0x40,0x00,0x87,0x54,0x40,0x19,0x97,0x4b,0x48,0x00,0x97,
0x57,0x48,0x81,0x57,0x87,0x57,0x40,0x00,0x87,0x4b,0x40,0x19,0x97,0x48,0x48,0x00,
0x97,0x54,0x48,0x69,0x87,0x54,0x40,0x00,0x87,0x48,0x40,0x0f,0x97,0x48,0x48,0x00,
0x97,0x54,0x48,0x69,0x87,0x54,0x40,0x00,0x87,0x48,0x40,0x81,0x07,0x97,0x48,0x48,
0x00,0x97,0x54,0x48,0x69,0x87,0x54,0x40,0x00,0x87,0x48,0x40,0x0f,0x97,0x48,0x48,
0x00,0x97,0x54,0x48,0x81,0x57,0x87,0x54,0x40,0x00,0x87,0x48,0x40,0x19,0x97,0x4b,
0x48,0x00,0x97,0x57,0x48,0x81,0x57,0x87,0x57,0x40,0x00,0x87,0x4b,0x40,0x19,0x97,
0x48,0x48,0x00,0x97,0x54,0x48,0x81,0x57,0x87,0x54,0x40,0x00,0x87,0x48,0x40,0x82,
0x09,0x97,0x47,0x48,0x00,0x97,0x53,0x48,0x81,0x57,0x87,0x53,0x40,0x00,0x87,0x47,
0x40,0x19,0x97,0x4a,0x48,0x00,0x97,0x56,0x48,0x81,0x57,0x87,0x56,0x40,0x00,0x87,
0x4a,0x40,0x19,0x97,0x47,0x48,0x00,0x97,0x53,0x48,0x69,0x87,0x53,0x40,0x00,0x87,
0x47,0x40,0x0f,0x97,0x47,0x48,0x00,0x97,0x53,0x48,0x69,0x87,0x53,0x40,0x00,0x87,
0x47,0x40,0x81,0x07,0x97,0x47,0x48,0x00,0x97,0x53,0x48,0x69,0x87,0x53,0x40,0x00,
0x87,0x47,0x40,0x0f,0x97,0x47,0x48,0x00,0x97,0x53,0x48,0x81,0x57,0x87,0x53,0x40,
0x00,0x87,0x47,0x40,0x19,0x97,0x4a,0x48,0x00,0x97,0x56,0x48,0x81,0x57,0x87,0x56,
0x40,0x00,0x87,0x4a,0x40,0x19,0x97,0x47,0x48,0x00,0x97,0x53,0x48,0x81,0x57,0x87,
0x53,0x40,0x00,0x87,0x47,0x40,0x82,0x09,0x97,0x47,0x48,0x00,0x97,0x53,0x48,0x81,
0x57,0x87,0x53,0x40,0x00,0x87,0x47,0x40,0x19,0x97,0x4a,0x48,0x00,0x97,0x56,0x48,
0x81,0x57,0x87,0x56,0x40,0x00,0x87,0x4a,0x40,0x19,0x97,0x47,0x48,0x00,0x97,0x53,
0x48,0x69,0x87,0x53,0x40,0x00,0x87,0x47,0x40,0x0f,0x97,0x47,0x48,0x00,0x97,0x53,
0x48,0x69,0x87,0x53,0x40,0x00,0x87,0x47,0x40,0x81,0x07,0x97,0x47,0x48,0x00,0x97,
0x53,0x48,0x69,0x87,0x53,0x40,0x00,0x87,0x47,0x40,0x0f,0x97,0x47,0x48,0x00,0x97,
0x53,0x48,0x81,0x57,0x87,0x53,0x40,0x00,0x87,0x47,0x40,0x19,0x97,0x4a,0x48,0x00,
0x97,0x56,0x48,0x81,0x57,0x87,0x56,0x40,0x00,0x87,0x4a,0x40,0x19,0x97,0x47,0x48,
0x00,0x97,0x53,0x48,0x81,0x57,0x87,0x53,0x40,0x00,0x87,0x47,0x40,0x82,0x09,0x97,
0x48,0x48,0x00,0x97,0x54,0x48,0x81,0x57,0x87,0x54,0x40,0x00,0x87,0x48,0x40,0x19,
0x97,0x4b,0x48,0x00,0x97,0x57,0x48,0x81,0x57,0x87,0x57,0x40,0x00,0x87,0x4b,0x40,
0x19,0x97,0x48,0x48,0x00,0x97,0x54,0x48,0x69,0x87,0x54,0x40,0x00,0x87,0x48,0x40,
0x0f,0x97,0x48,0x48,0x00,0x97,0x54,0x48,0x69,0x87,0x54,0x40,0x00,0x87,0x48,0x40,
0x81,0x07,0x97,0x48,0x48,0x00,0x97,0x54,0x48,0x69,0x87,0x54,0x40,0x00,0x87,0x48,
0x40,0x0f,0x97,0x48,0x48,0x00,0x97,0x54,0x48,0x81,0x57,0x87,0x54,0x40,0x00,0x87,
0x48,0x40,0x19,0x97,0x4b,0x48,0x00,0x97,0x57,0x48,0x81,0x57,0x87,0x57,0x40,0x00,
0x87,0x4b,0x40,0x19,0x97,0x48,0x48,0x00,0x97,0x54,0x48,0x81,0x57,0x87,0x54,0x40,
0x00,0x87,0x48,0x40,0x82,0x09,0x97,0x54,0x48,0x00,0x97,0x48,0x48,0x81,0x57,0x87,
0x48,0x40,0x00,0x87,0x54,0x40,0x19,0x97,0x4b,0x48,0x00,0x97,0x57,0x48,0x81,0x57,
0x87,0x57,0x40,0x00,0x87,0x4b,0x40,0x19,0x97,0x48,0x48,0x00,0x97,0x54,0x48,0x69,
0x87,0x54,0x40,0x00,0x87,0x48,0x40,0x0f,0x97,0x48,0x48,0x00,0x97,0x54,0x48,0x69,
0x87,0x54,0x40,0x00,0x87,0x48,0x40,0x81,0x07,0x97,0x48,0x48,0x00,0x97,0x54,0x48,
0x69,0x87,0x54,0x40,0x00,0x87,0x48,0x40,0x0f,0x97,0x48,0x48,0x00,0x97,0x54,0x48,
0x81,0x57,0x87,0x54,0x40,0x00,0x87,0x48,0x40,0x19,0x97,0x4b,0x48,0x00,0x97,0x57,
0x48,0x81,0x57,0x87,0x57,0x40,0x00,0x87,0x4b,0x40,0x19,0x97,0x48,0x48,0x00,0x97,
0x54,0x48,0x81,0x57,0x87,0x54,0x40,0x00,0x87,0x48,0x40,0x82,0x09,0x97,0x47,0x48,
0x00,0x97,0x53,0x48,0x81,0x57,0x87,0x53,0x40,0x00,0x87,0x47,0x40,0x19,0x97,0x4a,
0x48,0x00,0x97,0x56,0x48,0x81,0x57,0x87,0x56,0x40,0x00,0x87,0x4a,0x40,0x19,0x97,
0x47,0x48,0x00,0x97,0x53,0x48,0x69,0x87,0x53,0x40,0x00,0x87,0x47,0x40,0x0f,0x97,
0x47,0x48,0x00,0x97,0x53,0x48,0x69,0x87,0x53,0x40,0x00,0x87,0x47,0x40,0x81,0x07,
0x97,0x47,0x48,0x00,0x97,0x53,0x48,0x69,0x87,0x53,0x40,0x00,0x87,0x47,0x40,0x0f,
0x97,0x47,0x48,0x00,0x97,0x53,0x48,0x81,0x57,0x87,0x53,0x40,0x00,0x87,0x47,0x40,
0x19,0x97,0x4a,0x48,0x00,0x97,0x56,0x48,0x81,0x57,0x87,0x56,0x40,0x00,0x87,0x4a,
0x40,0x19,0x97,0x47,0x48,0x00,0x97,0x53,0x48,0x81,0x57,0x87,0x53,0x40,0x00,0x87,
0x47,0x40,0x82,0x09,0x97,0x47,0x48,0x00,0x97,0x53,0x48,0x81,0x57,0x87,0x53,0x40,
0x00,0x87,0x47,0x40,0x19,0x97,0x4a,0x48,0x00,0x97,0x56,0x48,0x81,0x57,0x87,0x56,
0x40,0x00,0x87,0x4a,0x40,0x19,0x97,0x47,0x48,0x00,0x97,0x53,0x48,0x69,0x87,0x53,
0x40,0x00,0x87,0x47,0x40,0x0f,0x97,0x47,0x48,0x00,0x97,0x53,0x48,0x69,0x87,0x53,
0x40,0x00,0x87,0x47,0x40,0x81,0x07,0x97,0x47,0x48,0x00,0x97,0x53,0x48,0x69,0x87,
0x53,0x40,0x00,0x87,0x47,0x40,0x0f,0x97,0x47,0x48,0x00,0x97,0x53,0x48,0x81,0x57,
0x87,0x53,0x40,0x00,0x87,0x47,0x40,0x19,0x97,0x4a,0x48,0x00,0x97,0x56,0x48,0x81,
0x57,0x87,0x56,0x40,0x00,0x87,0x4a,0x40,0x19,0x97,0x47,0x48,0x00,0x97,0x53,0x48,
0x81,0x57,0x87,0x53,0x40,0x00,0x87,0x47,0x40,0x82,0x09,0x97,0x48,0x48,0x00,0x97,
0x54,0x48,0x81,0x57,0x87,0x54,0x40,0x00,0x87,0x48,0x40,0x19,0x97,0x4b,0x48,0x00,
0x97,0x57,0x48,0x81,0x57,0x87,0x57,0x40,0x00,0x87,0x4b,0x40,0x19,0x97,0x48,0x48,
0x00,0x97,0x54,0x48,0x69,0x87,0x54,0x40,0x00,0x87,0x48,0x40,0x0f,0x97,0x48,0x48,
0x00,0x97,0x54,0x48,0x69,0x87,0x54,0x40,0x00,0x87,0x48,0x40,0x81,0x07,0x97,0x48,
0x48,0x00,0x97,0x54,0x48,0x69,0x87,0x54,0x40,0x00,0x87,0x48,0x40,0x0f,0x97,0x48,
0x48,0x00,0x97,0x54,0x48,0x81,0x57,0x87,0x54,0x40,0x00,0x87,0x48,0x40,0x19,0x97,
0x4b,0x48,0x00,0x97,0x57,0x48,0x81,0x57,0x87,0x57,0x40,0x00,0x87,0x4b,0x40,0x19,
0x97,0x48,0x48,0x00,0x97,0x54,0x48,0x81,0x57,0x87,0x54,0x40,0x00,0x87,0x48,0x40,
0x19,0x97,0x5b,0x48,0x86,0x5c,0x87,0x5b,0x40,0x64,0x97,0x5b,0x48,0x81,0x57,0x87,
0x5b,0x40,0x19,0x97,0x59,0x48,0x81,0x57,0x87,0x59,0x40,0x19,0x97,0x57,0x48,0x81,
0x57,0x87,0x57,0x40,0x19,0x97,0x56,0x48,0x81,0x57,0x87,0x56,0x40,0x19,0x97,0x54,
0x48,0x00,0x97,0x5b,0x48,0x83,0x2e,0x87,0x5b,0x40,0x00,0x87,0x54,0x40,0x32,0x97,
0x54,0x48,0x00,0x97,0x59,0x48,0x83,0x2e,0x87,0x59,0x40,0x00,0x87,0x54,0x40,0x82,
0x22,0x97,0x4d,0x48,0x00,0x97,0x50,0x48,0x81,0x57,0x87,0x50,0x40,0x00,0x87,0x4d,
0x40,0x19,0x97,0x4b,0x48,0x00,0x97,0x4f,0x48,0x81,0x57,0x87,0x4f,0x40,0x00,0x87,
0x4b,0x40,0x19,0x97,0x4a,0x48,0x00,0x97,0x4d,0x48,0x81,0x57,0x87,0x4d,0x40,0x00,
0x87,0x4a,0x40,0x19,0x97,0x4b,0x48,0x00,0x97,0x4f,0x48,0x83,0x2e,0x87,0x4f,0x40,
0x00,0x87,0x4b,0x40,0x32,0x97,0x4a,0x48,0x00,0x97,0x4d,0x48,0x83,0x2e,0x87,0x4d,
0x40,0x00,0x87,0x4a,0x40,0x32,0x97,0x48,0x48,0x00,0x97,0x4b,0x48,0x81,0x57,0x87,
0x4b,0x40,0x00,0x87,0x48,0x40,0x19,0x97,0x47,0x48,0x00,0x97,0x4a,0x48,0x83,0x2e,
0x87,0x4a,0x40,0x00,0x87,0x47,0x40,0x32,0x97,0x3f,0x48,0x00,0x97,0x43,0x48,0x00,
0x97,0x48,0x48,0x8f,0x14,0x87,0x48,0x40,0x00,0x87,0x43,0x40,0x00,0x87,0x3f,0x40,
0x00,0xff,0x2f,0x00,0x4d,0x54,0x72,0x6b,0x00,0x00,0x07,0x5c,0x00,0xff,0x03,0x0a,
0x53,0x79,0x6e,0x74,0x68,0x20,0x45,0x63,0x68,0x6f,0x00,0xff,0x21,0x01,0x00,0x00,
0xff,0x20,0x01,0x08,0x00,0xb8,0x07,0x59,0x00,0xb8,0x0a,0x40,0x00,0xc8,0x50,0x82,
0x83,0x7c,0x98,0x48,0x48,0x00,0x98,0x54,0x48,0x81,0x57,0x88,0x54,0x40,0x00,0x88,
0x48,0x40,0x19,0x98,0x4b,0x48,0x00,0x98,0x57,0x48,0x81,0x57,0x88,0x57,0x40,0x00,
0x88,0x4b,0x40,0x19,0x98,0x48,0x48,0x00,0x98,0x54,0x48,0x69,0x88,0x54,0x40,0x00,
0x88,0x48,0x40,0x0f,0x98,0x48,0x48,0x00,0x98,0x54,0x48,0x69,0x88,0x54,0x40,0x00,
0x88,0x48,0x40,0x81,0x07,0x98,0x48,0x48,0x00,0x98,0x54,0x48,0x69,0x88,0x54,0x40,
0x00,0x88,0x48,0x40,0x0f,0x98,0x48,0x48,0x00,0x98,0x54,0x48,0x81,0x57,0x88,0x54,
0x40,0x00,0x88,0x48,0x40,0x19,0x98,0x4b,0x48,0x00,0x98,0x57,0x48,0x81,0x57,0x88,
0x57,0x40,0x00,0x88,0x4b,0x40,0x19,0x98,0x48,0x48,0x00,0x98,0x54,0x48,0x81,0x57,
0x88,0x54,0x40,0x00,0x88,0x48,0x40,0x82,0x09,0x98,0x47,0x48,0x00,0x98,0x53,0x48,
0x81,0x57,0x88,0x53,0x40,0x00,0x88,0x47,0x40,0x19,0x98,0x4a,0x48,0x00,0x98,0x56,
0x48,0x81,0x57,0x88,0x56,0x40,0x00,0x88,0x4a,0x40,0x19,0x98,0x47,0x48,0x00,0x98,
0x53,0x48,0x69,0x88,0x53,0x40,0x00,0x88,0x47,0x40,0x0f,0x98,0x47,0x48,0x00,0x98,
0x53,0x48,0x69,0x88,0x53,0x40,0x00,0x88,0x47,0x40,0x81,0x07,0x98,0x47,0x48,0x00,
0x98,0x53,0x48,0x69,0x88,0x53,0x40,0x00,0x88,0x47,0x40,0x0f,0x98,0x47,0x48,0x00,
0x98,0x53,0x48,0x81,0x57,0x88,0x53,0x40,0x00,0x88,0x47,0x40,0x19,0x98,0x4a,0x48,
0x00,0x98,0x56,0x48,0x81,0x57,0x88,0x56,0x40,0x00,0x88,0x4a,0x40,0x19,0x98,0x47,
0x48,0x00,0x98,0x53,0x48,0x81,0x57,0x88,0x53,0x40,0x00,0x88,0x47,0x40,0x82,0x09,
0x98,0x47,0x48,0x00,0x98,0x53,0x48,0x81,0x57,0x88,0x53,0x40,0x00,0x88,0x47,0x40,
0x19,0x98,0x4a,0x48,0x00,0x98,0x56,0x48,0x81,0x57,0x88,0x56,0x40,0x00,0x88,0x4a,
0x40,0x19,0x98,0x47,0x48,0x00,0x98,0x53,0x48,0x69,0x88,0x53,0x40,0x00,0x88,0x47,
0x40,0x0f,0x98,0x47,0x48,0x00,0x98,0x53,0x48,0x69,0x88,0x53,0x40,0x00,0x88,0x47,
0x40,0x81,0x07,0x98,0x47,0x48,0x00,0x98,0x53,0x48,0x69,0x88,0x53,0x40,0x00,0x88,
0x47,0x40,0x0f,0x98,0x47,0x48,0x00,0x98,0x53,0x48,0x81,0x57,0x88,0x53,0x40,0x00,
0x88,0x47,0x40,0x19,0x98,0x4a,0x48,0x00,0x98,0x56,0x48,0x81,0x57,0x88,0x56,0x40,
0x00,0x88,0x4a,0x40,0x19,0x98,0x47,0x48,0x00,0x98,0x53,0x48,0x81,0x57,0x88,0x53,
0x40,0x00,0x88,0x47,0x40,0x82,0x09,0x98,0x48,0x48,0x00,0x98,0x54,0x48,0x81,0x57,
0x88,0x54,0x40,0x00,0x88,0x48,0x40,0x19,0x98,0x4b,0x48,0x00,0x98,0x57,0x48,0x81,
0x57,0x88,0x57,0x40,0x00,0x88,0x4b,0x40,0x19,0x98,0x48,0x48,0x00,0x98,0x54,0x48,
0x69,0x88,0x54,0x40,0x00,0x88,0x48,0x40,0x0f,0x98,0x48,0x48,0x00,0x98,0x54,0x48,
0x69,0x88,0x54,0x40,0x00,0x88,0x48,0x40,0x81,0x07,0x98,0x48,0x48,0x00,0x98,0x54,
0x48,0x69,0x88,0x54,0x40,0x00,0x88,0x48,0x40,0x0f,0x98,0x48,0x48,0x00,0x98,0x54,
0x48,0x81,0x57,0x88,0x54,0x40,0x00,0x88,0x48,0x40,0x19,0x98,0x4b,0x48,0x00,0x98,
0x57,0x48,0x81,0x57,0x88,0x57,0x40,0x00,0x88,0x4b,0x40,0x19,0x98,0x48,0x48,0x00,
0x98,0x54,0x48,0x81,0x57,0x88,0x54,0x40,0x00,0x88,0x48,0x40,0x82,0x09,0x98,0x54,
0x48,0x00,0x98,0x48,0x48,0x81,0x57,0x88,0x48,0x40,0x00,0x88,0x54,0x40,0x19,0x98,
0x4b,0x48,0x00,0x98,0x57,0x48,0x81,0x57,0x88,0x57,0x40,0x00,0x88,0x4b,0x40,0x19,
0x98,0x48,0x48,0x00,0x98,0x54,0x48,0x69,0x88,0x54,0x40,0x00,0x88,0x48,0x40,0x0f,
0x98,0x48,0x48,0x00,0x98,0x54,0x48,0x69,0x88,0x54,0x40,0x00,0x88,0x48,0x40,0x81,
0x07,0x98,0x48,0x48,0x00,0x98,0x54,0x48,0x69,0x88,0x54,0x40,0x00,0x88,0x48,0x40,
0x0f,0x98,0x48,0x48,0x00,0x98,0x54,0x48,0x81,0x57,0x88,0x54,0x40,0x00,0x88,0x48,
0x40,0x19,0x98,0x4b,0x48,0x00,0x98,0x57,0x48,0x81,0x57,0x88,0x57,0x40,0x00,0x88,
0x4b,0x40,0x19,0x98,0x48,0x48,0x00,0x98,0x54,0x48,0x81,0x57,0x88,0x54,0x40,0x00,
0x88,0x48,0x40,0x82,0x09,0x98,0x47,0x48,0x00,0x98,0x53,0x48,0x81,0x57,0x88,0x53,
0x40,0x00,0x88,0x47,0x40,0x19,0x98,0x4a,0x48,0x00,0x98,0x56,0x48,0x81,0x57,0x88,
0x56,0x40,0x00,0x88,0x4a,0x40,0x19,0x98,0x47,0x48,0x00,0x98,0x53,0x48,0x69,0x88,
0x53,0x40,0x00,0x88,0x47,0x40,0x0f,0x98,0x47,0x48,0x00,0x98,0x53,0x48,0x69,0x88,
0x53,0x40,0x00,0x88,0x47,0x40,0x81,0x07,0x98,0x47,0x48,0x00,0x98,0x53,0x48,0x69,
0x88,0x53,0x40,0x00,0x88,0x47,0x40,0x0f,0x98,0x47,0x48,0x00,0x98,0x53,0x48,0x81,
0x57,0x88,0x53,0x40,0x00,0x88,0x47,0x40,0x19,0x98,0x4a,0x48,0x00,0x98,0x56,0x48,
0x81,0x57,0x88,0x56,0x40,0x00,0x88,0x4a,0x40,0x19,0x98,0x47,0x48,0x00,0x98,0x53,
0x48,0x81,0x57,0x88,0x53,0x40,0x00,0x88,0x47,0x40,0x82,0x09,0x98,0x47,0x48,0x00,
0x98,0x53,0x48,0x81,0x57,0x88,0x53,0x40,0x00,0x88,0x47,0x40,0x19,0x98,0x4a,0x48,
0x00,0x98,0x56,0x48,0x81,0x57,0x88,0x56,0x40,0x00,0x88,0x4a,0x40,0x19,0x98,0x47,
0x48,0x00,0x98,0x53,0x48,0x69,0x88,0x53,0x40,0x00,0x88,0x47,0x40,0x0f,0x98,0x47,
0x48,0x00,0x98,0x53,0x48,0x69,0x88,0x53,0x40,0x00,0x88,0x47,0x40,0x81,0x07,0x98,
0x47,0x48,0x00,0x98,0x53,0x48,0x69,0x88,0x53,0x40,0x00,0x88,0x47,0x40,0x0f,0x98,
0x47,0x48,0x00,0x98,0x53,0x48,0x81,0x57,0x88,0x53,0x40,0x00,0x88,0x47,0x40,0x19,
0x98,0x4a,0x48,0x00,0x98,0x56,0x48,0x81,0x57,0x88,0x56,0x40,0x00,0x88,0x4a,0x40,
0x19,0x98,0x47,0x48,0x00,0x98,0x53,0x48,0x81,0x57,0x88,0x53,0x40,0x00,0x88,0x47,
0x40,0x82,0x09,0x98,0x48,0x48,0x00,0x98,0x54,0x48,0x81,0x57,0x88,0x54,0x40,0x00,
0x88,0x48,0x40,0x19,0x98,0x4b,0x48,0x00,0x98,0x57,0x48,0x81,0x57,0x88,0x57,0x40,
0x00,0x88,0x4b,0x40,0x19,0x98,0x48,0x48,0x00,0x98,0x54,0x48,0x69,0x88,0x54,0x40,
0x00,0x88,0x48,0x40,0x0f,0x98,0x48,0x48,0x00,0x98,0x54,0x48,0x69,0x88,0x54,0x40,
0x00,0x88,0x48,0x40,0x81,0x07,0x98,0x48,0x48,0x00,0x98,0x54,0x48,0x69,0x88,0x54,
0x40,0x00,0x88,0x48,0x40,0x0f,0x98,0x48,0x48,0x00,0x98,0x54,0x48,0x81,0x57,0x88,
0x54,0x40,0x00,0x88,0x48,0x40,0x19,0x98,0x4b,0x48,0x00,0x98,0x57,0x48,0x81,0x57,
0x88,0x57,0x40,0x00,0x88,0x4b,0x40,0x19,0x98,0x48,0x48,0x00,0x98,0x54,0x48,0x81,
0x57,0x88,0x54,0x40,0x00,0x88,0x48,0x40,0x82,0x09,0x98,0x54,0x48,0x00,0x98,0x48,
0x48,0x81,0x57,0x88,0x48,0x40,0x00,0x88,0x54,0x40,0x19,0x98,0x4b,0x48,0x00,0x98,
0x57,0x48,0x81,0x57,0x88,0x57,0x40,0x00,0x88,0x4b,0x40,0x19,0x98,0x48,0x48,0x00,
0x98,0x54,0x48,0x69,0x88,0x54,0x40,0x00,0x88,0x48,0x40,0x0f,0x98,0x48,0x48,0x00,
0x98,0x54,0x48,0x69,0x88,0x54,0x40,0x00,0x88,0x48,0x40,0x81,0x07,0x98,0x48,0x48,
0x00,0x98,0x54,0x48,0x69,0x88,0x54,0x40,0x00,0x88,0x48,0x40,0x0f,0x98,0x48,0x48,
0x00,0x98,0x54,0x48,0x81,0x57,0x88,0x54,0x40,0x00,0x88,0x48,0x40,0x19,0x98,0x4b,
0x48,0x00,0x98,0x57,0x48,0x81,0x57,0x88,0x57,0x40,0x00,0x88,0x4b,0x40,0x19,0x98,
0x48,0x48,0x00,0x98,0x54,0x48,0x81,0x57,0x88,0x54,0x40,0x00,0x88,0x48,0x40,0x82,
0x09,0x98,0x47,0x48,0x00,0x98,0x53,0x48,0x81,0x57,0x88,0x53,0x40,0x00,0x88,0x47,
0x40,0x19,0x98,0x4a,0x48,0x00,0x98,0x56,0x48,0x81,0x57,0x88,0x56,0x40,0x00,0x88,
0x4a,0x40,0x19,0x98,0x47,0x48,0x00,0x98,0x53,0x48,0x69,0x88,0x53,0x40,0x00,0x88,
0x47,0x40,0x0f,0x98,0x47,0x48,0x00,0x98,0x53,0x48,0x69,0x88,0x53,0x40,0x00,0x88,
0x47,0x40,0x81,0x07,0x98,0x47,0x48,0x00,0x98,0x53,0x48,0x69,0x88,0x53,0x40,0x00,
0x88,0x47,0x40,0x0f,0x98,0x47,0x48,0x00,0x98,0x53,0x48,0x81,0x57,0x88,0x53,0x40,
0x00,0x88,0x47,0x40,0x19,0x98,0x4a,0x48,0x00,0x98,0x56,0x48,0x81,0x57,0x88,0x56,
0x40,0x00,0x88,0x4a,0x40,0x19,0x98,0x47,0x48,0x00,0x98,0x53,0x48,0x81,0x57,0x88,
0x53,0x40,0x00,0x88,0x47,0x40,0x82,0x09,0x98,0x47,0x48,0x00,0x98,0x53,0x48,0x81,
0x57,0x88,0x53,0x40,0x00,0x88,0x47,0x40,0x19,0x98,0x4a,0x48,0x00,0x98,0x56,0x48,
0x81,0x57,0x88,0x56,0x40,0x00,0x88,0x4a,0x40,0x19,0x98,0x47,0x48,0x00,0x98,0x53,
0x48,0x69,0x88,0x53,0x40,0x00,0x88,0x47,0x40,0x0f,0x98,0x47,0x48,0x00,0x98,0x53,
0x48,0x69,0x88,0x53,0x40,0x00,0x88,0x47,0x40,0x81,0x07,0x98,0x47,0x48,0x00,0x98,
0x53,0x48,0x69,0x88,0x53,0x40,0x00,0x88,0x47,0x40,0x0f,0x98,0x47,0x48,0x00,0x98,
0x53,0x48,0x81,0x57,0x88,0x53,0x40,0x00,0x88,0x47,0x40,0x19,0x98,0x4a,0x48,0x00,
0x98,0x56,0x48,0x81,0x57,0x88,0x56,0x40,0x00,0x88,0x4a,0x40,0x19,0x98,0x47,0x48,
0x00,0x98,0x53,0x48,0x81,0x57,0x88,0x53,0x40,0x00,0x88,0x47,0x40,0x82,0x09,0x98,
0x48,0x48,0x00,0x98,0x54,0x48,0x81,0x57,0x88,0x54,0x40,0x00,0x88,0x48,0x40,0x19,
0x98,0x4b,0x48,0x00,0x98,0x57,0x48,0x81,0x57,0x88,0x57,0x40,0x00,0x88,0x4b,0x40,
0x19,0x98,0x48,0x48,0x00,0x98,0x54,0x48,0x69,0x88,0x54,0x40,0x00,0x88,0x48,0x40,
0x0f,0x98,0x48,0x48,0x00,0x98,0x54,0x48,0x69,0x88,0x54,0x40,0x00,0x88,0x48,0x40,
0x81,0x07,0x98,0x48,0x48,0x00,0x98,0x54,0x48,0x69,0x88,0x54,0x40,0x00,0x88,0x48,
0x40,0x0f,0x98,0x48,0x48,0x00,0x98,0x54,0x48,0x81,0x57,0x88,0x54,0x40,0x00,0x88,
0x48,0x40,0x19,0x98,0x4b,0x48,0x00,0x98,0x57,0x48,0x81,0x57,0x88,0x57,0x40,0x00,
0x88,0x4b,0x40,0x19,0x98,0x48,0x48,0x00,0x98,0x54,0x48,0x81,0x57,0x88,0x54,0x40,
0x00,0x88,0x48,0x40,0x19,0x98,0x5b,0x48,0x86,0x5c,0x88,0x5b,0x40,0x64,0x98,0x5b,
0x48,0x81,0x57,0x88,0x5b,0x40,0x19,0x98,0x59,0x48,0x81,0x57,0x88,0x59,0x40,0x19,
0x98,0x57,0x48,0x81,0x57,0x88,0x57,0x40,0x19,0x98,0x56,0x48,0x81,0x57,0x88,0x56,
0x40,0x19,0x98,0x54,0x48,0x00,0x98,0x5b,0x48,0x83,0x2e,0x88,0x5b,0x40,0x00,0x88,
0x54,0x40,0x32,0x98,0x54,0x48,0x00,0x98,0x59,0x48,0x83,0x2e,0x88,0x59,0x40,0x00,
0x88,0x54,0x40,0x82,0x22,0x98,0x4d,0x48,0x00,0x98,0x50,0x48,0x81,0x57,0x88,0x50,
0x40,0x00,0x88,0x4d,0x40,0x19,0x98,0x4b,0x48,0x00,0x98,0x4f,0x48,0x81,0x57,0x88,
0x4f,0x40,0x00,0x88,0x4b,0x40,0x19,0x98,0x4a,0x48,0x00,0x98,0x4d,0x48,0x81,0x57,
0x88,0x4d,0x40,0x00,0x88,0x4a,0x40,0x19,0x98,0x4b,0x48,0x00,0x98,0x4f,0x48,0x83,
0x2e,0x88,0x4f,0x40,0x00,0x88,0x4b,0x40,0x32,0x98,0x4a,0x48,0x00,0x98,0x4d,0x48,
0x83,0x2e,0x88,0x4d,0x40,0x00,0x88,0x4a,0x40,0x32,0x98,0x48,0x48,0x00,0x98,0x4b,
0x48,0x81,0x57,0x88,0x4b,0x40,0x00,0x88,0x48,0x40,0x19,0x98,0x47,0x48,0x00,0x98,
0x4a,0x48,0x83,0x2e,0x88,0x4a,0x40,0x00,0x88,0x47,0x40,0x32,0x98,0x3f,0x48,0x00,
0x98,0x43,0x48,0x00,0x98,0x48,0x48,0x8f,0x14,0x88,0x48,0x40,0x00,0x88,0x43,0x40,
0x00,0x88,0x3f,0x40,0x00,0xff,0x2f,0x00,0x4d,0x54,0x72,0x6b,0x00,0x00,0x2a,0xf8,
0x00,0xff,0x03,0x0a,0x44,0x72,0x75,0x6d,0x20,0x54,0x72,0x61,0x63,0x6b,0x00,0xff,
0x21,0x01,0x00,0x00,0xff,0x20,0x01,0x09,0x00,0xb9,0x07,0x72,0x00,0xb9,0x0a,0x40,
0x00,0xc9,0x00,0x00,0x99,0x28,0x7f,0x00,0x99,0x2a,0x7f,0x00,0x99,0x31,0x7f,0x00,
0x99,0x29,0x7f,0x00,0x99,0x23,0x7f,0x00,0x99,0x21,0x7f,0x00,0x99,0x24,0x7f,0x29,
0x99,0x22,0x7f,0x4f,0x89,0x24,0x7f,0x00,0x89,0x21,0x7f,0x00,0x89,0x23,0x7f,0x00,
0x89,0x2a,0x7f,0x00,0x89,0x28,0x7f,0x29,0x89,0x22,0x7f,0x44,0x89,0x31,0x7f,0x00,
0x89,0x29,0x7f,0x0b,0x99,0x2a,0x7f,0x7d,0x89,0x2a,0x7f,0x73,0x99,0x2a,0x7f,0x00,
0x99,0x23,0x7f,0x00,0x99,0x21,0x7f,0x00,0x99,0x24,0x7f,0x78,0x99,0x2a,0x7f,0x00,
0x99,0x23,0x7f,0x00,0x99,0x21,0x7f,0x00,0x99,0x24,0x7f,0x05,0x89,0x24,0x7f,0x00,
0x89,0x21,0x7f,0x00,0x89,0x23,0x7f,0x00,0x89,0x2a,0x7f,0x73,0x99,0x2a,0x7f,0x00,
0x99,0x23,0x7f,0x00,0x99,0x21,0x7f,0x00,0x99,0x24,0x7f,0x05,0x89,0x23,0x7f,0x00,
0x89,0x2a,0x7f,0x00,0x89,0x21,0x7f,0x00,0x89,0x24,0x7f,0x78,0x89,0x23,0x7f,0x00,
0x89,0x2a,0x7f,0x00,0x89,0x21,0x7f,0x00,0x89,0x24,0x7f,0x73,0x99,0x22,0x7f,0x00,
0x99,0x2a,0x7f,0x00,0x99,0x28,0x7f,0x00,0x99,0x29,0x7f,0x00,0x99,0x23,0x7f,0x00,
0x99,0x21,0x7f,0x00,0x99,0x24,0x7f,0x78,0x89,0x24,0x7f,0x00,0x89,0x21,0x7f,0x00,
0x89,0x23,0x7f,0x00,0x89,0x29,0x7f,0x00,0x89,0x28,0x7f,0x00,0x89,0x2a,0x7f,0x05,
0x89,0x22,0x7f,0x73,0x99,0x2a,0x7f,0x00,0x99,0x29,0x7f,0x00,0x99,0x32,0x7f,0x00,
0x99,0x23,0x7f,0x00,0x99,0x21,0x7f,0x00,0x99,0x24,0x7f,0x78,0x99,0x32,0x7f,0x05,
0x89,0x24,0x7f,0x00,0x89,0x21,0x7f,0x00,0x89,0x23,0x7f,0x00,0x89,0x32,0x7f,0x00,
0x89,0x29,0x7f,0x00,0x89,0x2a,0x7f,0x73,0x99,0x22,0x7f,0x00,0x99,0x28,0x7f,0x00,
0x99,0x2a,0x7f,0x00,0x99,0x29,0x7f,0x00,0x99,0x32,0x7f,0x00,0x99,0x23,0x7f,0x00,
0x99,0x21,0x7f,0x00,0x99,0x24,0x7f,0x06,0x89,0x32,0x7f,0x72,0x89,0x28,0x7f,0x00,
0x89,0x2a,0x7f,0x00,0x89,0x29,0x7f,0x00,0x89,0x32,0x7f,0x00,0x89,0x23,0x7f,0x00,
0x89,0x21,0x7f,0x00,0x89,0x24,0x7f,0x00,0x99,0x28,0x7f,0x00,0x99,0x2a,0x7f,0x00,
0x99,0x30,0x7f,0x00,0x99,0x23,0x7f,0x00,0x99,0x21,0x7f,0x00,0x99,0x24,0x7f,0x06,
0x89,0x22,0x7f,0x72,0x99,0x28,0x7f,0x00,0x99,0x2a,0x7f,0x00,0x99,0x2f,0x7f,0x00,
0x99,0x23,0x7f,0x00,0x99,0x21,0x7f,0x00,0x99,0x24,0x7f,0x05,0x89,0x28,0x7f,0x00,
0x89,0x2a,0x7f,0x00,0x89,0x30,0x7f,0x00,0x89,0x23,0x7f,0x00,0x89,0x21,0x7f,0x00,
0x89,0x24,0x7f,0x78,0x89,0x28,0x7f,0x00,0x89,0x2a,0x7f,0x00,0x89,0x2f,0x7f,0x00,
0x89,0x23,0x7f,0x00,0x89,0x21,0x7f,0x00,0x89,0x24,0x7f,0x73,0x99,0x2a,0x7f,0x00,
0x99,0x23,0x7f,0x00,0x99,0x21,0x7f,0x00,0x99,0x24,0x7f,0x00,0x99,0x31,0x7f,0x78,
0x89,0x24,0x7f,0x00,0x89,0x21,0x7f,0x00,0x89,0x23,0x7f,0x00,0x89,0x2a,0x7f,0x78,
0x99,0x2a,0x7f,0x72,0x89,0x31,0x7f,0x0b,0x89,0x2a,0x7f,0x73,0x99,0x2a,0x7f,0x00,
0x99,0x23,0x7f,0x00,0x99,0x21,0x7f,0x00,0x99,0x24,0x7f,0x78,0x89,0x24,0x7f,0x00,
0x89,0x21,0x7f,0x00,0x89,0x23,0x7f,0x00,0x89,0x2a,0x7f,0x78,0x99,0x2a,0x7f,0x7d,
0x89,0x2a,0x7f,0x73,0x99,0x2a,0x7f,0x00,0x99,0x23,0x7f,0x00,0x99,0x21,0x7f,0x00,
0x99,0x24,0x7f,0x7d,0x89,0x24,0x7f,0x00,0x89,0x21,0x7f,0x00,0x89,0x23,0x7f,0x00,
0x89,0x2a,0x7f,0x73,0x99,0x2a,0x7f,0x00,0x99,0x23,0x7f,0x00,0x99,0x21,0x7f,0x00,
0x99,0x24,0x7f,0x7d,0x89,0x24,0x7f,0x00,0x89,0x21,0x7f,0x00,0x89,0x23,0x7f,0x00,
0x89,0x2a,0x7f,0x73,0x99,0x2a,0x7f,0x00,0x99,0x23,0x7f,0x00,0x99,0x21,0x7f,0x00,
0x99,0x24,0x7f,0x78,0x89,0x24,0x7f,0x00,0x89,0x21,0x7f,0x00,0x89,0x23,0x7f,0x00,
0x89,0x2a,0x7f,0x78,0x99,0x2a,0x7f,0x7d,0x89,0x2a,0x7f,0x73,0x99,0x2a,0x7f,0x00,
0x99,0x23,0x7f,0x00,0x99,0x21,0x7f,0x00,0x99,0x24,0x7f,0x78,0x89,0x24,0x7f,0x00,
0x89,0x21,0x7f,0x00,0x89,0x23,0x7f,0x00,0x89,0x2a,0x7f,0x78,0x99,0x2a,0x7f,0x7d,
0x89,0x2a,0x7f,0x73,0x99,0x2a,0x7f,0x00,0x99,0x23,0x7f,0x00,0x99,0x21,0x7f,0x00,
0x99,0x24,0x7f,0x78,0x89,0x24,0x7f,0x00,0x89,0x21,0x7f,0x00,0x89,0x23,0x7f,0x00,
0x89,0x2a,0x7f,0x78,0x99,0x2a,0x7f,0x7d,0x89,0x2a,0x7f,0x73,0x99,0x2a,0x7f,0x00,
0x99,0x23,0x7f,0x00,0x99,0x21,0x7f,0x00,0x99,0x24,0x7f,0x7d,0x89,0x24,0x7f,0x00,
0x89,0x21,0x7f,0x00,0x89,0x23,0x7f,0x00,0x89,0x2a,0x7f,0x73,0x99,0x2a,0x7f,0x00,
0x99,0x23,0x7f,0x00,0x99,0x21,0x7f,0x00,0x99,0x24,0x7f,0x7d,0x89,0x24,0x7f,0x00,
0x89,0x21,0x7f,0x00,0x89,0x23,0x7f,0x00,0x89,0x2a,0x7f,0x73,0x99,0x2a,0x7f,0x00,
0x99,0x23,0x7f,0x00,0x99,0x21,0x7f,0x00,0x99,0x24,0x7f,0x78,0x89,0x24,0x7f,0x00,
0x89,0x21,0x7f,0x00,0x89,0x23,0x7f,0x00,0x89,0x2a,0x7f,0x78,0x99,0x2a,0x7f,0x7d,
0x89,0x2a,0x7f,0x73,0x99,0x2a,0x7f,0x00,0x99,0x23,0x7f,0x00,0x99,0x21,0x7f,0x00,
0x99,0x24,0x7f,0x78,0x89,0x24,0x7f,0x00,0x89,0x21,0x7f,0x00,0x89,0x23,0x7f,0x00,
0x89,0x2a,0x7f,0x78,0x99,0x2a,0x7f,0x7d,0x89,0x2a,0x7f,0x73,0x99,0x2a,0x7f,0x00,
0x99,0x23,0x7f,0x00,0x99,0x21,0x7f,0x00,0x99,0x24,0x7f,0x78,0x89,0x24,0x7f,0x00,
0x89,0x21,0x7f,0x00,0x89,0x23,0x7f,0x00,0x89,0x2a,0x7f,0x78,0x99,0x2a,0x7f,0x7d,
0x89,0x2a,0x7f,0x73,0x99,0x2a,0x7f,0x00,0x99,0x23,0x7f,0x00,0x99,0x21,0x7f,0x00,
0x99,0x24,0x7f,0x7d,0x89,0x24,0x7f,0x00,0x89,0x21,0x7f,0x00,0x89,0x23,0x7f,0x00,
0x89,0x2a,0x7f,0x73,0x99,0x2a,0x7f,0x00,0x99,0x23,0x7f,0x00,0x99,0x21,0x7f,0x00,
0x99,0x24,0x7f,0x7d,0x89,0x24,0x7f,0x00,0x89,0x21,0x7f,0x00,0x89,0x23,0x7f,0x00,
0x89,0x2a,0x7f,0x73,0x99,0x2a,0x7f,0x00,0x99,0x23,0x7f,0x00,0x99,0x21,0x7f,0x00,
0x99,0x24,0x7f,0x78,0x89,0x24,0x7f,0x00,0x89,0x21,0x7f,0x00,0x89,0x23,0x7f,0x00,
0x89,0x2a,0x7f,0x78,0x99,0x2a,0x7f,0x7d,0x89,0x2a,0x7f,0x73,0x99,0x2a,0x7f,0x00,
0x99,0x23,0x7f,0x00,0x99,0x21,0x7f,0x00,0x99,0x24,0x7f,0x78,0x89,0x24,0x7f,0x00,
0x89,0x21,0x7f,0x00,0x89,0x23,0x7f,0x00,0x89,0x2a,0x7f,0x78,0x99,0x2a,0x7f,0x7d,
0x89,0x2a,0x7f,0x73,0x99,0x2a,0x7f,0x00,0x99,0x23,0x7f,0x00,0x99,0x21,0x7f,0x00,
0x99,0x24,0x7f,0x78,0x89,0x24,0x7f,0x00,0x89,0x21,0x7f,0x00,0x89,0x23,0x7f,0x00,
0x89,0x2a,0x7f,0x78,0x99,0x2a,0x7f,0x7d,0x89,0x2a,0x7f,0x73,0x99,0x2a,0x7f,0x00,
0x99,0x23,0x7f,0x00,0x99,0x21,0x7f,0x00,0x99,0x24,0x7f,0x7d,0x89,0x24,0x7f,0x00,
0x89,0x21,0x7f,0x00,0x89,0x23,0x7f,0x00,0x89,0x2a,0x7f,0x73,0x99,0x2a,0x7f,0x00,
0x99,0x28,0x7f,0x00,0x99,0x30,0x7f,0x00,0x99,0x23,0x7f,0x00,0x99,0x21,0x7f,0x00,
0x99,0x24,0x7f,0x78,0x99,0x2f,0x7f,0x05,0x89,0x24,0x7f,0x00,0x89,0x21,0x7f,0x00,
0x89,0x23,0x7f,0x00,0x89,0x30,0x7f,0x00,0x89,0x28,0x7f,0x00,0x89,0x2a,0x7f,0x73,
0x99,0x2a,0x7f,0x00,0x99,0x28,0x7f,0x00,0x99,0x2d,0x7f,0x00,0x99,0x23,0x7f,0x00,
0x99,0x21,0x7f,0x00,0x99,0x24,0x7f,0x06,0x89,0x2f,0x7f,0x72,0x89,0x2a,0x7f,0x00,
0x89,0x28,0x7f,0x00,0x89,0x23,0x7f,0x00,0x89,0x21,0x7f,0x00,0x89,0x24,0x7f,0x00,
0x99,0x28,0x7f,0x00,0x99,0x2b,0x7f,0x05,0x89,0x2d,0x7f,0x73,0x99,0x2a,0x7f,0x00,
0x99,0x28,0x7f,0x00,0x99,0x29,0x7f,0x00,0x99,0x23,0x7f,0x00,0x99,0x21,0x7f,0x00,
0x99,0x24,0x7f,0x05,0x89,0x28,0x7f,0x00,0x89,0x2b,0x7f,0x78,0x89,0x2a,0x7f,0x00,
0x89,0x28,0x7f,0x00,0x89,0x29,0x7f,0x00,0x89,0x23,0x7f,0x00,0x89,0x21,0x7f,0x00,
0x89,0x24,0x7f,0x73,0x99,0x2a,0x7f,0x00,0x99,0x2c,0x7f,0x00,0x99,0x23,0x7f,0x00,
0x99,0x21,0x7f,0x00,0x99,0x24,0x7f,0x00,0x99,0x31,0x7f,0x3e,0x89,0x2c,0x7f,0x3a,
0x89,0x2a,0x7f,0x00,0x89,0x23,0x7f,0x00,0x89,0x21,0x7f,0x00,0x89,0x24,0x7f,0x00,
0x99,0x2c,0x7f,0x43,0x89,0x2c,0x7f,0x35,0x99,0x2a,0x7f,0x00,0x99,0x2c,0x7f,0x49,
0x89,0x2c,0x7f,0x29,0x89,0x31,0x7f,0x06,0x99,0x2c,0x7f,0x05,0x89,0x2a,0x7f,0x49,
0x89,0x2c,0x7f,0x2a,0x99,0x2a,0x7f,0x00,0x99,0x28,0x7f,0x00,0x99,0x2c,0x7f,0x00,
0x99,0x23,0x7f,0x00,0x99,0x21,0x7f,0x00,0x99,0x24,0x7f,0x3e,0x89,0x2c,0x7f,0x3a,
0x89,0x28,0x7f,0x00,0x89,0x2a,0x7f,0x00,0x89,0x23,0x7f,0x00,0x89,0x21,0x7f,0x00,
0x89,0x24,0x7f,0x00,0x99,0x2c,0x7f,0x43,0x89,0x2c,0x7f,0x35,0x99,0x2a,0x7f,0x00,
0x99,0x2c,0x7f,0x49,0x89,0x2c,0x7f,0x2f,0x99,0x2c,0x7f,0x05,0x89,0x2a,0x7f,0x49,
0x89,0x2c,0x7f,0x2a,0x99,0x2a,0x7f,0x00,0x99,0x2c,0x7f,0x00,0x99,0x23,0x7f,0x00,
0x99,0x21,0x7f,0x00,0x99,0x24,0x7f,0x3e,0x89,0x2c,0x7f,0x3a,0x99,0x2c,0x7f,0x05,
0x89,0x2a,0x7f,0x00,0x89,0x23,0x7f,0x00,0x89,0x21,0x7f,0x00,0x89,0x24,0x7f,0x3e,
0x89,0x2c,0x7f,0x35,0x99,0x2a,0x7f,0x00,0x99,0x2c,0x7f,0x00,0x99,0x23,0x7f,0x00,
0x99,0x21,0x7f,0x00,0x99,0x24,0x7f,0x49,0x89,0x2c,0x7f,0x2f,0x99,0x2c,0x7f,0x05,
0x89,0x2a,0x7f,0x00,0x89,0x23,0x7f,0x00,0x89,0x21,0x7f,0x00,0x89,0x24,0x7f,0x49,
0x89,0x2c,0x7f,0x2a,0x99,0x2a,0x7f,0x00,0x99,0x28,0x7f,0x00,0x99,0x2c,0x7f,0x00,
0x99,0x23,0x7f,0x00,0x99,0x21,0x7f,0x00,0x99,0x24,0x7f,0x3e,0x89,0x2c,0x7f,0x3a,
0x89,0x28,0x7f,0x00,0x89,0x2a,0x7f,0x00,0x89,0x23,0x7f,0x00,0x89,0x21,0x7f,0x00,
0x89,0x24,0x7f,0x00,0x99,0x2c,0x7f,0x43,0x89,0x2c,0x7f,0x35,0x99,0x2a,0x7f,0x00,
0x99,0x2c,0x7f,0x49,0x89,0x2c,0x7f,0x2f,0x99,0x2c,0x7f,0x05,0x89,0x2a,0x7f,0x49,
0x89,0x2c,0x7f,0x2a,0x99,0x2a,0x7f,0x00,0x99,0x2c,0x7f,0x00,0x99,0x23,0x7f,0x00,
0x99,0x21,0x7f,0x00,0x99,0x24,0x7f,0x3e,0x89,0x2c,0x7f,0x3a,0x89,0x2a,0x7f,0x00,
0x89,0x23,0x7f,0x00,0x89,0x21,0x7f,0x00,0x89,0x24,0x7f,0x00,0x99,0x2c,0x7f,0x43,
0x89,0x2c,0x7f,0x35,0x99,0x2a,0x7f,0x00,0x99,0x2c,0x7f,0x49,0x89,0x2c,0x7f,0x2f,
0x99,0x2c,0x7f,0x05,0x89,0x2a,0x7f,0x49,0x89,0x2c,0x7f,0x2a,0x99,0x2a,0x7f,0x00,
0x99,0x28,0x7f,0x00,0x99,0x2c,0x7f,0x00,0x99,0x23,0x7f,0x00,0x99,0x21,0x7f,0x00,
0x99,0x24,0x7f,0x3e,0x89,0x2c,0x7f,0x3a,0x89,0x28,0x7f,0x00,0x89,0x2a,0x7f,0x00,
0x89,0x23,0x7f,0x00,0x89,0x21,0x7f,0x00,0x89,0x24,0x7f,0x00,0x99,0x2c,0x7f,0x43,
0x89,0x2c,0x7f,0x35,0x99,0x2a,0x7f,0x00,0x99,0x2c,0x7f,0x49,0x89,0x2c,0x7f,0x2f,
0x99,0x2c,0x7f,0x05,0x89,0x2a,0x7f,0x49,0x89,0x2c,0x7f,0x2a,0x99,0x2a,0x7f,0x00,
0x99,0x2c,0x7f,0x00,0x99,0x23,0x7f,0x00,0x99,0x21,0x7f,0x00,0x99,0x24,0x7f,0x3e,
0x89,0x2c,0x7f,0x3a,0x99,0x2c,0x7f,0x05,0x89,0x2a,0x7f,0x00,0x89,0x23,0x7f,0x00,
0x89,0x21,0x7f,0x00,0x89,0x24,0x7f,0x3e,0x89,0x2c,0x7f,0x35,0x99,0x2a,0x7f,0x00,
0x99,0x2c,0x7f,0x00,0x99,0x23,0x7f,0x00,0x99,0x21,0x7f,0x00,0x99,0x24,0x7f,0x49,
0x89,0x2c,0x7f,0x2f,0x99,0x2c,0x7f,0x05,0x89,0x2a,0x7f,0x00,0x89,0x23,0x7f,0x00,
0x89,0x21,0x7f,0x00,0x89,0x24,0x7f,0x49,0x89,0x2c,0x7f,0x2a,0x99,0x2a,0x7f,0x00,
0x99,0x28,0x7f,0x00,0x99,0x2c,0x7f,0x00,0x99,0x23,0x7f,0x00,0x99,0x21,0x7f,0x00,
0x99,0x24,0x7f,0x3e,0x89,0x2c,0x7f,0x3a,0x89,0x28,0x7f,0x00,0x89,0x2a,0x7f,0x00,
0x89,0x23,0x7f,0x00,0x89,0x21,0x7f,0x00,0x89,0x24,0x7f,0x00,0x99,0x2c,0x7f,0x43,
0x89,0x2c,0x7f,0x35,0x99,0x2a,0x7f,0x00,0x99,0x2c,0x7f,0x49,0x89,0x2c,0x7f,0x2f,
0x99,0x2c,0x7f,0x05,0x89,0x2a,0x7f,0x49,0x89,0x2c,0x7f,0x2a,0x99,0x2a,0x7f,0x00,
0x99,0x2c,0x7f,0x00,0x99,0x23,0x7f,0x00,0x99,0x21,0x7f,0x00,0x99,0x24,0x7f,0x3e,
0x89,0x2c,0x7f,0x3a,0x89,0x2a,0x7f,0x00,0x89,0x23,0x7f,0x00,0x89,0x21,0x7f,0x00,
0x89,0x24,0x7f,0x00,0x99,0x2c,0x7f,0x43,0x89,0x2c,0x7f,0x35,0x99,0x2a,0x7f,0x00,
0x99,0x2c,0x7f,0x49,0x89,0x2c,0x7f,0x2f,0x99,0x2c,0x7f,0x05,0x89,0x2a,0x7f,0x49,
0x89,0x2c,0x7f,0x2a,0x99,0x2a,0x7f,0x00,0x99,0x28,0x7f,0x00,0x99,0x2c,0x7f,0x00,
0x99,0x23,0x7f,0x00,0x99,0x21,0x7f,0x00,0x99,0x24,0x7f,0x3e,0x89,0x2c,0x7f,0x3a,
0x89,0x28,0x7f,0x00,0x89,0x2a,0x7f,0x00,0x89,0x23,0x7f,0x00,0x89,0x21,0x7f,0x00,
0x89,0x24,0x7f,0x00,0x99,0x2c,0x7f,0x43,0x89,0x2c,0x7f,0x35,0x99,0x2a,0x7f,0x00,
0x99,0x2c,0x7f,0x49,0x89,0x2c,0x7f,0x2f,0x99,0x2c,0x7f,0x05,0x89,0x2a,0x7f,0x49,
0x89,0x2c,0x7f,0x2a,0x99,0x2a,0x7f,0x00,0x99,0x2c,0x7f,0x00,0x99,0x23,0x7f,0x00,
0x99,0x21,0x7f,0x00,0x99,0x24,0x7f,0x3e,0x89,0x2c,0x7f,0x3a,0x99,0x2c,0x7f,0x05,
0x89,0x2a,0x7f,0x00,0x89,0x23,0x7f,0x00,0x89,0x21,0x7f,0x00,0x89,0x24,0x7f,0x3e,
0x89,0x2c,0x7f,0x35,0x99,0x2a,0x7f,0x00,0x99,0x2c,0x7f,0x00,0x99,0x23,0x7f,0x00,
0x99,0x21,0x7f,0x00,0x99,0x24,0x7f,0x49,0x89,0x2c,0x7f,0x2f,0x99,0x2c,0x7f,0x05,
0x89,0x2a,0x7f,0x00,0x89,0x23,0x7f,0x00,0x89,0x21,0x7f,0x00,0x89,0x24,0x7f,0x49,
0x89,0x2c,0x7f,0x2a,0x99,0x2a,0x7f,0x00,0x99,0x28,0x7f,0x00,0x99,0x2c,0x7f,0x00,
0x99,0x23,0x7f,0x00,0x99,0x21,0x7f,0x00,0x99,0x24,0x7f,0x3e,0x89,0x2c,0x7f,0x3a,
0x89,0x28,0x7f,0x00,0x89,0x2a,0x7f,0x00,0x89,0x23,0x7f,0x00,0x89,0x21,0x7f,0x00,
0x89,0x24,0x7f,0x00,0x99,0x2c,0x7f,0x43,0x89,0x2c,0x7f,0x35,0x99,0x2a,0x7f,0x00,
0x99,0x2c,0x7f,0x49,0x89,0x2c,0x7f,0x2f,0x99,0x2c,0x7f,0x05,0x89,0x2a,0x7f,0x49,
0x89,0x2c,0x7f,0x2a,0x99,0x2a,0x7f,0x00,0x99,0x2c,0x7f,0x00,0x99,0x23,0x7f,0x00,
0x99,0x21,0x7f,0x00,0x99,0x24,0x7f,0x3e,0x89,0x2c,0x7f,0x3a,0x89,0x2a,0x7f,0x00,
0x89,0x23,0x7f,0x00,0x89,0x21,0x7f,0x00,0x89,0x24,0x7f,0x00,0x99,0x2c,0x7f,0x43,
0x89,0x2c,0x7f,0x35,0x99,0x2a,0x7f,0x00,0x99,0x2c,0x7f,0x49,0x89,0x2c,0x7f,0x2f,
0x99,0x2c,0x7f,0x05,0x89,0x2a,0x7f,0x49,0x89,0x2c,0x7f,0x2a,0x99,0x2a,0x7f,0x00,
0x99,0x28,0x7f,0x00,0x99,0x2c,0x7f,0x00,0x99,0x23,0x7f,0x00,0x99,0x21,0x7f,0x00,
0x99,0x24,0x7f,0x3e,0x89,0x2c,0x7f,0x3a,0x89,0x28,0x7f,0x00,0x89,0x2a,0x7f,0x00,
0x89,0x23,0x7f,0x00,0x89,0x21,0x7f,0x00,0x89,0x24,0x7f,0x00,0x99,0x2c,0x7f,0x43,
0x89,0x2c,0x7f,0x35,0x99,0x2a,0x7f,0x00,0x99,0x2c,0x7f,0x49,0x89,0x2c,0x7f,0x2f,
0x99,0x2c,0x7f,0x05,0x89,0x2a,0x7f,0x49,0x89,0x2c,0x7f,0x2a,0x99,0x2a,0x7f,0x00,
0x99,0x2c,0x7f,0x00,0x99,0x23,0x7f,0x00,0x99,0x21,0x7f,0x00,0x99,0x24,0x7f,0x3e,
0x89,0x2c,0x7f,0x3a,0x99,0x2c,0x7f,0x05,0x89,0x2a,0x7f,0x00,0x89,0x23,0x7f,0x00,
0x89,0x21,0x7f,0x00,0x89,0x24,0x7f,0x3e,0x89,0x2c,0x7f,0x35,0x99,0x2a,0x7f,0x00,
0x99,0x28,0x7f,0x00,0x99,0x2c,0x7f,0x00,0x99,0x23,0x7f,0x00,0x99,0x21,0x7f,0x00,
0x99,0x24,0x7f,0x49,0x89,0x2c,0x7f,0x2f,0x99,0x28,0x7f,0x00,0x99,0x2c,0x7f,0x05,
0x89,0x28,0x7f,0x00,0x89,0x2a,0x7f,0x00,0x89,0x23,0x7f,0x00,0x89,0x21,0x7f,0x00,
0x89,0x24,0x7f,0x49,0x89,0x2c,0x7f,0x2a,0x99,0x2a,0x7f,0x00,0x99,0x28,0x7f,0x00,
0x99,0x2c,0x7f,0x00,0x99,0x23,0x7f,0x00,0x99,0x21,0x7f,0x00,0x99,0x24,0x7f,0x06,
0x89,0x28,0x7f,0x38,0x89,0x2c,0x7f,0x3a,0x89,0x2a,0x7f,0x00,0x89,0x28,0x7f,0x00,
0x89,0x23,0x7f,0x00,0x89,0x21,0x7f,0x00,0x89,0x24,0x7f,0x00,0x99,0x2c,0x7f,0x43,
0x89,0x2c,0x7f,0x35,0x99,0x2a,0x7f,0x00,0x99,0x28,0x7f,0x00,0x99,0x2c,0x7f,0x00,
0x99,0x23,0x7f,0x00,0x99,0x21,0x7f,0x00,0x99,0x24,0x7f,0x49,0x89,0x2c,0x7f,0x2f,
0x99,0x2c,0x7f,0x05,0x89,0x28,0x7f,0x00,0x89,0x2a,0x7f,0x00,0x89,0x23,0x7f,0x00,
0x89,0x21,0x7f,0x00,0x89,0x24,0x7f,0x49,0x89,0x2c,0x7f,0x2a,0x99,0x2a,0x7f,0x00,
0x99,0x2c,0x7f,0x00,0x99,0x23,0x7f,0x00,0x99,0x21,0x7f,0x00,0x99,0x24,0x7f,0x3e,
0x89,0x2c,0x7f,0x3a,0x89,0x2a,0x7f,0x00,0x89,0x23,0x7f,0x00,0x89,0x21,0x7f,0x00,
0x89,0x24,0x7f,0x00,0x99,0x2c,0x7f,0x43,0x89,0x2c,0x7f,0x35,0x99,0x2a,0x7f,0x00,
0x99,0x2c,0x7f,0x49,0x89,0x2c,0x7f,0x2f,0x99,0x2c,0x7f,0x05,0x89,0x2a,0x7f,0x49,
0x89,0x2c,0x7f,0x2a,0x99,0x2a,0x7f,0x00,0x99,0x28,0x7f,0x00,0x99,0x2c,0x7f,0x00,
0x99,0x23,0x7f,0x00,0x99,0x21,0x7f,0x00,0x99,0x24,0x7f,0x3e,0x89,0x2c,0x7f,0x3a,
0x89,0x28,0x7f,0x00,0x89,0x2a,0x7f,0x00,0x89,0x23,0x7f,0x00,0x89,0x21,0x7f,0x00,
0x89,0x24,0x7f,0x00,0x99,0x2c,0x7f,0x43,0x89,0x2c,0x7f,0x35,0x99,0x2a,0x7f,0x00,
0x99,0x2c,0x7f,0x49,0x89,0x2c,0x7f,0x2f,0x99,0x2c,0x7f,0x05,0x89,0x2a,0x7f,0x49,
0x89,0x2c,0x7f,0x2a,0x99,0x2a,0x7f,0x00,0x99,0x2c,0x7f,0x00,0x99,0x23,0x7f,0x00,
0x99,0x21,0x7f,0x00,0x99,0x24,0x7f,0x3e,0x89,0x2c,0x7f,0x3a,0x99,0x2c,0x7f,0x05,
0x89,0x2a,0x7f,0x00,0x89,0x23,0x7f,0x00,0x89,0x21,0x7f,0x00,0x89,0x24,0x7f,0x3e,
0x89,0x2c,0x7f,0x35,0x99,0x2a,0x7f,0x00,0x99,0x2c,0x7f,0x00,0x99,0x23,0x7f,0x00,
0x99,0x21,0x7f,0x00,0x99,0x24,0x7f,0x49,0x89,0x2c,0x7f,0x2f,0x99,0x2c,0x7f,0x05,
0x89,0x2a,0x7f,0x00,0x89,0x23,0x7f,0x00,0x89,0x21,0x7f,0x00,0x89,0x24,0x7f,0x49,
0x89,0x2c,0x7f,0x2a,0x99,0x2a,0x7f,0x00,0x99,0x28,0x7f,0x00,0x99,0x2c,0x7f,0x00,
0x99,0x23,0x7f,0x00,0x99,0x21,0x7f,0x00,0x99,0x24,0x7f,0x3e,0x89,0x2c,0x7f,0x3a,
0x89,0x28,0x7f,0x00,0x89,0x2a,0x7f,0x00,0x89,0x23,0x7f,0x00,0x89,0x21,0x7f,0x00,
0x89,0x24,0x7f,0x00,0x99,0x2c,0x7f,0x43,0x89,0x2c,0x7f,0x35,0x99,0x2a,0x7f,0x00,
0x99,0x2c,0x7f,0x49,0x89,0x2c,0x7f,0x2f,0x99,0x2c,0x7f,0x05,0x89,0x2a,0x7f,0x49,
0x89,0x2c,0x7f,0x2a,0x99,0x2a,0x7f,0x00,0x99,0x2c,0x7f,0x00,0x99,0x23,0x7f,0x00,
0x99,0x21,0x7f,0x00,0x99,0x24,0x7f,0x3e,0x89,0x2c,0x7f,0x3a,0x89,0x2a,0x7f,0x00,
0x89,0x23,0x7f,0x00,0x89,0x21,0x7f,0x00,0x89,0x24,0x7f,0x00,0x99,0x2c,0x7f,0x43,
0x89,0x2c,0x7f,0x35,0x99,0x2a,0x7f,0x00,0x99,0x2c,0x7f,0x49,0x89,0x2c,0x7f,0x2f,
0x99,0x2c,0x7f,0x05,0x89,0x2a,0x7f,0x49,0x89,0x2c,0x7f,0x2a,0x99,0x2a,0x7f,0x00,
0x99,0x28,0x7f,0x00,0x99,0x2c,0x7f,0x00,0x99,0x23,0x7f,0x00,0x99,0x21,0x7f,0x00,
0x99,0x24,0x7f,0x3e,0x89,0x2c,0x7f,0x3a,0x89,0x28,0x7f,0x00,0x89,0x2a,0x7f,0x00,
0x89,0x23,0x7f,0x00,0x89,0x21,0x7f,0x00,0x89,0x24,0x7f,0x00,0x99,0x2c,0x7f,0x43,
0x89,0x2c,0x7f,0x35,0x99,0x2a,0x7f,0x00,0x99,0x2c,0x7f,0x49,0x89,0x2c,0x7f,0x2f,
0x99,0x2c,0x7f,0x05,0x89,0x2a,0x7f,0x49,0x89,0x2c,0x7f,0x2a,0x99,0x2a,0x7f,0x00,
0x99,0x2c,0x7f,0x00,0x99,0x23,0x7f,0x00,0x99,0x21,0x7f,0x00,0x99,0x24,0x7f,0x3e,
0x89,0x2c,0x7f,0x3a,0x99,0x2c,0x7f,0x05,0x89,0x2a,0x7f,0x00,0x89,0x23,0x7f,0x00,
0x89,0x21,0x7f,0x00,0x89,0x24,0x7f,0x3e,0x89,0x2c,0x7f,0x35,0x99,0x2a,0x7f,0x00,
0x99,0x2c,0x7f,0x00,0x99,0x23,0x7f,0x00,0x99,0x21,0x7f,0x00,0x99,0x24,0x7f,0x49,
0x89,0x2c,0x7f,0x2f,0x99,0x2c,0x7f,0x05,0x89,0x2a,0x7f,0x00,0x89,0x23,0x7f,0x00,
0x89,0x21,0x7f,0x00,0x89,0x24,0x7f,0x49,0x89,0x2c,0x7f,0x2a,0x99,0x2a,0x7f,0x00,
0x99,0x28,0x7f,0x00,0x99,0x2c,0x7f,0x00,0x99,0x23,0x7f,0x00,0x99,0x21,0x7f,0x00,
0x99,0x24,0x7f,0x3e,0x89,0x2c,0x7f,0x3a,0x89,0x28,0x7f,0x00,0x89,0x2a,0x7f,0x00,
0x89,0x23,0x7f,0x00,0x89,0x21,0x7f,0x00,0x89,0x24,0x7f,0x00,0x99,0x2c,0x7f,0x43,
0x89,0x2c,0x7f,0x35,0x99,0x2a,0x7f,0x00,0x99,0x2c,0x7f,0x49,0x89,0x2c,0x7f,0x2f,
0x99,0x2c,0x7f,0x05,0x89,0x2a,0x7f,0x49,0x89,0x2c,0x7f,0x2a,0x99,0x2a,0x7f,0x00,
0x99,0x2c,0x7f,0x00,0x99,0x23,0x7f,0x00,0x99,0x21,0x7f,0x00,0x99,0x24,0x7f,0x3e,
0x89,0x2c,0x7f,0x3a,0x89,0x2a,0x7f,0x00,0x89,0x23,0x7f,0x00,0x89,0x21,0x7f,0x00,
0x89,0x24,0x7f,0x00,0x99,0x2c,0x7f,0x43,0x89,0x2c,0x7f,0x35,0x99,0x2a,0x7f,0x00,
0x99,0x2c,0x7f,0x49,0x89,0x2c,0x7f,0x2f,0x99,0x2c,0x7f,0x05,0x89,0x2a,0x7f,0x49,
0x89,0x2c,0x7f,0x2a,0x99,0x2a,0x7f,0x00,0x99,0x28,0x7f,0x00,0x99,0x2c,0x7f,0x00,
0x99,0x23,0x7f,0x00,0x99,0x21,0x7f,0x00,0x99,0x24,0x7f,0x3e,0x89,0x2c,0x7f,0x3a,
0x89,0x28,0x7f,0x00,0x89,0x2a,0x7f,0x00,0x89,0x23,0x7f,0x00,0x89,0x21,0x7f,0x00,
0x89,0x24,0x7f,0x00,0x99,0x2c,0x7f,0x43,0x89,0x2c,0x7f,0x35,0x99,0x2a,0x7f,0x00,
0x99,0x2c,0x7f,0x49,0x89,0x2c,0x7f,0x2f,0x99,0x2c,0x7f,0x05,0x89,0x2a,0x7f,0x49,
0x89,0x2c,0x7f,0x2a,0x99,0x2a,0x7f,0x00,0x99,0x2c,0x7f,0x00,0x99,0x23,0x7f,0x00,
0x99,0x21,0x7f,0x00,0x99,0x24,0x7f,0x3e,0x89,0x2c,0x7f,0x3a,0x99,0x2c,0x7f,0x05,
0x89,0x2a,0x7f,0x00,0x89,0x23,0x7f,0x00,0x89,0x21,0x7f,0x00,0x89,0x24,0x7f,0x3e,
0x89,0x2c,0x7f,0x35,0x99,0x2a,0x7f,0x00,0x99,0x2c,0x7f,0x00,0x99,0x23,0x7f,0x00,
0x99,0x21,0x7f,0x00,0x99,0x24,0x7f,0x49,0x89,0x2c,0x7f,0x2f,0x99,0x2c,0x7f,0x05,
0x89,0x2a,0x7f,0x00,0x89,0x23,0x7f,0x00,0x89,0x21,0x7f,0x00,0x89,0x24,0x7f,0x49,
0x89,0x2c,0x7f,0x2a,0x99,0x2a,0x7f,0x00,0x99,0x28,0x7f,0x00,0x99,0x2c,0x7f,0x00,
0x99,0x23,0x7f,0x00,0x99,0x21,0x7f,0x00,0x99,0x24,0x7f,0x3e,0x89,0x2c,0x7f,0x3a,
0x89,0x28,0x7f,0x00,0x89,0x2a,0x7f,0x00,0x89,0x23,0x7f,0x00,0x89,0x21,0x7f,0x00,
0x89,0x24,0x7f,0x00,0x99,0x2c,0x7f,0x43,0x89,0x2c,0x7f,0x35,0x99,0x2a,0x7f,0x00,
0x99,0x2c,0x7f,0x49,0x89,0x2c,0x7f,0x2f,0x99,0x2c,0x7f,0x05,0x89,0x2a,0x7f,0x49,
0x89,0x2c,0x7f,0x2a,0x99,0x2a,0x7f,0x00,0x99,0x2c,0x7f,0x00,0x99,0x23,0x7f,0x00,
0x99,0x21,0x7f,0x00,0x99,0x24,0x7f,0x3e,0x89,0x2c,0x7f,0x3a,0x89,0x2a,0x7f,0x00,
0x89,0x23,0x7f,0x00,0x89,0x21,0x7f,0x00,0x89,0x24,0x7f,0x00,0x99,0x2c,0x7f,0x43,
0x89,0x2c,0x7f,0x35,0x99,0x2a,0x7f,0x00,0x99,0x2c,0x7f,0x49,0x89,0x2c,0x7f,0x2f,
0x99,0x2c,0x7f,0x05,0x89,0x2a,0x7f,0x49,0x89,0x2c,0x7f,0x2a,0x99,0x2a,0x7f,0x00,
0x99,0x28,0x7f,0x00,0x99,0x2c,0x7f,0x00,0x99,0x23,0x7f,0x00,0x99,0x21,0x7f,0x00,
0x99,0x24,0x7f,0x3e,0x89,0x2c,0x7f,0x3a,0x89,0x28,0x7f,0x00,0x89,0x2a,0x7f,0x00,
0x89,0x23,0x7f,0x00,0x89,0x21,0x7f,0x00,0x89,0x24,0x7f,0x00,0x99,0x2c,0x7f,0x43,
0x89,0x2c,0x7f,0x35,0x99,0x2a,0x7f,0x00,0x99,0x2c,0x7f,0x49,0x89,0x2c,0x7f,0x2f,
0x99,0x2c,0x7f,0x05,0x89,0x2a,0x7f,0x49,0x89,0x2c,0x7f,0x2a,0x99,0x2a,0x7f,0x00,
0x99,0x2c,0x7f,0x00,0x99,0x23,0x7f,0x00,0x99,0x21,0x7f,0x00,0x99,0x24,0x7f,0x3e,
0x89,0x2c,0x7f,0x3a,0x99,0x2c,0x7f,0x05,0x89,0x2a,0x7f,0x00,0x89,0x23,0x7f,0x00,
0x89,0x21,0x7f,0x00,0x89,0x24,0x7f,0x3e,0x89,0x2c,0x7f,0x35,0x99,0x2a,0x7f,0x00,
0x99,0x28,0x7f,0x00,0x99,0x2c,0x7f,0x00,0x99,0x23,0x7f,0x00,0x99,0x21,0x7f,0x00,
0x99,0x24,0x7f,0x49,0x89,0x2c,0x7f,0x2f,0x99,0x28,0x7f,0x00,0x99,0x2c,0x7f,0x05,
0x89,0x28,0x7f,0x00,0x89,0x2a,0x7f,0x00,0x89,0x23,0x7f,0x00,0x89,0x21,0x7f,0x00,
0x89,0x24,0x7f,0x49,0x89,0x2c,0x7f,0x2a,0x99,0x2a,0x7f,0x00,0x99,0x28,0x7f,0x00,
0x99,0x2c,0x7f,0x00,0x99,0x23,0x7f,0x00,0x99,0x21,0x7f,0x00,0x99,0x24,0x7f,0x06,
0x89,0x28,0x7f,0x38,0x89,0x2c,0x7f,0x3a,0x89,0x2a,0x7f,0x00,0x89,0x28,0x7f,0x00,
0x89,0x23,0x7f,0x00,0x89,0x21,0x7f,0x00,0x89,0x24,0x7f,0x00,0x99,0x2c,0x7f,0x43,
0x89,0x2c,0x7f,0x35,0x99,0x2a,0x7f,0x00,0x99,0x28,0x7f,0x00,0x99,0x2c,0x7f,0x00,
0x99,0x23,0x7f,0x00,0x99,0x21,0x7f,0x00,0x99,0x24,0x7f,0x49,0x89,0x2c,0x7f,0x2f,
0x99,0x2c,0x7f,0x05,0x89,0x28,0x7f,0x00,0x89,0x2a,0x7f,0x00,0x89,0x23,0x7f,0x00,
0x89,0x21,0x7f,0x00,0x89,0x24,0x7f,0x49,0x89,0x2c,0x7f,0x2a,0x99,0x2a,0x7f,0x00,
0x99,0x2c,0x7f,0x00,0x99,0x23,0x7f,0x00,0x99,0x21,0x7f,0x00,0x99,0x24,0x7f,0x3e,
0x89,0x2c,0x7f,0x3a,0x89,0x2a,0x7f,0x00,0x89,0x23,0x7f,0x00,0x89,0x21,0x7f,0x00,
0x89,0x24,0x7f,0x00,0x99,0x2c,0x7f,0x43,0x89,0x2c,0x7f,0x35,0x99,0x2a,0x7f,0x00,
0x99,0x2c,0x7f,0x49,0x89,0x2c,0x7f,0x2f,0x99,0x2c,0x7f,0x05,0x89,0x2a,0x7f,0x49,
0x89,0x2c,0x7f,0x2a,0x99,0x2a,0x7f,0x00,0x99,0x28,0x7f,0x00,0x99,0x2c,0x7f,0x00,
0x99,0x23,0x7f,0x00,0x99,0x21,0x7f,0x00,0x99,0x24,0x7f,0x3e,0x89,0x2c,0x7f,0x3a,
0x89,0x28,0x7f,0x00,0x89,0x2a,0x7f,0x00,0x89,0x23,0x7f,0x00,0x89,0x21,0x7f,0x00,
0x89,0x24,0x7f,0x00,0x99,0x2c,0x7f,0x43,0x89,0x2c,0x7f,0x35,0x99,0x2a,0x7f,0x00,
0x99,0x2c,0x7f,0x49,0x89,0x2c,0x7f,0x2f,0x99,0x2c,0x7f,0x05,0x89,0x2a,0x7f,0x49,
0x89,0x2c,0x7f,0x2a,0x99,0x2a,0x7f,0x00,0x99,0x2c,0x7f,0x00,0x99,0x23,0x7f,0x00,
0x99,0x21,0x7f,0x00,0x99,0x24,0x7f,0x3e,0x89,0x2c,0x7f,0x3a,0x99,0x2c,0x7f,0x05,
0x89,0x2a,0x7f,0x00,0x89,0x23,0x7f,0x00,0x89,0x21,0x7f,0x00,0x89,0x24,0x7f,0x3e,
0x89,0x2c,0x7f,0x35,0x99,0x2a,0x7f,0x00,0x99,0x2c,0x7f,0x00,0x99,0x23,0x7f,0x00,
0x99,0x21,0x7f,0x00,0x99,0x24,0x7f,0x49,0x89,0x2c,0x7f,0x2f,0x99,0x2c,0x7f,0x05,
0x89,0x2a,0x7f,0x00,0x89,0x23,0x7f,0x00,0x89,0x21,0x7f,0x00,0x89,0x24,0x7f,0x49,
0x89,0x2c,0x7f,0x2a,0x99,0x2a,0x7f,0x00,0x99,0x28,0x7f,0x00,0x99,0x2c,0x7f,0x00,
0x99,0x23,0x7f,0x00,0x99,0x21,0x7f,0x00,0x99,0x24,0x7f,0x3e,0x89,0x2c,0x7f,0x3a,
0x89,0x28,0x7f,0x00,0x89,0x2a,0x7f,0x00,0x89,0x23,0x7f,0x00,0x89,0x21,0x7f,0x00,
0x89,0x24,0x7f,0x00,0x99,0x2c,0x7f,0x43,0x89,0x2c,0x7f,0x35,0x99,0x2a,0x7f,0x00,
0x99,0x2c,0x7f,0x49,0x89,0x2c,0x7f,0x2f,0x99,0x2c,0x7f,0x05,0x89,0x2a,0x7f,0x49,
0x89,0x2c,0x7f,0x2a,0x99,0x2a,0x7f,0x00,0x99,0x2c,0x7f,0x00,0x99,0x23,0x7f,0x00,
0x99,0x21,0x7f,0x00,0x99,0x24,0x7f,0x3e,0x89,0x2c,0x7f,0x3a,0x89,0x2a,0x7f,0x00,
0x89,0x23,0x7f,0x00,0x89,0x21,0x7f,0x00,0x89,0x24,0x7f,0x00,0x99,0x2c,0x7f,0x43,
0x89,0x2c,0x7f,0x35,0x99,0x2a,0x7f,0x00,0x99,0x2c,0x7f,0x49,0x89,0x2c,0x7f,0x2f,
0x99,0x2c,0x7f,0x05,0x89,0x2a,0x7f,0x49,0x89,0x2c,0x7f,0x2a,0x99,0x2a,0x7f,0x00,
0x99,0x28,0x7f,0x00,0x99,0x2c,0x7f,0x00,0x99,0x23,0x7f,0x00,0x99,0x21,0x7f,0x00,
0x99,0x24,0x7f,0x3e,0x89,0x2c,0x7f,0x3a,0x89,0x28,0x7f,0x00,0x89,0x2a,0x7f,0x00,
0x89,0x23,0x7f,0x00,0x89,0x21,0x7f,0x00,0x89,0x24,0x7f,0x00,0x99,0x2c,0x7f,0x43,
0x89,0x2c,0x7f,0x35,0x99,0x2a,0x7f,0x00,0x99,0x2c,0x7f,0x49,0x89,0x2c,0x7f,0x2f,
0x99,0x2c,0x7f,0x05,0x89,0x2a,0x7f,0x49,0x89,0x2c,0x7f,0x2a,0x99,0x2a,0x7f,0x00,
0x99,0x2c,0x7f,0x00,0x99,0x23,0x7f,0x00,0x99,0x21,0x7f,0x00,0x99,0x24,0x7f,0x3e,
0x89,0x2c,0x7f,0x3a,0x99,0x2c,0x7f,0x05,0x89,0x2a,0x7f,0x00,0x89,0x23,0x7f,0x00,
0x89,0x21,0x7f,0x00,0x89,0x24,0x7f,0x3e,0x89,0x2c,0x7f,0x35,0x99,0x2a,0x7f,0x00,
0x99,0x2c,0x7f,0x00,0x99,0x23,0x7f,0x00,0x99,0x21,0x7f,0x00,0x99,0x24,0x7f,0x49,
0x89,0x2c,0x7f,0x2f,0x99,0x2c,0x7f,0x05,0x89,0x2a,0x7f,0x00,0x89,0x23,0x7f,0x00,
0x89,0x21,0x7f,0x00,0x89,0x24,0x7f,0x49,0x89,0x2c,0x7f,0x2a,0x99,0x2a,0x7f,0x00,
0x99,0x28,0x7f,0x00,0x99,0x2c,0x7f,0x00,0x99,0x23,0x7f,0x00,0x99,0x21,0x7f,0x00,
0x99,0x24,0x7f,0x3e,0x89,0x2c,0x7f,0x3a,0x89,0x28,0x7f,0x00,0x89,0x2a,0x7f,0x00,
0x89,0x23,0x7f,0x00,0x89,0x21,0x7f,0x00,0x89,0x24,0x7f,0x00,0x99,0x2c,0x7f,0x43,
0x89,0x2c,0x7f,0x35,0x99,0x2a,0x7f,0x00,0x99,0x2c,0x7f,0x49,0x89,0x2c,0x7f,0x2f,
0x99,0x2c,0x7f,0x05,0x89,0x2a,0x7f,0x49,0x89,0x2c,0x7f,0x2a,0x99,0x2a,0x7f,0x00,
0x99,0x2c,0x7f,0x00,0x99,0x23,0x7f,0x00,0x99,0x21,0x7f,0x00,0x99,0x24,0x7f,0x3e,
0x89,0x2c,0x7f,0x3a,0x89,0x2a,0x7f,0x00,0x89,0x23,0x7f,0x00,0x89,0x21,0x7f,0x00,
0x89,0x24,0x7f,0x00,0x99,0x2c,0x7f,0x43,0x89,0x2c,0x7f,0x35,0x99,0x2a,0x7f,0x00,
0x99,0x2c,0x7f,0x49,0x89,0x2c,0x7f,0x2f,0x99,0x2c,0x7f,0x05,0x89,0x2a,0x7f,0x49,
0x89,0x2c,0x7f,0x2a,0x99,0x2a,0x7f,0x00,0x99,0x28,0x7f,0x00,0x99,0x2c,0x7f,0x00,
0x99,0x23,0x7f,0x00,0x99,0x21,0x7f,0x00,0x99,0x24,0x7f,0x3e,0x89,0x2c,0x7f,0x3a,
0x89,0x28,0x7f,0x00,0x89,0x2a,0x7f,0x00,0x89,0x23,0x7f,0x00,0x89,0x21,0x7f,0x00,
0x89,0x24,0x7f,0x00,0x99,0x2c,0x7f,0x43,0x89,0x2c,0x7f,0x35,0x99,0x2a,0x7f,0x00,
0x99,0x2c,0x7f,0x49,0x89,0x2c,0x7f,0x2f,0x99,0x2c,0x7f,0x05,0x89,0x2a,0x7f,0x49,
0x89,0x2c,0x7f,0x2a,0x99,0x2a,0x7f,0x00,0x99,0x2c,0x7f,0x00,0x99,0x23,0x7f,0x00,
0x99,0x21,0x7f,0x00,0x99,0x24,0x7f,0x3e,0x89,0x2c,0x7f,0x3a,0x99,0x2c,0x7f,0x05,
0x89,0x2a,0x7f,0x00,0x89,0x23,0x7f,0x00,0x89,0x21,0x7f,0x00,0x89,0x24,0x7f,0x3e,
0x89,0x2c,0x7f,0x35,0x99,0x2a,0x7f,0x00,0x99,0x2c,0x7f,0x00,0x99,0x23,0x7f,0x00,
0x99,0x21,0x7f,0x00,0x99,0x24,0x7f,0x49,0x89,0x2c,0x7f,0x2f,0x99,0x2c,0x7f,0x05,
0x89,0x2a,0x7f,0x00,0x89,0x23,0x7f,0x00,0x89,0x21,0x7f,0x00,0x89,0x24,0x7f,0x49,
0x89,0x2c,0x7f,0x2a,0x99,0x2a,0x7f,0x00,0x99,0x28,0x7f,0x00,0x99,0x2c,0x7f,0x00,
0x99,0x23,0x7f,0x00,0x99,0x21,0x7f,0x00,0x99,0x24,0x7f,0x3e,0x89,0x2c,0x7f,0x3a,
0x89,0x28,0x7f,0x00,0x89,0x2a,0x7f,0x00,0x89,0x23,0x7f,0x00,0x89,0x21,0x7f,0x00,
0x89,0x24,0x7f,0x00,0x99,0x2c,0x7f,0x43,0x89,0x2c,0x7f,0x35,0x99,0x2a,0x7f,0x00,
0x99,0x2c,0x7f,0x49,0x89,0x2c,0x7f,0x2f,0x99,0x2c,0x7f,0x05,0x89,0x2a,0x7f,0x49,
0x89,0x2c,0x7f,0x2a,0x99,0x2a,0x7f,0x00,0x99,0x2c,0x7f,0x00,0x99,0x23,0x7f,0x00,
0x99,0x21,0x7f,0x00,0x99,0x24,0x7f,0x3e,0x89,0x2c,0x7f,0x3a,0x89,0x2a,0x7f,0x00,
0x89,0x23,0x7f,0x00,0x89,0x21,0x7f,0x00,0x89,0x24,0x7f,0x00,0x99,0x2c,0x7f,0x43,
0x89,0x2c,0x7f,0x35,0x99,0x2a,0x7f,0x00,0x99,0x2c,0x7f,0x49,0x89,0x2c,0x7f,0x2f,
0x99,0x2c,0x7f,0x05,0x89,0x2a,0x7f,0x49,0x89,0x2c,0x7f,0x2a,0x99,0x2a,0x7f,0x00,
0x99,0x28,0x7f,0x00,0x99,0x2c,0x7f,0x00,0x99,0x23,0x7f,0x00,0x99,0x21,0x7f,0x00,
0x99,0x24,0x7f,0x3e,0x89,0x2c,0x7f,0x3a,0x89,0x28,0x7f,0x00,0x89,0x2a,0x7f,0x00,
0x89,0x23,0x7f,0x00,0x89,0x21,0x7f,0x00,0x89,0x24,0x7f,0x00,0x99,0x2c,0x7f,0x43,
0x89,0x2c,0x7f,0x35,0x99,0x2a,0x7f,0x00,0x99,0x2c,0x7f,0x49,0x89,0x2c,0x7f,0x2f,
0x99,0x2c,0x7f,0x05,0x89,0x2a,0x7f,0x49,0x89,0x2c,0x7f,0x2a,0x99,0x2a,0x7f,0x00,
0x99,0x2c,0x7f,0x00,0x99,0x23,0x7f,0x00,0x99,0x21,0x7f,0x00,0x99,0x24,0x7f,0x3e,
0x89,0x2c,0x7f,0x3a,0x99,0x2c,0x7f,0x05,0x89,0x2a,0x7f,0x00,0x89,0x23,0x7f,0x00,
0x89,0x21,0x7f,0x00,0x89,0x24,0x7f,0x3e,0x89,0x2c,0x7f,0x35,0x99,0x2a,0x7f,0x00,
0x99,0x28,0x7f,0x00,0x99,0x2c,0x7f,0x00,0x99,0x23,0x7f,0x00,0x99,0x21,0x7f,0x00,
0x99,0x24,0x7f,0x00,0x99,0x33,0x7f,0x49,0x89,0x2c,0x7f,0x2f,0x99,0x28,0x7f,0x00,
0x99,0x2c,0x7f,0x05,0x89,0x28,0x7f,0x00,0x89,0x2a,0x7f,0x00,0x89,0x23,0x7f,0x00,
0x89,0x21,0x7f,0x00,0x89,0x24,0x7f,0x49,0x89,0x2c,0x7f,0x2a,0x99,0x2a,0x7f,0x00,
0x99,0x28,0x7f,0x00,0x99,0x2c,0x7f,0x00,0x99,0x23,0x7f,0x00,0x99,0x21,0x7f,0x00,
0x99,0x24,0x7f,0x06,0x89,0x28,0x7f,0x05,0x89,0x33,0x7f,0x33,0x89,0x2c,0x7f,0x3a,
0x89,0x2a,0x7f,0x00,0x89,0x28,0x7f,0x00,0x89,0x23,0x7f,0x00,0x89,0x21,0x7f,0x00,
0x89,0x24,0x7f,0x00,0x99,0x2c,0x7f,0x43,0x89,0x2c,0x7f,0x35,0x99,0x2a,0x7f,0x00,
0x99,0x28,0x7f,0x00,0x99,0x2c,0x7f,0x00,0x99,0x23,0x7f,0x00,0x99,0x21,0x7f,0x00,
0x99,0x24,0x7f,0x49,0x89,0x2c,0x7f,0x2f,0x99,0x2c,0x7f,0x05,0x89,0x28,0x7f,0x00,
0x89,0x2a,0x7f,0x00,0x89,0x23,0x7f,0x00,0x89,0x21,0x7f,0x00,0x89,0x24,0x7f,0x49,
0x89,0x2c,0x7f,0x2a,0x99,0x2a,0x7f,0x00,0x99,0x2c,0x7f,0x00,0x99,0x23,0x7f,0x00,
0x99,0x21,0x7f,0x00,0x99,0x24,0x7f,0x00,0x99,0x31,0x7f,0x3e,0x89,0x2c,0x7f,0x3a,
0x89,0x2a,0x7f,0x00,0x89,0x23,0x7f,0x00,0x89,0x21,0x7f,0x00,0x89,0x24,0x7f,0x00,
0x99,0x2c,0x7f,0x43,0x89,0x2c,0x7f,0x35,0x99,0x2a,0x7f,0x00,0x99,0x2c,0x7f,0x49,
0x89,0x2c,0x7f,0x29,0x89,0x31,0x7f,0x06,0x99,0x2c,0x7f,0x05,0x89,0x2a,0x7f,0x49,
0x89,0x2c,0x7f,0x2a,0x99,0x2a,0x7f,0x00,0x99,0x28,0x7f,0x00,0x99,0x2c,0x7f,0x00,
0x99,0x23,0x7f,0x00,0x99,0x21,0x7f,0x00,0x99,0x24,0x7f,0x3e,0x89,0x2c,0x7f,0x3a,
0x89,0x28,0x7f,0x00,0x89,0x2a,0x7f,0x00,0x89,0x23,0x7f,0x00,0x89,0x21,0x7f,0x00,
0x89,0x24,0x7f,0x00,0x99,0x2c,0x7f,0x43,0x89,0x2c,0x7f,0x35,0x99,0x2a,0x7f,0x00,
0x99,0x2c,0x7f,0x49,0x89,0x2c,0x7f,0x2f,0x99,0x2c,0x7f,0x05,0x89,0x2a,0x7f,0x49,
0x89,0x2c,0x7f,0x2a,0x99,0x2a,0x7f,0x00,0x99,0x2c,0x7f,0x00,0x99,0x23,0x7f,0x00,
0x99,0x21,0x7f,0x00,0x99,0x24,0x7f,0x3e,0x89,0x2c,0x7f,0x3a,0x99,0x2c,0x7f,0x05,
0x89,0x2a,0x7f,0x00,0x89,0x23,0x7f,0x00,0x89,0x21,0x7f,0x00,0x89,0x24,0x7f,0x3e,
0x89,0x2c,0x7f,0x35,0x99,0x2a,0x7f,0x00,0x99,0x2c,0x7f,0x00,0x99,0x23,0x7f,0x00,
0x99,0x21,0x7f,0x00,0x99,0x24,0x7f,0x49,0x89,0x2c,0x7f,0x2f,0x99,0x2c,0x7f,0x05,
0x89,0x2a,0x7f,0x00,0x89,0x23,0x7f,0x00,0x89,0x21,0x7f,0x00,0x89,0x24,0x7f,0x49,
0x89,0x2c,0x7f,0x2a,0x99,0x2a,0x7f,0x00,0x99,0x28,0x7f,0x00,0x99,0x2c,0x7f,0x00,
0x99,0x23,0x7f,0x00,0x99,0x21,0x7f,0x00,0x99,0x24,0x7f,0x3e,0x89,0x2c,0x7f,0x3a,
0x89,0x28,0x7f,0x00,0x89,0x2a,0x7f,0x00,0x89,0x23,0x7f,0x00,0x89,0x21,0x7f,0x00,
0x89,0x24,0x7f,0x00,0x99,0x2c,0x7f,0x43,0x89,0x2c,0x7f,0x35,0x99,0x2a,0x7f,0x00,
0x99,0x2c,0x7f,0x49,0x89,0x2c,0x7f,0x2f,0x99,0x2c,0x7f,0x05,0x89,0x2a,0x7f,0x49,
0x89,0x2c,0x7f,0x2a,0x99,0x2a,0x7f,0x00,0x99,0x2c,0x7f,0x00,0x99,0x23,0x7f,0x00,
0x99,0x21,0x7f,0x00,0x99,0x24,0x7f,0x3e,0x89,0x2c,0x7f,0x3a,0x89,0x2a,0x7f,0x00,
0x89,0x23,0x7f,0x00,0x89,0x21,0x7f,0x00,0x89,0x24,0x7f,0x00,0x99,0x2c,0x7f,0x43,
0x89,0x2c,0x7f,0x35,0x99,0x2a,0x7f,0x00,0x99,0x2c,0x7f,0x49,0x89,0x2c,0x7f,0x2f,
0x99,0x2c,0x7f,0x05,0x89,0x2a,0x7f,0x49,0x89,0x2c,0x7f,0x2a,0x99,0x2a,0x7f,0x00,
0x99,0x28,0x7f,0x00,0x99,0x2c,0x7f,0x00,0x99,0x23,0x7f,0x00,0x99,0x21,0x7f,0x00,
0x99,0x24,0x7f,0x3e,0x89,0x2c,0x7f,0x3a,0x89,0x28,0x7f,0x00,0x89,0x2a,0x7f,0x00,
0x89,0x23,0x7f,0x00,0x89,0x21,0x7f,0x00,0x89,0x24,0x7f,0x00,0x99,0x2c,0x7f,0x43,
0x89,0x2c,0x7f,0x35,0x99,0x2a,0x7f,0x00,0x99,0x2c,0x7f,0x49,0x89,0x2c,0x7f,0x2f,
0x99,0x2c,0x7f,0x05,0x89,0x2a,0x7f,0x49,0x89,0x2c,0x7f,0x2a,0x99,0x2a,0x7f,0x00,
0x99,0x2c,0x7f,0x00,0x99,0x23,0x7f,0x00,0x99,0x21,0x7f,0x00,0x99,0x24,0x7f,0x3e,
0x89,0x2c,0x7f,0x3a,0x99,0x2c,0x7f,0x05,0x89,0x2a,0x7f,0x00,0x89,0x23,0x7f,0x00,
0x89,0x21,0x7f,0x00,0x89,0x24,0x7f,0x3e,0x89,0x2c,0x7f,0x35,0x99,0x2a,0x7f,0x00,
0x99,0x2c,0x7f,0x00,0x99,0x23,0x7f,0x00,0x99,0x21,0x7f,0x00,0x99,0x24,0x7f,0x49,
0x89,0x2c,0x7f,0x2f,0x99,0x2c,0x7f,0x05,0x89,0x2a,0x7f,0x00,0x89,0x23,0x7f,0x00,
0x89,0x21,0x7f,0x00,0x89,0x24,0x7f,0x49,0x89,0x2c,0x7f,0x2a,0x99,0x2a,0x7f,0x00,
0x99,0x28,0x7f,0x00,0x99,0x2c,0x7f,0x00,0x99,0x23,0x7f,0x00,0x99,0x21,0x7f,0x00,
0x99,0x24,0x7f,0x3e,0x89,0x2c,0x7f,0x3a,0x89,0x28,0x7f,0x00,0x89,0x2a,0x7f,0x00,
0x89,0x23,0x7f,0x00,0x89,0x21,0x7f,0x00,0x89,0x24,0x7f,0x00,0x99,0x2c,0x7f,0x43,
0x89,0x2c,0x7f,0x35,0x99,0x2a,0x7f,0x00,0x99,0x2c,0x7f,0x49,0x89,0x2c,0x7f,0x2f,
0x99,0x2c,0x7f,0x05,0x89,0x2a,0x7f,0x49,0x89,0x2c,0x7f,0x2a,0x99,0x2a,0x7f,0x00,
0x99,0x2c,0x7f,0x00,0x99,0x23,0x7f,0x00,0x99,0x21,0x7f,0x00,0x99,0x24,0x7f,0x3e,
0x89,0x2c,0x7f,0x3a,0x89,0x2a,0x7f,0x00,0x89,0x23,0x7f,0x00,0x89,0x21,0x7f,0x00,
0x89,0x24,0x7f,0x00,0x99,0x2c,0x7f,0x43,0x89,0x2c,0x7f,0x35,0x99,0x2a,0x7f,0x00,
0x99,0x2c,0x7f,0x49,0x89,0x2c,0x7f,0x2f,0x99,0x2c,0x7f,0x05,0x89,0x2a,0x7f,0x49,
0x89,0x2c,0x7f,0x2a,0x99,0x2a,0x7f,0x00,0x99,0x28,0x7f,0x00,0x99,0x2c,0x7f,0x00,
0x99,0x23,0x7f,0x00,0x99,0x21,0x7f,0x00,0x99,0x24,0x7f,0x3e,0x89,0x2c,0x7f,0x3a,
0x89,0x28,0x7f,0x00,0x89,0x2a,0x7f,0x00,0x89,0x23,0x7f,0x00,0x89,0x21,0x7f,0x00,
0x89,0x24,0x7f,0x00,0x99,0x2c,0x7f,0x43,0x89,0x2c,0x7f,0x35,0x99,0x2a,0x7f,0x00,
0x99,0x2c,0x7f,0x49,0x89,0x2c,0x7f,0x2f,0x99,0x2c,0x7f,0x05,0x89,0x2a,0x7f,0x49,
0x89,0x2c,0x7f,0x2a,0x99,0x2a,0x7f,0x00,0x99,0x2c,0x7f,0x00,0x99,0x23,0x7f,0x00,
0x99,0x21,0x7f,0x00,0x99,0x24,0x7f,0x3e,0x89,0x2c,0x7f,0x3a,0x99,0x2c,0x7f,0x05,
0x89,0x2a,0x7f,0x00,0x89,0x23,0x7f,0x00,0x89,0x21,0x7f,0x00,0x89,0x24,0x7f,0x3e,
0x89,0x2c,0x7f,0x35,0x99,0x2a,0x7f,0x00,0x99,0x2c,0x7f,0x00,0x99,0x23,0x7f,0x00,
0x99,0x21,0x7f,0x00,0x99,0x24,0x7f,0x49,0x89,0x2c,0x7f,0x2f,0x99,0x2c,0x7f,0x05,
0x89,0x2a,0x7f,0x00,0x89,0x23,0x7f,0x00,0x89,0x21,0x7f,0x00,0x89,0x24,0x7f,0x49,
0x89,0x2c,0x7f,0x2a,0x99,0x2a,0x7f,0x00,0x99,0x28,0x7f,0x00,0x99,0x2c,0x7f,0x00,
0x99,0x23,0x7f,0x00,0x99,0x21,0x7f,0x00,0x99,0x24,0x7f,0x3e,0x89,0x2c,0x7f,0x3a,
0x89,0x28,0x7f,0x00,0x89,0x2a,0x7f,0x00,0x89,0x23,0x7f,0x00,0x89,0x21,0x7f,0x00,
0x89,0x24,0x7f,0x00,0x99,0x2c,0x7f,0x43,0x89,0x2c,0x7f,0x35,0x99,0x2a,0x7f,0x00,
0x99,0x2c,0x7f,0x49,0x89,0x2c,0x7f,0x2f,0x99,0x2c,0x7f,0x05,0x89,0x2a,0x7f,0x49,
0x89,0x2c,0x7f,0x2a,0x99,0x2a,0x7f,0x00,0x99,0x2c,0x7f,0x00,0x99,0x23,0x7f,0x00,
0x99,0x21,0x7f,0x00,0x99,0x24,0x7f,0x3e,0x89,0x2c,0x7f,0x3a,0x89,0x2a,0x7f,0x00,
0x89,0x23,0x7f,0x00,0x89,0x21,0x7f,0x00,0x89,0x24,0x7f,0x00,0x99,0x2c,0x7f,0x43,
0x89,0x2c,0x7f,0x35,0x99,0x2a,0x7f,0x00,0x99,0x2c,0x7f,0x49,0x89,0x2c,0x7f,0x2f,
0x99,0x2c,0x7f,0x05,0x89,0x2a,0x7f,0x49,0x89,0x2c,0x7f,0x2a,0x99,0x2a,0x7f,0x00,
0x99,0x28,0x7f,0x00,0x99,0x2c,0x7f,0x00,0x99,0x23,0x7f,0x00,0x99,0x21,0x7f,0x00,
0x99,0x24,0x7f,0x3e,0x89,0x2c,0x7f,0x3a,0x89,0x28,0x7f,0x00,0x89,0x2a,0x7f,0x00,
0x89,0x23,0x7f,0x00,0x89,0x21,0x7f,0x00,0x89,0x24,0x7f,0x00,0x99,0x2c,0x7f,0x43,
0x89,0x2c,0x7f,0x35,0x99,0x2a,0x7f,0x00,0x99,0x2c,0x7f,0x49,0x89,0x2c,0x7f,0x2f,
0x99,0x2c,0x7f,0x05,0x89,0x2a,0x7f,0x49,0x89,0x2c,0x7f,0x2a,0x99,0x2a,0x7f,0x00,
0x99,0x2c,0x7f,0x00,0x99,0x23,0x7f,0x00,0x99,0x21,0x7f,0x00,0x99,0x24,0x7f,0x3e,
0x89,0x2c,0x7f,0x3a,0x99,0x2c,0x7f,0x05,0x89,0x2a,0x7f,0x00,0x89,0x23,0x7f,0x00,
0x89,0x21,0x7f,0x00,0x89,0x24,0x7f,0x3e,0x89,0x2c,0x7f,0x35,0x99,0x2a,0x7f,0x00,
0x99,0x28,0x7f,0x00,0x99,0x2c,0x7f,0x00,0x99,0x23,0x7f,0x00,0x99,0x21,0x7f,0x00,
0x99,0x24,0x7f,0x49,0x89,0x2c,0x7f,0x2f,0x99,0x28,0x7f,0x00,0x99,0x2c,0x7f,0x05,
0x89,0x28,0x7f,0x00,0x89,0x2a,0x7f,0x00,0x89,0x23,0x7f,0x00,0x89,0x21,0x7f,0x00,
0x89,0x24,0x7f,0x49,0x89,0x2c,0x7f,0x2a,0x99,0x2a,0x7f,0x00,0x99,0x28,0x7f,0x00,
0x99,0x2c,0x7f,0x00,0x99,0x23,0x7f,0x00,0x99,0x21,0x7f,0x00,0x99,0x24,0x7f,0x06,
0x89,0x28,0x7f,0x38,0x89,0x2c,0x7f,0x3a,0x89,0x2a,0x7f,0x00,0x89,0x28,0x7f,0x00,
0x89,0x23,0x7f,0x00,0x89,0x21,0x7f,0x00,0x89,0x24,0x7f,0x00,0x99,0x2c,0x7f,0x43,
0x89,0x2c,0x7f,0x35,0x99,0x2a,0x7f,0x00,0x99,0x28,0x7f,0x00,0x99,0x2c,0x7f,0x00,
0x99,0x23,0x7f,0x00,0x99,0x21,0x7f,0x00,0x99,0x24,0x7f,0x49,0x89,0x2c,0x7f,0x2f,
0x99,0x2c,0x7f,0x05,0x89,0x28,0x7f,0x00,0x89,0x2a,0x7f,0x00,0x89,0x23,0x7f,0x00,
0x89,0x21,0x7f,0x00,0x89,0x24,0x7f,0x49,0x89,0x2c,0x7f,0x2a,0x99,0x2a,0x7f,0x00,
0x99,0x2c,0x7f,0x00,0x99,0x23,0x7f,0x00,0x99,0x21,0x7f,0x00,0x99,0x24,0x7f,0x00,
0x99,0x31,0x7f,0x3e,0x89,0x2c,0x7f,0x3a,0x89,0x2a,0x7f,0x00,0x89,0x23,0x7f,0x00,
0x89,0x21,0x7f,0x00,0x89,0x24,0x7f,0x00,0x99,0x2c,0x7f,0x43,0x89,0x2c,0x7f,0x2a,
0x89,0x31,0x7f,0x0b,0x99,0x2a,0x7f,0x00,0x99,0x2c,0x7f,0x49,0x89,0x2c,0x7f,0x2f,
0x99,0x2c,0x7f,0x05,0x89,0x2a,0x7f,0x49,0x89,0x2c,0x7f,0x2a,0x99,0x2a,0x7f,0x00,
0x99,0x28,0x7f,0x00,0x99,0x2c,0x7f,0x00,0x99,0x23,0x7f,0x00,0x99,0x21,0x7f,0x00,
0x99,0x24,0x7f,0x3e,0x89,0x2c,0x7f,0x3a,0x89,0x28,0x7f,0x00,0x89,0x2a,0x7f,0x00,
0x89,0x23,0x7f,0x00,0x89,0x21,0x7f,0x00,0x89,0x24,0x7f,0x00,0x99,0x2c,0x7f,0x43,
0x89,0x2c,0x7f,0x35,0x99,0x2a,0x7f,0x00,0x99,0x2c,0x7f,0x49,0x89,0x2c,0x7f,0x2f,
0x99,0x2c,0x7f,0x05,0x89,0x2a,0x7f,0x49,0x89,0x2c,0x7f,0x2a,0x99,0x2a,0x7f,0x00,
0x99,0x2c,0x7f,0x00,0x99,0x23,0x7f,0x00,0x99,0x21,0x7f,0x00,0x99,0x24,0x7f,0x3e,
0x89,0x2c,0x7f,0x3a,0x99,0x2c,0x7f,0x05,0x89,0x2a,0x7f,0x00,0x89,0x23,0x7f,0x00,
0x89,0x21,0x7f,0x00,0x89,0x24,0x7f,0x3e,0x89,0x2c,0x7f,0x35,0x99,0x2a,0x7f,0x00,
0x99,0x2c,0x7f,0x00,0x99,0x23,0x7f,0x00,0x99,0x21,0x7f,0x00,0x99,0x24,0x7f,0x49,
0x89,0x2c,0x7f,0x2f,0x99,0x2c,0x7f,0x05,0x89,0x2a,0x7f,0x00,0x89,0x23,0x7f,0x00,
0x89,0x21,0x7f,0x00,0x89,0x24,0x7f,0x49,0x89,0x2c,0x7f,0x2a,0x99,0x2a,0x7f,0x00,
0x99,0x28,0x7f,0x00,0x99,0x2c,0x7f,0x00,0x99,0x23,0x7f,0x00,0x99,0x21,0x7f,0x00,
0x99,0x24,0x7f,0x3e,0x89,0x2c,0x7f,0x3a,0x89,0x28,0x7f,0x00,0x89,0x2a,0x7f,0x00,
0x89,0x23,0x7f,0x00,0x89,0x21,0x7f,0x00,0x89,0x24,0x7f,0x00,0x99,0x2c,0x7f,0x43,
0x89,0x2c,0x7f,0x35,0x99,0x2a,0x7f,0x00,0x99,0x2c,0x7f,0x49,0x89,0x2c,0x7f,0x2f,
0x99,0x2c,0x7f,0x05,0x89,0x2a,0x7f,0x49,0x89,0x2c,0x7f,0x2a,0x99,0x2a,0x7f,0x00,
0x99,0x2c,0x7f,0x00,0x99,0x23,0x7f,0x00,0x99,0x21,0x7f,0x00,0x99,0x24,0x7f,0x3e,
0x89,0x2c,0x7f,0x3a,0x89,0x2a,0x7f,0x00,0x89,0x23,0x7f,0x00,0x89,0x21,0x7f,0x00,
0x89,0x24,0x7f,0x00,0x99,0x2c,0x7f,0x43,0x89,0x2c,0x7f,0x35,0x99,0x2a,0x7f,0x00,
0x99,0x2c,0x7f,0x49,0x89,0x2c,0x7f,0x2f,0x99,0x2c,0x7f,0x05,0x89,0x2a,0x7f,0x49,
0x89,0x2c,0x7f,0x2a,0x99,0x2a,0x7f,0x00,0x99,0x28,0x7f,0x00,0x99,0x2c,0x7f,0x00,
0x99,0x23,0x7f,0x00,0x99,0x21,0x7f,0x00,0x99,0x24,0x7f,0x3e,0x89,0x2c,0x7f,0x3a,
0x89,0x28,0x7f,0x00,0x89,0x2a,0x7f,0x00,0x89,0x23,0x7f,0x00,0x89,0x21,0x7f,0x00,
0x89,0x24,0x7f,0x00,0x99,0x2c,0x7f,0x43,0x89,0x2c,0x7f,0x35,0x99,0x2a,0x7f,0x00,
0x99,0x2c,0x7f,0x49,0x89,0x2c,0x7f,0x2f,0x99,0x2c,0x7f,0x05,0x89,0x2a,0x7f,0x49,
0x89,0x2c,0x7f,0x2a,0x99,0x2a,0x7f,0x00,0x99,0x2c,0x7f,0x00,0x99,0x23,0x7f,0x00,
0x99,0x21,0x7f,0x00,0x99,0x24,0x7f,0x3e,0x89,0x2c,0x7f,0x3a,0x99,0x2c,0x7f,0x05,
0x89,0x2a,0x7f,0x00,0x89,0x23,0x7f,0x00,0x89,0x21,0x7f,0x00,0x89,0x24,0x7f,0x3e,
0x89,0x2c,0x7f,0x35,0x99,0x2a,0x7f,0x00,0x99,0x2c,0x7f,0x00,0x99,0x23,0x7f,0x00,
0x99,0x21,0x7f,0x00,0x99,0x24,0x7f,0x49,0x89,0x2c,0x7f,0x2f,0x99,0x2c,0x7f,0x05,
0x89,0x2a,0x7f,0x00,0x89,0x23,0x7f,0x00,0x89,0x21,0x7f,0x00,0x89,0x24,0x7f,0x49,
0x89,0x2c,0x7f,0x2a,0x99,0x2a,0x7f,0x00,0x99,0x28,0x7f,0x00,0x99,0x2c,0x7f,0x00,
0x99,0x23,0x7f,0x00,0x99,0x21,0x7f,0x00,0x99,0x24,0x7f,0x3e,0x89,0x2c,0x7f,0x3a,
0x89,0x28,0x7f,0x00,0x89,0x2a,0x7f,0x00,0x89,0x23,0x7f,0x00,0x89,0x21,0x7f,0x00,
0x89,0x24,0x7f,0x00,0x99,0x2c,0x7f,0x43,0x89,0x2c,0x7f,0x35,0x99,0x2a,0x7f,0x00,
0x99,0x2c,0x7f,0x49,0x89,0x2c,0x7f,0x2f,0x99,0x2c,0x7f,0x05,0x89,0x2a,0x7f,0x49,
0x89,0x2c,0x7f,0x2a,0x99,0x2a,0x7f,0x00,0x99,0x2c,0x7f,0x00,0x99,0x23,0x7f,0x00,
0x99,0x21,0x7f,0x00,0x99,0x24,0x7f,0x3e,0x89,0x2c,0x7f,0x3a,0x89,0x2a,0x7f,0x00,
0x89,0x23,0x7f,0x00,0x89,0x21,0x7f,0x00,0x89,0x24,0x7f,0x00,0x99,0x2c,0x7f,0x43,
0x89,0x2c,0x7f,0x35,0x99,0x2a,0x7f,0x00,0x99,0x2c,0x7f,0x49,0x89,0x2c,0x7f,0x2f,
0x99,0x2c,0x7f,0x05,0x89,0x2a,0x7f,0x49,0x89,0x2c,0x7f,0x2a,0x99,0x2a,0x7f,0x00,
0x99,0x28,0x7f,0x00,0x99,0x2c,0x7f,0x00,0x99,0x23,0x7f,0x00,0x99,0x21,0x7f,0x00,
0x99,0x24,0x7f,0x3e,0x89,0x2c,0x7f,0x3a,0x89,0x28,0x7f,0x00,0x89,0x2a,0x7f,0x00,
0x89,0x23,0x7f,0x00,0x89,0x21,0x7f,0x00,0x89,0x24,0x7f,0x00,0x99,0x2c,0x7f,0x43,
0x89,0x2c,0x7f,0x35,0x99,0x2a,0x7f,0x00,0x99,0x2c,0x7f,0x49,0x89,0x2c,0x7f,0x2f,
0x99,0x2c,0x7f,0x05,0x89,0x2a,0x7f,0x49,0x89,0x2c,0x7f,0x2a,0x99,0x2a,0x7f,0x00,
0x99,0x2c,0x7f,0x00,0x99,0x23,0x7f,0x00,0x99,0x21,0x7f,0x00,0x99,0x24,0x7f,0x3e,
0x89,0x2c,0x7f,0x3a,0x99,0x2c,0x7f,0x05,0x89,0x2a,0x7f,0x00,0x89,0x23,0x7f,0x00,
0x89,0x21,0x7f,0x00,0x89,0x24,0x7f,0x3e,0x89,0x2c,0x7f,0x35,0x99,0x2a,0x7f,0x00,
0x99,0x2c,0x7f,0x00,0x99,0x23,0x7f,0x00,0x99,0x21,0x7f,0x00,0x99,0x24,0x7f,0x49,
0x89,0x2c,0x7f,0x2f,0x99,0x2c,0x7f,0x05,0x89,0x2a,0x7f,0x00,0x89,0x23,0x7f,0x00,
0x89,0x21,0x7f,0x00,0x89,0x24,0x7f,0x49,0x89,0x2c,0x7f,0x2a,0x99,0x2a,0x7f,0x00,
0x99,0x28,0x7f,0x00,0x99,0x2c,0x7f,0x00,0x99,0x23,0x7f,0x00,0x99,0x21,0x7f,0x00,
0x99,0x24,0x7f,0x3e,0x89,0x2c,0x7f,0x3a,0x89,0x28,0x7f,0x00,0x89,0x2a,0x7f,0x00,
0x89,0x23,0x7f,0x00,0x89,0x21,0x7f,0x00,0x89,0x24,0x7f,0x00,0x99,0x2c,0x7f,0x43,
0x89,0x2c,0x7f,0x35,0x99,0x2a,0x7f,0x00,0x99,0x2c,0x7f,0x49,0x89,0x2c,0x7f,0x2f,
0x99,0x2c,0x7f,0x05,0x89,0x2a,0x7f,0x49,0x89,0x2c,0x7f,0x2a,0x99,0x2a,0x7f,0x00,
0x99,0x2c,0x7f,0x00,0x99,0x23,0x7f,0x00,0x99,0x21,0x7f,0x00,0x99,0x24,0x7f,0x3e,
0x89,0x2c,0x7f,0x3a,0x89,0x2a,0x7f,0x00,0x89,0x23,0x7f,0x00,0x89,0x21,0x7f,0x00,
0x89,0x24,0x7f,0x00,0x99,0x2c,0x7f,0x43,0x89,0x2c,0x7f,0x35,0x99,0x2a,0x7f,0x00,
0x99,0x2c,0x7f,0x49,0x89,0x2c,0x7f,0x2f,0x99,0x2c,0x7f,0x05,0x89,0x2a,0x7f,0x49,
0x89,0x2c,0x7f,0x2a,0x99,0x2a,0x7f,0x00,0x99,0x28,0x7f,0x00,0x99,0x2c,0x7f,0x00,
0x99,0x23,0x7f,0x00,0x99,0x21,0x7f,0x00,0x99,0x24,0x7f,0x3e,0x89,0x2c,0x7f,0x3a,
0x89,0x28,0x7f,0x00,0x89,0x2a,0x7f,0x00,0x89,0x23,0x7f,0x00,0x89,0x21,0x7f,0x00,
0x89,0x24,0x7f,0x00,0x99,0x2c,0x7f,0x43,0x89,0x2c,0x7f,0x35,0x99,0x2a,0x7f,0x00,
0x99,0x2c,0x7f,0x49,0x89,0x2c,0x7f,0x2f,0x99,0x2c,0x7f,0x05,0x89,0x2a,0x7f,0x49,
0x89,0x2c,0x7f,0x2a,0x99,0x2a,0x7f,0x00,0x99,0x2c,0x7f,0x00,0x99,0x23,0x7f,0x00,
0x99,0x21,0x7f,0x00,0x99,0x24,0x7f,0x3e,0x89,0x2c,0x7f,0x3a,0x99,0x2c,0x7f,0x05,
0x89,0x2a,0x7f,0x00,0x89,0x23,0x7f,0x00,0x89,0x21,0x7f,0x00,0x89,0x24,0x7f,0x3e,
0x89,0x2c,0x7f,0x35,0x99,0x2a,0x7f,0x00,0x99,0x28,0x7f,0x00,0x99,0x2c,0x7f,0x00,
0x99,0x23,0x7f,0x00,0x99,0x21,0x7f,0x00,0x99,0x24,0x7f,0x49,0x89,0x2c,0x7f,0x2f,
0x99,0x28,0x7f,0x00,0x99,0x2c,0x7f,0x05,0x89,0x28,0x7f,0x00,0x89,0x2a,0x7f,0x00,
0x89,0x23,0x7f,0x00,0x89,0x21,0x7f,0x00,0x89,0x24,0x7f,0x49,0x89,0x2c,0x7f,0x2a,
0x99,0x2a,0x7f,0x00,0x99,0x28,0x7f,0x00,0x99,0x2c,0x7f,0x00,0x99,0x23,0x7f,0x00,
0x99,0x21,0x7f,0x00,0x99,0x24,0x7f,0x06,0x89,0x28,0x7f,0x38,0x89,0x2c,0x7f,0x3a,
0x89,0x2a,0x7f,0x00,0x89,0x28,0x7f,0x00,0x89,0x23,0x7f,0x00,0x89,0x21,0x7f,0x00,
0x89,0x24,0x7f,0x00,0x99,0x2c,0x7f,0x43,0x89,0x2c,0x7f,0x35,0x99,0x2a,0x7f,0x00,
0x99,0x28,0x7f,0x00,0x99,0x2c,0x7f,0x00,0x99,0x23,0x7f,0x00,0x99,0x21,0x7f,0x00,
0x99,0x24,0x7f,0x49,0x89,0x2c,0x7f,0x2f,0x99,0x2c,0x7f,0x05,0x89,0x28,0x7f,0x00,
0x89,0x2a,0x7f,0x00,0x89,0x23,0x7f,0x00,0x89,0x21,0x7f,0x00,0x89,0x24,0x7f,0x49,
0x89,0x2c,0x7f,0x2a,0x99,0x2a,0x7f,0x00,0x99,0x2c,0x7f,0x00,0x99,0x23,0x7f,0x00,
0x99,0x21,0x7f,0x00,0x99,0x24,0x7f,0x00,0x99,0x31,0x7f,0x3e,0x89,0x2c,0x7f,0x3a,
0x89,0x2a,0x7f,0x00,0x89,0x23,0x7f,0x00,0x89,0x21,0x7f,0x00,0x89,0x24,0x7f,0x00,
0x99,0x2c,0x7f,0x43,0x89,0x2c,0x7f,0x2a,0x89,0x31,0x7f,0x0b,0x99,0x2a,0x7f,0x00,
0x99,0x2c,0x7f,0x49,0x89,0x2c,0x7f,0x2f,0x99,0x2c,0x7f,0x05,0x89,0x2a,0x7f,0x49,
0x89,0x2c,0x7f,0x2a,0x99,0x2a,0x7f,0x00,0x99,0x28,0x7f,0x00,0x99,0x2c,0x7f,0x00,
0x99,0x23,0x7f,0x00,0x99,0x21,0x7f,0x00,0x99,0x24,0x7f,0x3e,0x89,0x2c,0x7f,0x3a,
0x89,0x28,0x7f,0x00,0x89,0x2a,0x7f,0x00,0x89,0x23,0x7f,0x00,0x89,0x21,0x7f,0x00,
0x89,0x24,0x7f,0x00,0x99,0x2c,0x7f,0x43,0x89,0x2c,0x7f,0x35,0x99,0x2a,0x7f,0x00,
0x99,0x2c,0x7f,0x49,0x89,0x2c,0x7f,0x2f,0x99,0x2c,0x7f,0x05,0x89,0x2a,0x7f,0x49,
0x89,0x2c,0x7f,0x2a,0x99,0x2a,0x7f,0x00,0x99,0x2c,0x7f,0x00,0x99,0x23,0x7f,0x00,
0x99,0x21,0x7f,0x00,0x99,0x24,0x7f,0x3e,0x89,0x2c,0x7f,0x3a,0x99,0x2c,0x7f,0x05,
0x89,0x2a,0x7f,0x00,0x89,0x23,0x7f,0x00,0x89,0x21,0x7f,0x00,0x89,0x24,0x7f,0x3e,
0x89,0x2c,0x7f,0x35,0x99,0x2a,0x7f,0x00,0x99,0x2c,0x7f,0x00,0x99,0x23,0x7f,0x00,
0x99,0x21,0x7f,0x00,0x99,0x24,0x7f,0x49,0x89,0x2c,0x7f,0x2f,0x99,0x2c,0x7f,0x05,
0x89,0x2a,0x7f,0x00,0x89,0x23,0x7f,0x00,0x89,0x21,0x7f,0x00,0x89,0x24,0x7f,0x49,
0x89,0x2c,0x7f,0x2a,0x99,0x2a,0x7f,0x00,0x99,0x28,0x7f,0x00,0x99,0x2c,0x7f,0x00,
0x99,0x23,0x7f,0x00,0x99,0x21,0x7f,0x00,0x99,0x24,0x7f,0x3e,0x89,0x2c,0x7f,0x3a,
0x89,0x28,0x7f,0x00,0x89,0x2a,0x7f,0x00,0x89,0x23,0x7f,0x00,0x89,0x21,0x7f,0x00,
0x89,0x24,0x7f,0x00,0x99,0x2c,0x7f,0x43,0x89,0x2c,0x7f,0x35,0x99,0x2a,0x7f,0x00,
0x99,0x2c,0x7f,0x49,0x89,0x2c,0x7f,0x2f,0x99,0x2c,0x7f,0x05,0x89,0x2a,0x7f,0x49,
0x89,0x2c,0x7f,0x2a,0x99,0x2a,0x7f,0x00,0x99,0x2c,0x7f,0x00,0x99,0x23,0x7f,0x00,
0x99,0x21,0x7f,0x00,0x99,0x24,0x7f,0x3e,0x89,0x2c,0x7f,0x3a,0x89,0x2a,0x7f,0x00,
0x89,0x23,0x7f,0x00,0x89,0x21,0x7f,0x00,0x89,0x24,0x7f,0x00,0x99,0x2c,0x7f,0x43,
0x89,0x2c,0x7f,0x35,0x99,0x2a,0x7f,0x00,0x99,0x2c,0x7f,0x49,0x89,0x2c,0x7f,0x2f,
0x99,0x2c,0x7f,0x05,0x89,0x2a,0x7f,0x49,0x89,0x2c,0x7f,0x2a,0x99,0x2a,0x7f,0x00,
0x99,0x28,0x7f,0x00,0x99,0x2c,0x7f,0x00,0x99,0x23,0x7f,0x00,0x99,0x21,0x7f,0x00,
0x99,0x24,0x7f,0x3e,0x89,0x2c,0x7f,0x3a,0x89,0x28,0x7f,0x00,0x89,0x2a,0x7f,0x00,
0x89,0x23,0x7f,0x00,0x89,0x21,0x7f,0x00,0x89,0x24,0x7f,0x00,0x99,0x2c,0x7f,0x43,
0x89,0x2c,0x7f,0x35,0x99,0x2a,0x7f,0x00,0x99,0x2c,0x7f,0x49,0x89,0x2c,0x7f,0x2f,
0x99,0x2c,0x7f,0x05,0x89,0x2a,0x7f,0x49,0x89,0x2c,0x7f,0x2a,0x99,0x2a,0x7f,0x00,
0x99,0x2c,0x7f,0x00,0x99,0x23,0x7f,0x00,0x99,0x21,0x7f,0x00,0x99,0x24,0x7f,0x3e,
0x89,0x2c,0x7f,0x3a,0x99,0x2c,0x7f,0x05,0x89,0x2a,0x7f,0x00,0x89,0x23,0x7f,0x00,
0x89,0x21,0x7f,0x00,0x89,0x24,0x7f,0x3e,0x89,0x2c,0x7f,0x35,0x99,0x2a,0x7f,0x00,
0x99,0x2c,0x7f,0x00,0x99,0x23,0x7f,0x00,0x99,0x21,0x7f,0x00,0x99,0x24,0x7f,0x49,
0x89,0x2c,0x7f,0x2f,0x99,0x2c,0x7f,0x05,0x89,0x2a,0x7f,0x00,0x89,0x23,0x7f,0x00,
0x89,0x21,0x7f,0x00,0x89,0x24,0x7f,0x49,0x89,0x2c,0x7f,0x2a,0x99,0x2a,0x7f,0x00,
0x99,0x28,0x7f,0x00,0x99,0x2c,0x7f,0x00,0x99,0x23,0x7f,0x00,0x99,0x21,0x7f,0x00,
0x99,0x24,0x7f,0x3e,0x89,0x2c,0x7f,0x3a,0x89,0x28,0x7f,0x00,0x89,0x2a,0x7f,0x00,
0x89,0x23,0x7f,0x00,0x89,0x21,0x7f,0x00,0x89,0x24,0x7f,0x00,0x99,0x2c,0x7f,0x43,
0x89,0x2c,0x7f,0x35,0x99,0x2a,0x7f,0x00,0x99,0x2c,0x7f,0x49,0x89,0x2c,0x7f,0x2f,
0x99,0x2c,0x7f,0x05,0x89,0x2a,0x7f,0x49,0x89,0x2c,0x7f,0x2a,0x99,0x2a,0x7f,0x00,
0x99,0x2c,0x7f,0x00,0x99,0x23,0x7f,0x00,0x99,0x21,0x7f,0x00,0x99,0x24,0x7f,0x3e,
0x89,0x2c,0x7f,0x3a,0x89,0x2a,0x7f,0x00,0x89,0x23,0x7f,0x00,0x89,0x21,0x7f,0x00,
0x89,0x24,0x7f,0x00,0x99,0x2c,0x7f,0x43,0x89,0x2c,0x7f,0x35,0x99,0x2a,0x7f,0x00,
0x99,0x2c,0x7f,0x49,0x89,0x2c,0x7f,0x2f,0x99,0x2c,0x7f,0x05,0x89,0x2a,0x7f,0x49,
0x89,0x2c,0x7f,0x2a,0x99,0x2a,0x7f,0x00,0x99,0x28,0x7f,0x00,0x99,0x2c,0x7f,0x00,
0x99,0x23,0x7f,0x00,0x99,0x21,0x7f,0x00,0x99,0x24,0x7f,0x3e,0x89,0x2c,0x7f,0x3a,
0x89,0x28,0x7f,0x00,0x89,0x2a,0x7f,0x00,0x89,0x23,0x7f,0x00,0x89,0x21,0x7f,0x00,
0x89,0x24,0x7f,0x00,0x99,0x2c,0x7f,0x43,0x89,0x2c,0x7f,0x35,0x99,0x2a,0x7f,0x00,
0x99,0x2c,0x7f,0x49,0x89,0x2c,0x7f,0x2f,0x99,0x2c,0x7f,0x05,0x89,0x2a,0x7f,0x49,
0x89,0x2c,0x7f,0x2a,0x99,0x2a,0x7f,0x00,0x99,0x2c,0x7f,0x00,0x99,0x23,0x7f,0x00,
0x99,0x21,0x7f,0x00,0x99,0x24,0x7f,0x3e,0x89,0x2c,0x7f,0x3a,0x99,0x2c,0x7f,0x05,
0x89,0x2a,0x7f,0x00,0x89,0x23,0x7f,0x00,0x89,0x21,0x7f,0x00,0x89,0x24,0x7f,0x3e,
0x89,0x2c,0x7f,0x35,0x99,0x2a,0x7f,0x00,0x99,0x2c,0x7f,0x00,0x99,0x23,0x7f,0x00,
0x99,0x21,0x7f,0x00,0x99,0x24,0x7f,0x49,0x89,0x2c,0x7f,0x2f,0x99,0x2c,0x7f,0x05,
0x89,0x2a,0x7f,0x00,0x89,0x23,0x7f,0x00,0x89,0x21,0x7f,0x00,0x89,0x24,0x7f,0x49,
0x89,0x2c,0x7f,0x2a,0x99,0x2a,0x7f,0x00,0x99,0x28,0x7f,0x00,0x99,0x2c,0x7f,0x00,
0x99,0x23,0x7f,0x00,0x99,0x21,0x7f,0x00,0x99,0x24,0x7f,0x3e,0x89,0x2c,0x7f,0x3a,
0x89,0x28,0x7f,0x00,0x89,0x2a,0x7f,0x00,0x89,0x23,0x7f,0x00,0x89,0x21,0x7f,0x00,
0x89,0x24,0x7f,0x00,0x99,0x2c,0x7f,0x43,0x89,0x2c,0x7f,0x35,0x99,0x2a,0x7f,0x00,
0x99,0x2c,0x7f,0x49,0x89,0x2c,0x7f,0x2f,0x99,0x2c,0x7f,0x05,0x89,0x2a,0x7f,0x49,
0x89,0x2c,0x7f,0x2a,0x99,0x2a,0x7f,0x00,0x99,0x2c,0x7f,0x00,0x99,0x23,0x7f,0x00,
0x99,0x21,0x7f,0x00,0x99,0x24,0x7f,0x3e,0x89,0x2c,0x7f,0x3a,0x89,0x2a,0x7f,0x00,
0x89,0x23,0x7f,0x00,0x89,0x21,0x7f,0x00,0x89,0x24,0x7f,0x00,0x99,0x2c,0x7f,0x43,
0x89,0x2c,0x7f,0x35,0x99,0x2a,0x7f,0x00,0x99,0x2c,0x7f,0x49,0x89,0x2c,0x7f,0x2f,
0x99,0x2c,0x7f,0x05,0x89,0x2a,0x7f,0x49,0x89,0x2c,0x7f,0x2a,0x99,0x2a,0x7f,0x00,
0x99,0x28,0x7f,0x00,0x99,0x2c,0x7f,0x00,0x99,0x23,0x7f,0x00,0x99,0x21,0x7f,0x00,
0x99,0x24,0x7f,0x3e,0x89,0x2c,0x7f,0x3a,0x89,0x28,0x7f,0x00,0x89,0x2a,0x7f,0x00,
0x89,0x23,0x7f,0x00,0x89,0x21,0x7f,0x00,0x89,0x24,0x7f,0x00,0x99,0x2c,0x7f,0x43,
0x89,0x2c,0x7f,0x35,0x99,0x2a,0x7f,0x00,0x99,0x2c,0x7f,0x49,0x89,0x2c,0x7f,0x2f,
0x99,0x2c,0x7f,0x05,0x89,0x2a,0x7f,0x49,0x89,0x2c,0x7f,0x2a,0x99,0x2a,0x7f,0x00,
0x99,0x2c,0x7f,0x00,0x99,0x23,0x7f,0x00,0x99,0x21,0x7f,0x00,0x99,0x24,0x7f,0x3e,
0x89,0x2c,0x7f,0x3a,0x99,0x2c,0x7f,0x05,0x89,0x2a,0x7f,0x00,0x89,0x23,0x7f,0x00,
0x89,0x21,0x7f,0x00,0x89,0x24,0x7f,0x3e,0x89,0x2c,0x7f,0x35,0x99,0x2a,0x7f,0x00,
0x99,0x28,0x7f,0x00,0x99,0x2c,0x7f,0x00,0x99,0x23,0x7f,0x00,0x99,0x21,0x7f,0x00,
0x99,0x24,0x7f,0x49,0x89,0x2c,0x7f,0x2f,0x99,0x28,0x7f,0x00,0x99,0x2c,0x7f,0x05,
0x89,0x28,0x7f,0x00,0x89,0x2a,0x7f,0x00,0x89,0x23,0x7f,0x00,0x89,0x21,0x7f,0x00,
0x89,0x24,0x7f,0x49,0x89,0x2c,0x7f,0x2a,0x99,0x2a,0x7f,0x00,0x99,0x28,0x7f,0x00,
0x99,0x2c,0x7f,0x00,0x99,0x23,0x7f,0x00,0x99,0x21,0x7f,0x00,0x99,0x24,0x7f,0x06,
0x89,0x28,0x7f,0x38,0x89,0x2c,0x7f,0x3a,0x89,0x2a,0x7f,0x00,0x89,0x28,0x7f,0x00,
0x89,0x23,0x7f,0x00,0x89,0x21,0x7f,0x00,0x89,0x24,0x7f,0x00,0x99,0x2c,0x7f,0x43,
0x89,0x2c,0x7f,0x35,0x99,0x2a,0x7f,0x00,0x99,0x28,0x7f,0x00,0x99,0x2c,0x7f,0x00,
0x99,0x23,0x7f,0x00,0x99,0x21,0x7f,0x00,0x99,0x24,0x7f,0x49,0x89,0x2c,0x7f,0x2f,
0x99,0x2c,0x7f,0x05,0x89,0x28,0x7f,0x00,0x89,0x2a,0x7f,0x00,0x89,0x23,0x7f,0x00,
0x89,0x21,0x7f,0x00,0x89,0x24,0x7f,0x49,0x89,0x2c,0x7f,0x2a,0x99,0x2a,0x7f,0x00,
0x99,0x2c,0x7f,0x00,0x99,0x23,0x7f,0x00,0x99,0x21,0x7f,0x00,0x99,0x24,0x7f,0x00,
0x99,0x31,0x7f,0x3e,0x89,0x2c,0x7f,0x3a,0x89,0x2a,0x7f,0x00,0x89,0x23,0x7f,0x00,
0x89,0x21,0x7f,0x00,0x89,0x24,0x7f,0x00,0x99,0x2c,0x7f,0x43,0x89,0x2c,0x7f,0x2a,
0x89,0x31,0x7f,0x0b,0x99,0x2a,0x7f,0x00,0x99,0x2c,0x7f,0x49,0x89,0x2c,0x7f,0x2f,
0x99,0x2c,0x7f,0x05,0x89,0x2a,0x7f,0x49,0x89,0x2c,0x7f,0x2a,0x99,0x2a,0x7f,0x00,
0x99,0x28,0x7f,0x00,0x99,0x2c,0x7f,0x00,0x99,0x23,0x7f,0x00,0x99,0x21,0x7f,0x00,
0x99,0x24,0x7f,0x3e,0x89,0x2c,0x7f,0x3a,0x89,0x28,0x7f,0x00,0x89,0x2a,0x7f,0x00,
0x89,0x23,0x7f,0x00,0x89,0x21,0x7f,0x00,0x89,0x24,0x7f,0x00,0x99,0x2c,0x7f,0x43,
0x89,0x2c,0x7f,0x35,0x99,0x2a,0x7f,0x00,0x99,0x2c,0x7f,0x49,0x89,0x2c,0x7f,0x2f,
0x99,0x2c,0x7f,0x05,0x89,0x2a,0x7f,0x49,0x89,0x2c,0x7f,0x2a,0x99,0x2a,0x7f,0x00,
0x99,0x2c,0x7f,0x00,0x99,0x23,0x7f,0x00,0x99,0x21,0x7f,0x00,0x99,0x24,0x7f,0x3e,
0x89,0x2c,0x7f,0x3a,0x99,0x2c,0x7f,0x05,0x89,0x2a,0x7f,0x00,0x89,0x23,0x7f,0x00,
0x89,0x21,0x7f,0x00,0x89,0x24,0x7f,0x3e,0x89,0x2c,0x7f,0x35,0x99,0x2a,0x7f,0x00,
0x99,0x2c,0x7f,0x00,0x99,0x23,0x7f,0x00,0x99,0x21,0x7f,0x00,0x99,0x24,0x7f,0x49,
0x89,0x2c,0x7f,0x2f,0x99,0x2c,0x7f,0x05,0x89,0x2a,0x7f,0x00,0x89,0x23,0x7f,0x00,
0x89,0x21,0x7f,0x00,0x89,0x24,0x7f,0x49,0x89,0x2c,0x7f,0x2a,0x99,0x2a,0x7f,0x00,
0x99,0x28,0x7f,0x00,0x99,0x2c,0x7f,0x00,0x99,0x23,0x7f,0x00,0x99,0x21,0x7f,0x00,
0x99,0x24,0x7f,0x3e,0x89,0x2c,0x7f,0x3a,0x89,0x28,0x7f,0x00,0x89,0x2a,0x7f,0x00,
0x89,0x23,0x7f,0x00,0x89,0x21,0x7f,0x00,0x89,0x24,0x7f,0x00,0x99,0x2c,0x7f,0x43,
0x89,0x2c,0x7f,0x35,0x99,0x2a,0x7f,0x00,0x99,0x2c,0x7f,0x49,0x89,0x2c,0x7f,0x2f,
0x99,0x2c,0x7f,0x05,0x89,0x2a,0x7f,0x49,0x89,0x2c,0x7f,0x2a,0x99,0x2a,0x7f,0x00,
0x99,0x2c,0x7f,0x00,0x99,0x23,0x7f,0x00,0x99,0x21,0x7f,0x00,0x99,0x24,0x7f,0x3e,
0x89,0x2c,0x7f,0x3a,0x89,0x2a,0x7f,0x00,0x89,0x23,0x7f,0x00,0x89,0x21,0x7f,0x00,
0x89,0x24,0x7f,0x00,0x99,0x2c,0x7f,0x43,0x89,0x2c,0x7f,0x35,0x99,0x2a,0x7f,0x00,
0x99,0x2c,0x7f,0x49,0x89,0x2c,0x7f,0x2f,0x99,0x2c,0x7f,0x05,0x89,0x2a,0x7f,0x49,
0x89,0x2c,0x7f,0x2a,0x99,0x2a,0x7f,0x00,0x99,0x28,0x7f,0x00,0x99,0x2c,0x7f,0x00,
0x99,0x23,0x7f,0x00,0x99,0x21,0x7f,0x00,0x99,0x24,0x7f,0x3e,0x89,0x2c,0x7f,0x3a,
0x89,0x28,0x7f,0x00,0x89,0x2a,0x7f,0x00,0x89,0x23,0x7f,0x00,0x89,0x21,0x7f,0x00,
0x89,0x24,0x7f,0x00,0x99,0x2c,0x7f,0x43,0x89,0x2c,0x7f,0x35,0x99,0x2a,0x7f,0x00,
0x99,0x2c,0x7f,0x49,0x89,0x2c,0x7f,0x2f,0x99,0x2c,0x7f,0x05,0x89,0x2a,0x7f,0x49,
0x89,0x2c,0x7f,0x2a,0x99,0x2a,0x7f,0x00,0x99,0x2c,0x7f,0x00,0x99,0x23,0x7f,0x00,
0x99,0x21,0x7f,0x00,0x99,0x24,0x7f,0x3e,0x89,0x2c,0x7f,0x3a,0x99,0x2c,0x7f,0x05,
0x89,0x2a,0x7f,0x00,0x89,0x23,0x7f,0x00,0x89,0x21,0x7f,0x00,0x89,0x24,0x7f,0x3e,
0x89,0x2c,0x7f,0x35,0x99,0x2a,0x7f,0x00,0x99,0x2c,0x7f,0x00,0x99,0x23,0x7f,0x00,
0x99,0x21,0x7f,0x00,0x99,0x24,0x7f,0x49,0x89,0x2c,0x7f,0x2f,0x99,0x2c,0x7f,0x05,
0x89,0x2a,0x7f,0x00,0x89,0x23,0x7f,0x00,0x89,0x21,0x7f,0x00,0x89,0x24,0x7f,0x49,
0x89,0x2c,0x7f,0x2a,0x99,0x2a,0x7f,0x00,0x99,0x28,0x7f,0x00,0x99,0x2c,0x7f,0x00,
0x99,0x23,0x7f,0x00,0x99,0x21,0x7f,0x00,0x99,0x24,0x7f,0x3e,0x89,0x2c,0x7f,0x3a,
0x89,0x28,0x7f,0x00,0x89,0x2a,0x7f,0x00,0x89,0x23,0x7f,0x00,0x89,0x21,0x7f,0x00,
0x89,0x24,0x7f,0x00,0x99,0x2c,0x7f,0x43,0x89,0x2c,0x7f,0x35,0x99,0x2a,0x7f,0x00,
0x99,0x2c,0x7f,0x49,0x89,0x2c,0x7f,0x2f,0x99,0x2c,0x7f,0x05,0x89,0x2a,0x7f,0x49,
0x89,0x2c,0x7f,0x2a,0x99,0x2a,0x7f,0x00,0x99,0x2c,0x7f,0x00,0x99,0x23,0x7f,0x00,
0x99,0x21,0x7f,0x00,0x99,0x24,0x7f,0x00,0x99,0x28,0x7f,0x3e,0x89,0x2c,0x7f,0x3a,
0x89,0x2a,0x7f,0x00,0x89,0x23,0x7f,0x00,0x89,0x21,0x7f,0x00,0x89,0x24,0x7f,0x00,
0x89,0x28,0x7f,0x00,0x99,0x2c,0x7f,0x43,0x89,0x2c,0x7f,0x35,0x99,0x2a,0x7f,0x00,
0x99,0x2c,0x7f,0x49,0x89,0x2c,0x7f,0x2f,0x99,0x2c,0x7f,0x05,0x89,0x2a,0x7f,0x49,
0x89,0x2c,0x7f,0x2a,0x99,0x2a,0x7f,0x00,0x99,0x28,0x7f,0x00,0x99,0x2c,0x7f,0x00,
0x99,0x23,0x7f,0x00,0x99,0x21,0x7f,0x00,0x99,0x24,0x7f,0x3e,0x89,0x2c,0x7f,0x3a,
0x89,0x28,0x7f,0x00,0x89,0x2a,0x7f,0x00,0x89,0x23,0x7f,0x00,0x89,0x21,0x7f,0x00,
0x89,0x24,0x7f,0x00,0x99,0x2c,0x7f,0x43,0x89,0x2c,0x7f,0x35,0x99,0x2a,0x7f,0x00,
0x99,0x2c,0x7f,0x49,0x89,0x2c,0x7f,0x2f,0x99,0x2c,0x7f,0x05,0x89,0x2a,0x7f,0x49,
0x89,0x2c,0x7f,0x2a,0x99,0x2a,0x7f,0x00,0x99,0x2c,0x7f,0x00,0x99,0x23,0x7f,0x00,
0x99,0x21,0x7f,0x00,0x99,0x24,0x7f,0x00,0x99,0x28,0x7f,0x3e,0x89,0x2c,0x7f,0x3a,
0x89,0x28,0x7f,0x00,0x99,0x2c,0x7f,0x05,0x89,0x2a,0x7f,0x00,0x89,0x23,0x7f,0x00,
0x89,0x21,0x7f,0x00,0x89,0x24,0x7f,0x3e,0x89,0x2c,0x7f,0x35,0x99,0x2a,0x7f,0x00,
0x99,0x2c,0x7f,0x00,0x99,0x23,0x7f,0x00,0x99,0x21,0x7f,0x00,0x99,0x24,0x7f,0x00,
0x99,0x28,0x7f,0x49,0x89,0x2c,0x7f,0x2f,0x99,0x2c,0x7f,0x05,0x89,0x2a,0x7f,0x00,
0x89,0x23,0x7f,0x00,0x89,0x21,0x7f,0x00,0x89,0x24,0x7f,0x00,0x89,0x28,0x7f,0x49,
0x89,0x2c,0x7f,0x2a,0x99,0x2a,0x7f,0x00,0x99,0x28,0x7f,0x00,0x99,0x2c,0x7f,0x00,
0x99,0x23,0x7f,0x00,0x99,0x21,0x7f,0x00,0x99,0x24,0x7f,0x00,0x99,0x31,0x7f,0x3e,
0x89,0x2c,0x7f,0x3a,0x89,0x28,0x7f,0x00,0x89,0x2a,0x7f,0x00,0x89,0x23,0x7f,0x00,
0x89,0x21,0x7f,0x00,0x89,0x24,0x7f,0x00,0x99,0x2c,0x7f,0x00,0x99,0x28,0x7f,0x00,
0x99,0x24,0x7f,0x00,0x99,0x23,0x7f,0x00,0x99,0x21,0x7f,0x43,0x89,0x2c,0x7f,0x2a,
0x89,0x31,0x7f,0x0b,0x99,0x2a,0x7f,0x00,0x99,0x2c,0x7f,0x05,0x89,0x28,0x7f,0x00,
0x89,0x24,0x7f,0x00,0x89,0x23,0x7f,0x00,0x89,0x21,0x7f,0x44,0x89,0x2c,0x7f,0x2f,
0x99,0x2c,0x7f,0x05,0x89,0x2a,0x7f,0x49,0x89,0x2c,0x7f,0x2a,0x99,0x2a,0x7f,0x00,
0x99,0x2c,0x7f,0x00,0x99,0x23,0x7f,0x00,0x99,0x21,0x7f,0x00,0x99,0x24,0x7f,0x00,
0x99,0x31,0x7f,0x3e,0x89,0x2c,0x7f,0x3a,0x89,0x2a,0x7f,0x00,0x89,0x23,0x7f,0x00,
0x89,0x21,0x7f,0x00,0x89,0x24,0x7f,0x00,0x99,0x2c,0x7f,0x43,0x89,0x2c,0x7f,0x2a,
0x89,0x31,0x7f,0x0b,0x99,0x2a,0x7f,0x00,0x99,0x2c,0x7f,0x49,0x89,0x2c,0x7f,0x2f,
0x99,0x2c,0x7f,0x05,0x89,0x2a,0x7f,0x49,0x89,0x2c,0x7f,0x2a,0x99,0x2a,0x7f,0x00,
0x99,0x28,0x7f,0x00,0x99,0x2c,0x7f,0x00,0x99,0x23,0x7f,0x00,0x99,0x21,0x7f,0x00,
0x99,0x24,0x7f,0x3e,0x89,0x2c,0x7f,0x3a,0x89,0x28,0x7f,0x00,0x89,0x2a,0x7f,0x00,
0x89,0x23,0x7f,0x00,0x89,0x21,0x7f,0x00,0x89,0x24,0x7f,0x00,0x99,0x2c,0x7f,0x43,
0x89,0x2c,0x7f,0x35,0x99,0x2a,0x7f,0x00,0x99,0x2c,0x7f,0x49,0x89,0x2c,0x7f,0x2f,
0x99,0x2c,0x7f,0x05,0x89,0x2a,0x7f,0x49,0x89,0x2c,0x7f,0x2a,0x99,0x2a,0x7f,0x00,
0x99,0x2c,0x7f,0x00,0x99,0x23,0x7f,0x00,0x99,0x21,0x7f,0x00,0x99,0x24,0x7f,0x00,
0x99,0x28,0x7f,0x3e,0x89,0x2c,0x7f,0x3a,0x99,0x2c,0x7f,0x05,0x89,0x2a,0x7f,0x00,
0x89,0x23,0x7f,0x00,0x89,0x21,0x7f,0x00,0x89,0x24,0x7f,0x00,0x89,0x28,0x7f,0x3e,
0x89,0x2c,0x7f,0x35,0x99,0x2a,0x7f,0x00,0x99,0x2c,0x7f,0x00,0x99,0x23,0x7f,0x00,
0x99,0x21,0x7f,0x00,0x99,0x24,0x7f,0x00,0x99,0x28,0x7f,0x49,0x89,0x2c,0x7f,0x2f,
0x99,0x2c,0x7f,0x05,0x89,0x2a,0x7f,0x00,0x89,0x23,0x7f,0x00,0x89,0x21,0x7f,0x00,
0x89,0x24,0x7f,0x01,0x89,0x28,0x7f,0x48,0x89,0x2c,0x7f,0x2a,0x99,0x2a,0x7f,0x00,
0x99,0x28,0x7f,0x00,0x99,0x2c,0x7f,0x00,0x99,0x23,0x7f,0x00,0x99,0x21,0x7f,0x00,
0x99,0x24,0x7f,0x3e,0x89,0x2c,0x7f,0x3a,0x89,0x28,0x7f,0x00,0x89,0x2a,0x7f,0x00,
0x89,0x23,0x7f,0x00,0x89,0x21,0x7f,0x00,0x89,0x24,0x7f,0x00,0x99,0x2c,0x7f,0x00,
0x99,0x28,0x7f,0x00,0x99,0x24,0x7f,0x00,0x99,0x23,0x7f,0x00,0x99,0x21,0x7f,0x43,
0x89,0x2c,0x7f,0x35,0x99,0x2a,0x7f,0x00,0x99,0x28,0x7f,0x00,0x99,0x2c,0x7f,0x00,
0x99,0x23,0x7f,0x00,0x99,0x21,0x7f,0x00,0x99,0x24,0x7f,0x05,0x89,0x28,0x7f,0x00,
0x89,0x24,0x7f,0x00,0x89,0x23,0x7f,0x00,0x89,0x21,0x7f,0x44,0x89,0x2c,0x7f,0x2f,
0x99,0x2c,0x7f,0x05,0x89,0x2a,0x7f,0x00,0x89,0x28,0x7f,0x00,0x89,0x23,0x7f,0x00,
0x89,0x21,0x7f,0x00,0x89,0x24,0x7f,0x49,0x89,0x2c,0x7f,0x2a,0x99,0x31,0x7f,0x82,
0x62,0x89,0x31,0x7f,0x00,0xff,0x2f,0x00,0x4d,0x54,0x72,0x6b,0x00,0x00,0x00,0x21,
0x00,0xff,0x03,0x14,0x22,0x4d,0x6f,0x6f,0x6e,0x6c,0x69,0x67,0x68,0x74,0x20,0x44,
0x65,0x6e,0x73,0x65,0x74,0x73,0x75,0x22,0x00,0xff,0x21,0x01,0x00,0x00,0xff,0x2f,
0x00,0x4d,0x54,0x72,0x6b,0x00,0x00,0x00,0x32,0x00,0xff,0x03,0x25,0x5b,0x20,0x53,
0x75,0x70,0x65,0x72,0x20,0x53,0x74,0x72,0x65,0x65,0x74,0x20,0x46,0x69,0x67,0x68,
0x74,0x65,0x72,0x20,0x49,0x49,0x20,0x54,0x75,0x72,0x62,0x6f,0x20,0x4d,0x69,0x78,
0x20,0x5d,0x00,0xff,0x21,0x01,0x00,0x00,0xff,0x2f,0x00,0x4d,0x54,0x72,0x6b,0x00,
0x00,0x00,0x1c,0x00,0xff,0x03,0x0f,0x5b,0x20,0x52,0x65,0x6d,0x69,0x78,0x2e,0x20,
0x4e,0x6f,0x2e,0x31,0x20,0x5d,0x00,0xff,0x21,0x01,0x00,0x00,0xff,0x2f,0x00,0x4d,
0x54,0x72,0x6b,0x00,0x00,0x00,0x20,0x00,0xff,0x03,0x13,0x54,0x69,0x74,0x6c,0x65,
0x20,0x53,0x63,0x72,0x65,0x65,0x6e,0x20,0x54,0x68,0x65,0x6d,0x65,0x20,0x00,0xff,
0x21,0x01,0x00,0x00,0xff,0x2f,0x00,0x4d,0x54,0x72,0x6b,0x00,0x00,0x00,0x2a,0x00,
0xff,0x03,0x1d,0x53,0x61,0x69,0x6c,0x6f,0x72,0x20,0x4d,0x6f,0x6f,0x6e,0x20,0x53,
0x75,0x70,0x65,0x72,0x20,0x53,0x20,0x46,0x69,0x67,0x68,0x74,0x69,0x6e,0x67,0x20,
0x00,0xff,0x21,0x01,0x00,0x00,0xff,0x2f,0x00,0x4d,0x54,0x72,0x6b,0x00,0x00,0x00,
0x21,0x00,0xff,0x03,0x14,0x53,0x75,0x70,0x65,0x72,0x20,0x46,0x61,0x6d,0x69,0x63,
0x6f,0x6d,0x20,0x53,0x79,0x73,0x74,0x65,0x6d,0x00,0xff,0x21,0x01,0x00,0x00,0xff,
0x2f,0x00,0x4d,0x54,0x72,0x6b,0x00,0x00,0x00,0x35,0x00,0xff,0x03,0x28,0x4f,0x72,
0x69,0x67,0x69,0x6e,0x61,0x6c,0x20,0x53,0x6f,0x6e,0x67,0x20,0x43,0x6f,0x6d,0x70,
0x6f,0x73,0x65,0x64,0x20,0x62,0x79,0x20,0x41,0x6e,0x67,0x65,0x6c,0x20,0x6f,0x66,
0x20,0x4a,0x61,0x70,0x61,0x6e,0x00,0xff,0x21,0x01,0x00,0x00,0xff,0x2f,0x00,0x4d,
0x54,0x72,0x6b,0x00,0x00,0x00,0x36,0x00,0xff,0x03,0x29,0x41,0x72,0x72,0x61,0x6e,
0x67,0x65,0x64,0x20,0x61,0x6e,0x64,0x20,0x53,0x65,0x71,0x75,0x65,0x6e,0x63,0x65,
0x64,0x20,0x74,0x6f,0x20,0x4d,0x49,0x44,0x49,0x20,0x62,0x79,0x20,0x54,0x73,0x75,
0x20,0x52,0x79,0x75,0x00,0xff,0x21,0x01,0x00,0x00,0xff,0x2f,0x00,0x4d,0x54,0x72,
0x6b,0x00,0x00,0x00,0x2a,0x00,0xff,0x03,0x1d,0x45,0x6d,0x61,0x69,0x6c,0x2c,0x20,
0x74,0x73,0x75,0x5f,0x72,0x79,0x75,0x40,0x73,0x61,0x69,0x6c,0x6f,0x72,0x6d,0x6f,
0x6f,0x6e,0x2e,0x63,0x6f,0x6d,0x00,0xff,0x21,0x01,0x00,0x00,0xff,0x2f,0x00,0x4d,
0x54,0x72,0x6b,0x00,0x00,0x00,0x27,0x00,0xff,0x03,0x1a,0x54,0x68,0x65,0x4a,0x75,
0x70,0x69,0x74,0x65,0x72,0x46,0x61,0x6e,0x40,0x43,0x68,0x69,0x62,0x69,0x55,0x53,
0x41,0x2e,0x6f,0x72,0x67,0x00,0xff,0x21,0x01,0x00,0x00,0xff,0x2f,0x00,
};
