#include <stdint.h>
const uint8_t SWmidifile[] = {
        0x4d,0x54,0x68,0x64,0x00,0x00,0x00,0x06,0x00,0x01,0x00,0x03,0x04,0x00,0x4d,0x54,
        0x72,0x6b,0x00,0x00,0x00,0x1b,0x00,0xff,0x58,0x04,0x03,0x02,0x18,0x08,0x00,0xff,
        0x59,0x02,0x00,0x00,0x00,0xff,0x51,0x03,0x07,0xa1,0x20,0x85,0xfe,0x00,0xff,0x2f,
        0x00,0x4d,0x54,0x72,0x6b,0x00,0x00,0x06,0x04,0x00,0xff,0x03,0x14,0x41,0x63,0x6f,
        0x75,0x73,0x74,0x69,0x63,0x20,0x47,0x72,0x61,0x6e,0x64,0x20,0x50,0x69,0x61,0x6e,
        0x6f,0x00,0xc0,0x00,0x00,0xb0,0x0a,0x40,0x00,0xb0,0x07,0x7f,0x00,0x90,0x45,0x6e,
        0x83,0x75,0x80,0x45,0x00,0x0b,0x90,0x49,0x6e,0x83,0x75,0x80,0x49,0x00,0x0b,0x90,
        0x4e,0x6e,0x83,0x75,0x80,0x4e,0x00,0x0b,0x90,0x49,0x6e,0x83,0x75,0x80,0x49,0x00,
        0x0b,0x90,0x44,0x6e,0x83,0x75,0x80,0x44,0x00,0x0b,0x90,0x49,0x6e,0x83,0x75,0x80,
        0x49,0x00,0x0b,0x90,0x45,0x6e,0x83,0x75,0x80,0x45,0x00,0x0b,0x90,0x49,0x6e,0x83,
        0x75,0x80,0x49,0x00,0x0b,0x90,0x42,0x6e,0x83,0x75,0x80,0x42,0x00,0x0b,0x90,0x49,
        0x6e,0x83,0x75,0x80,0x49,0x00,0x0b,0x90,0x41,0x6e,0x83,0x75,0x80,0x41,0x00,0x0b,
        0x90,0x49,0x6e,0x83,0x75,0x80,0x49,0x00,0x0b,0x90,0x45,0x6e,0x83,0x75,0x80,0x45,
        0x00,0x0b,0x90,0x49,0x6e,0x83,0x75,0x80,0x49,0x00,0x0b,0x90,0x4e,0x6e,0x83,0x75,
        0x80,0x4e,0x00,0x0b,0x90,0x49,0x6e,0x83,0x75,0x80,0x49,0x00,0x0b,0x90,0x44,0x6e,
        0x83,0x75,0x80,0x44,0x00,0x0b,0x90,0x49,0x6e,0x83,0x75,0x80,0x49,0x00,0x0b,0x90,
        0x45,0x6e,0x83,0x75,0x80,0x45,0x00,0x0b,0x90,0x49,0x6e,0x83,0x75,0x80,0x49,0x00,
        0x0b,0x90,0x42,0x6e,0x83,0x75,0x80,0x42,0x00,0x0b,0x90,0x49,0x6e,0x83,0x75,0x80,
        0x49,0x00,0x0b,0x90,0x41,0x6e,0x83,0x75,0x80,0x41,0x00,0x0b,0x90,0x49,0x6e,0x83,
        0x75,0x80,0x49,0x00,0x0b,0x90,0x45,0x6e,0x83,0x75,0x80,0x45,0x00,0x0b,0x90,0x49,
        0x6e,0x83,0x75,0x80,0x49,0x00,0x0b,0x90,0x45,0x6e,0x83,0x75,0x80,0x45,0x00,0x0b,
        0x90,0x42,0x6e,0x83,0x75,0x80,0x42,0x00,0x0b,0x90,0x4a,0x6e,0x83,0x75,0x80,0x4a,
        0x00,0x0b,0x90,0x47,0x6e,0x83,0x75,0x80,0x47,0x00,0x0b,0x90,0x44,0x6e,0x83,0x75,
        0x80,0x44,0x00,0x0b,0x90,0x47,0x6e,0x83,0x75,0x80,0x47,0x00,0x0b,0x90,0x44,0x6e,
        0x83,0x75,0x80,0x44,0x00,0x0b,0x90,0x40,0x6e,0x83,0x75,0x80,0x40,0x00,0x0b,0x90,
        0x49,0x6e,0x83,0x75,0x80,0x49,0x00,0x0b,0x90,0x45,0x6e,0x83,0x75,0x80,0x45,0x00,
        0x0b,0x90,0x42,0x6e,0x83,0x75,0x80,0x42,0x00,0x0b,0x90,0x49,0x6e,0x83,0x75,0x80,
        0x49,0x00,0x0b,0x90,0x47,0x6e,0x83,0x75,0x80,0x47,0x00,0x0b,0x90,0x45,0x6e,0x83,
        0x75,0x80,0x45,0x00,0x0b,0x90,0x44,0x6e,0x83,0x75,0x80,0x44,0x00,0x0b,0x90,0x42,
        0x6e,0x83,0x75,0x80,0x42,0x00,0x0b,0x90,0x41,0x6e,0x83,0x75,0x80,0x41,0x00,0x0b,
        0x90,0x3d,0x6e,0x83,0x75,0x80,0x3d,0x00,0x0b,0x90,0x41,0x6e,0x83,0x75,0x80,0x41,
        0x00,0x0b,0x90,0x44,0x6e,0x83,0x75,0x80,0x44,0x00,0x0b,0x90,0x49,0x6e,0x83,0x75,
        0x80,0x49,0x00,0x0b,0x90,0x47,0x6e,0x83,0x75,0x80,0x47,0x00,0x0b,0x90,0x45,0x6e,
        0x83,0x75,0x80,0x45,0x00,0x0b,0x90,0x49,0x6e,0x83,0x75,0x80,0x49,0x00,0x0b,0x90,
        0x4e,0x6e,0x83,0x75,0x80,0x4e,0x00,0x0b,0x90,0x49,0x6e,0x83,0x75,0x80,0x49,0x00,
        0x0b,0x90,0x44,0x6e,0x83,0x75,0x80,0x44,0x00,0x0b,0x90,0x49,0x6e,0x83,0x75,0x80,
        0x49,0x00,0x0b,0x90,0x45,0x6e,0x83,0x75,0x80,0x45,0x00,0x0b,0x90,0x49,0x6e,0x83,
        0x75,0x80,0x49,0x00,0x0b,0x90,0x42,0x6e,0x83,0x75,0x80,0x42,0x00,0x0b,0x90,0x49,
        0x6e,0x83,0x75,0x80,0x49,0x00,0x0b,0x90,0x41,0x6e,0x83,0x75,0x80,0x41,0x00,0x0b,
        0x90,0x49,0x6e,0x83,0x75,0x80,0x49,0x00,0x0b,0x90,0x45,0x6e,0x83,0x75,0x80,0x45,
        0x00,0x0b,0x90,0x49,0x6e,0x83,0x75,0x80,0x49,0x00,0x0b,0x90,0x4e,0x6e,0x83,0x75,
        0x80,0x4e,0x00,0x0b,0x90,0x49,0x6e,0x83,0x75,0x80,0x49,0x00,0x0b,0x90,0x44,0x6e,
        0x83,0x75,0x80,0x44,0x00,0x0b,0x90,0x49,0x6e,0x83,0x75,0x80,0x49,0x00,0x0b,0x90,
        0x45,0x6e,0x83,0x75,0x80,0x45,0x00,0x0b,0x90,0x49,0x6e,0x83,0x75,0x80,0x49,0x00,
        0x0b,0x90,0x42,0x6e,0x83,0x75,0x80,0x42,0x00,0x0b,0x90,0x49,0x6e,0x83,0x75,0x80,
        0x49,0x00,0x0b,0x90,0x41,0x6e,0x83,0x75,0x80,0x41,0x00,0x0b,0x90,0x49,0x6e,0x83,
        0x75,0x80,0x49,0x00,0x0b,0x90,0x45,0x6e,0x83,0x75,0x80,0x45,0x00,0x0b,0x90,0x49,
        0x6e,0x83,0x75,0x80,0x49,0x00,0x0b,0x90,0x45,0x6e,0x83,0x75,0x80,0x45,0x00,0x0b,
        0x90,0x42,0x6e,0x83,0x75,0x80,0x42,0x00,0x0b,0x90,0x4a,0x6e,0x83,0x75,0x80,0x4a,
        0x00,0x0b,0x90,0x47,0x6e,0x83,0x75,0x80,0x47,0x00,0x0b,0x90,0x44,0x6e,0x83,0x75,
        0x80,0x44,0x00,0x0b,0x90,0x47,0x6e,0x83,0x75,0x80,0x47,0x00,0x0b,0x90,0x44,0x6e,
        0x83,0x75,0x80,0x44,0x00,0x0b,0x90,0x40,0x6e,0x83,0x75,0x80,0x40,0x00,0x0b,0x90,
        0x4c,0x6e,0x83,0x75,0x80,0x4c,0x00,0x0b,0x90,0x47,0x6e,0x83,0x75,0x80,0x47,0x00,
        0x0b,0x90,0x49,0x6e,0x83,0x75,0x80,0x49,0x00,0x0b,0x90,0x4c,0x6e,0x83,0x75,0x80,
        0x4c,0x00,0x0b,0x90,0x49,0x6e,0x83,0x75,0x80,0x49,0x00,0x0b,0x90,0x45,0x6e,0x83,
        0x75,0x80,0x45,0x00,0x0b,0x90,0x40,0x6e,0x83,0x75,0x80,0x40,0x00,0x0b,0x90,0x44,
        0x6e,0x83,0x75,0x80,0x44,0x00,0x0b,0x90,0x45,0x6e,0x96,0x00,0x80,0x45,0x00,0x82,
        0x00,0x90,0x4c,0x6e,0x83,0x75,0x80,0x4c,0x00,0x0b,0x90,0x4a,0x6e,0x83,0x75,0x80,
        0x4a,0x00,0x0b,0x90,0x49,0x6e,0x83,0x75,0x80,0x49,0x00,0x0b,0x90,0x47,0x6e,0x83,
        0x75,0x80,0x47,0x00,0x0b,0x90,0x45,0x6e,0x83,0x75,0x80,0x45,0x00,0x0b,0x90,0x44,
        0x6e,0x83,0x75,0x80,0x44,0x00,0x0b,0x90,0x45,0x6e,0x83,0x75,0x80,0x45,0x00,0x0b,
        0x90,0x47,0x6e,0x83,0x75,0x80,0x47,0x00,0x0b,0x90,0x49,0x6e,0x83,0x75,0x80,0x49,
        0x00,0x0b,0x90,0x45,0x6e,0x83,0x75,0x80,0x45,0x00,0x0b,0x90,0x47,0x6e,0x83,0x75,
        0x80,0x47,0x00,0x0b,0x90,0x4a,0x6e,0x83,0x75,0x80,0x4a,0x00,0x0b,0x90,0x49,0x6e,
        0x83,0x75,0x80,0x49,0x00,0x0b,0x90,0x4a,0x6e,0x83,0x75,0x80,0x4a,0x00,0x0b,0x90,
        0x4c,0x6e,0x86,0x55,0x80,0x4c,0x00,0x81,0x2b,0x90,0x44,0x6e,0x86,0x55,0x80,0x44,
        0x00,0x81,0x2b,0x90,0x45,0x6e,0x83,0x75,0x80,0x45,0x00,0x0b,0x90,0x47,0x6e,0x83,
        0x75,0x80,0x47,0x00,0x0b,0x90,0x49,0x6e,0x86,0x55,0x80,0x49,0x00,0x81,0x2b,0x90,
        0x47,0x6e,0x86,0x55,0x80,0x47,0x00,0x81,0x2b,0x90,0x49,0x6e,0x86,0x55,0x80,0x49,
        0x00,0x81,0x2b,0x90,0x4e,0x6e,0x86,0x55,0x80,0x4e,0x00,0x81,0x2b,0x90,0x4b,0x6e,
        0x86,0x55,0x80,0x4b,0x00,0x81,0x2b,0x90,0x4e,0x6e,0x83,0x75,0x80,0x4e,0x00,0x0b,
        0x90,0x50,0x6e,0x83,0x75,0x80,0x50,0x00,0x0b,0x90,0x51,0x6e,0x86,0x55,0x80,0x51,
        0x00,0x81,0x2b,0x90,0x50,0x6e,0x86,0x55,0x80,0x50,0x00,0x81,0x2b,0x90,0x4e,0x6e,
        0x83,0x75,0x80,0x4e,0x00,0x0b,0x90,0x4c,0x6e,0x83,0x75,0x80,0x4c,0x00,0x0b,0x90,
        0x4b,0x6e,0x83,0x75,0x80,0x4b,0x00,0x0b,0x90,0x49,0x6e,0x83,0x75,0x80,0x49,0x00,
        0x0b,0x90,0x4b,0x6e,0x83,0x75,0x80,0x4b,0x00,0x0b,0x90,0x48,0x6e,0x83,0x75,0x80,
        0x48,0x00,0x0b,0x90,0x49,0x6e,0x96,0x00,0x80,0x49,0x00,0x82,0x00,0x90,0x4c,0x6e,
        0x8a,0x55,0x80,0x4c,0x00,0x81,0x2b,0x90,0x4e,0x6e,0x81,0x75,0x80,0x4e,0x00,0x0b,
        0x90,0x4f,0x6e,0x81,0x75,0x80,0x4f,0x00,0x0b,0x90,0x4e,0x6e,0x86,0x55,0x80,0x4e,
        0x00,0x81,0x2b,0x90,0x4c,0x6e,0x83,0x75,0x80,0x4c,0x00,0x0b,0x90,0x4a,0x6e,0x83,
        0x75,0x80,0x4a,0x00,0x0b,0x90,0x4c,0x6e,0x83,0x75,0x80,0x4c,0x00,0x0b,0x90,0x49,
        0x6e,0x83,0x75,0x80,0x49,0x00,0x0b,0x90,0x4a,0x6e,0x83,0x75,0x80,0x4a,0x00,0x0b,
        0x90,0x47,0x6e,0x83,0x75,0x80,0x47,0x00,0x0b,0x90,0x4e,0x6e,0x8a,0x55,0x80,0x4e,
        0x00,0x81,0x2b,0x90,0x50,0x6e,0x81,0x75,0x80,0x50,0x00,0x0b,0x90,0x51,0x6e,0x81,
        0x75,0x80,0x51,0x00,0x0b,0x90,0x50,0x6e,0x86,0x55,0x80,0x50,0x00,0x81,0x2b,0x90,
        0x4e,0x6e,0x83,0x75,0x80,0x4e,0x00,0x0b,0x90,0x4d,0x6e,0x83,0x75,0x80,0x4d,0x00,
        0x0b,0x90,0x4e,0x6e,0x83,0x75,0x80,0x4e,0x00,0x0b,0x90,0x4b,0x6e,0x83,0x75,0x80,
        0x4b,0x00,0x0b,0x90,0x4d,0x6e,0x83,0x75,0x80,0x4d,0x00,0x0b,0x90,0x49,0x6e,0x83,
        0x75,0x80,0x49,0x00,0x0b,0x90,0x50,0x6e,0x83,0x75,0x80,0x50,0x00,0x0b,0x90,0x4d,
        0x6e,0x83,0x75,0x80,0x4d,0x00,0x0b,0x90,0x49,0x6e,0x83,0x75,0x80,0x49,0x00,0x0b,
        0x90,0x4d,0x6e,0x83,0x75,0x80,0x4d,0x00,0x0b,0x90,0x50,0x6e,0x83,0x75,0x80,0x50,
        0x00,0x0b,0x90,0x53,0x6e,0x83,0x75,0x80,0x53,0x00,0x0b,0x90,0x56,0x6e,0x83,0x75,
        0x80,0x56,0x00,0x0b,0x90,0x4d,0x6e,0x83,0x75,0x80,0x4d,0x00,0x0b,0x90,0x55,0x6e,
        0x83,0x75,0x80,0x55,0x00,0x0b,0x90,0x4d,0x6e,0x83,0x75,0x80,0x4d,0x00,0x0b,0x90,
        0x53,0x6e,0x83,0x75,0x80,0x53,0x00,0x0b,0x90,0x4d,0x6e,0x83,0x75,0x80,0x4d,0x00,
        0x0b,0x90,0x51,0x6e,0x86,0x55,0x80,0x51,0x00,0x81,0x2b,0x90,0x53,0x6e,0x83,0x75,
        0x80,0x53,0x00,0x0b,0x90,0x51,0x6e,0x83,0x75,0x80,0x51,0x00,0x0b,0x90,0x50,0x6e,
        0x83,0x75,0x80,0x50,0x00,0x0b,0x90,0x51,0x6e,0x83,0x75,0x80,0x51,0x00,0x0b,0x90,
        0x4e,0x6e,0x75,0x80,0x4e,0x00,0x0b,0x90,0x50,0x6e,0x81,0x00,0x90,0x4e,0x6e,0x86,
        0x20,0x80,0x50,0x00,0x8d,0x60,0x80,0x4e,0x00,0x00,0xff,0x2f,0x00,0x4d,0x54,0x72,
        0x6b,0x00,0x00,0x04,0x9a,0x00,0xff,0x03,0x14,0x41,0x63,0x6f,0x75,0x73,0x74,0x69,
        0x63,0x20,0x47,0x72,0x61,0x6e,0x64,0x20,0x50,0x69,0x61,0x6e,0x6f,0x00,0xc1,0x00,
        0x00,0xb1,0x0a,0x40,0x00,0xb1,0x07,0x7f,0x00,0x91,0x36,0x6e,0x86,0x55,0x81,0x36,
        0x00,0x81,0x2b,0x91,0x42,0x6e,0x86,0x55,0x81,0x42,0x00,0x81,0x2b,0x91,0x41,0x6e,
        0x86,0x55,0x81,0x41,0x00,0x81,0x2b,0x91,0x36,0x6e,0x86,0x55,0x81,0x36,0x00,0x81,
        0x2b,0x91,0x38,0x6e,0x86,0x55,0x81,0x38,0x00,0x81,0x2b,0x91,0x3d,0x6e,0x86,0x55,
        0x81,0x3d,0x00,0x81,0x2b,0x91,0x42,0x6e,0x86,0x55,0x81,0x42,0x00,0x81,0x2b,0x91,
        0x3e,0x6e,0x86,0x55,0x81,0x3e,0x00,0x81,0x2b,0x91,0x3d,0x6e,0x86,0x55,0x81,0x3d,
        0x00,0x81,0x2b,0x91,0x42,0x6e,0x86,0x55,0x81,0x42,0x00,0x81,0x2b,0x91,0x38,0x6e,
        0x86,0x55,0x81,0x38,0x00,0x81,0x2b,0x91,0x3d,0x6e,0x86,0x55,0x81,0x3d,0x00,0x81,
        0x2b,0x91,0x36,0x6e,0x86,0x55,0x81,0x36,0x00,0x81,0x2b,0x91,0x42,0x6e,0x86,0x55,
        0x81,0x42,0x00,0x81,0x2b,0x91,0x3b,0x6e,0x86,0x55,0x81,0x3b,0x00,0x81,0x2b,0x91,
        0x34,0x6e,0x86,0x55,0x81,0x34,0x00,0x81,0x2b,0x91,0x40,0x6e,0x86,0x55,0x81,0x40,
        0x00,0x81,0x2b,0x91,0x39,0x6e,0x86,0x55,0x81,0x39,0x00,0x81,0x2b,0x91,0x32,0x6e,
        0x86,0x55,0x81,0x32,0x00,0x81,0x2b,0x91,0x3e,0x6e,0x86,0x55,0x81,0x3e,0x00,0x81,
        0x2b,0x91,0x3b,0x6e,0x86,0x55,0x81,0x3b,0x00,0x81,0x2b,0x91,0x3d,0x6e,0x83,0x75,
        0x81,0x3d,0x00,0x0b,0x91,0x3e,0x6e,0x83,0x75,0x81,0x3e,0x00,0x0b,0x91,0x3d,0x6e,
        0x83,0x75,0x81,0x3d,0x00,0x0b,0x91,0x3b,0x6e,0x83,0x75,0x81,0x3b,0x00,0x0b,0x91,
        0x39,0x6e,0x83,0x75,0x81,0x39,0x00,0x0b,0x91,0x38,0x6e,0x83,0x75,0x81,0x38,0x00,
        0x0b,0x91,0x36,0x6e,0x86,0x55,0x81,0x36,0x00,0x81,0x2b,0x91,0x42,0x6e,0x86,0x55,
        0x81,0x42,0x00,0x81,0x2b,0x91,0x41,0x6e,0x86,0x55,0x81,0x41,0x00,0x81,0x2b,0x91,
        0x36,0x6e,0x86,0x55,0x81,0x36,0x00,0x81,0x2b,0x91,0x38,0x6e,0x86,0x55,0x81,0x38,
        0x00,0x81,0x2b,0x91,0x3d,0x6e,0x86,0x55,0x81,0x3d,0x00,0x81,0x2b,0x91,0x42,0x6e,
        0x86,0x55,0x81,0x42,0x00,0x81,0x2b,0x91,0x3e,0x6e,0x86,0x55,0x81,0x3e,0x00,0x81,
        0x2b,0x91,0x3d,0x6e,0x86,0x55,0x81,0x3d,0x00,0x81,0x2b,0x91,0x42,0x6e,0x86,0x55,
        0x81,0x42,0x00,0x81,0x2b,0x91,0x38,0x6e,0x86,0x55,0x81,0x38,0x00,0x81,0x2b,0x91,
        0x3d,0x6e,0x86,0x55,0x81,0x3d,0x00,0x81,0x2b,0x91,0x36,0x6e,0x86,0x55,0x81,0x36,
        0x00,0x81,0x2b,0x91,0x42,0x6e,0x86,0x55,0x81,0x42,0x00,0x81,0x2b,0x91,0x3b,0x6e,
        0x86,0x55,0x81,0x3b,0x00,0x81,0x2b,0x91,0x34,0x6e,0x86,0x55,0x81,0x34,0x00,0x81,
        0x2b,0x91,0x40,0x6e,0x86,0x55,0x81,0x40,0x00,0x81,0x2b,0x91,0x38,0x6e,0x86,0x55,
        0x81,0x38,0x00,0x81,0x2b,0x91,0x39,0x6e,0x86,0x55,0x81,0x39,0x00,0x81,0x2b,0x91,
        0x3d,0x6e,0x86,0x55,0x81,0x3d,0x00,0x81,0x2b,0x91,0x3d,0x6e,0x86,0x55,0x81,0x3d,
        0x00,0x81,0x2b,0x91,0x39,0x6e,0x86,0x55,0x81,0x39,0x00,0x81,0x2b,0x91,0x34,0x6e,
        0x86,0x55,0x81,0x34,0x00,0x81,0x2b,0x91,0x2d,0x6e,0x86,0x55,0x81,0x2d,0x00,0x81,
        0x2b,0x91,0x3d,0x6e,0x83,0x75,0x81,0x3d,0x00,0x0b,0x91,0x40,0x6e,0x83,0x75,0x81,
        0x40,0x00,0x0b,0x91,0x45,0x6e,0x83,0x75,0x81,0x45,0x00,0x0b,0x91,0x40,0x6e,0x83,
        0x75,0x81,0x40,0x00,0x0b,0x91,0x3b,0x6e,0x83,0x75,0x81,0x3b,0x00,0x0b,0x91,0x40,
        0x6e,0x83,0x75,0x81,0x40,0x00,0x0b,0x91,0x3d,0x6e,0x83,0x75,0x81,0x3d,0x00,0x0b,
        0x91,0x40,0x6e,0x83,0x75,0x81,0x40,0x00,0x0b,0x91,0x39,0x6e,0x83,0x75,0x81,0x39,
        0x00,0x0b,0x91,0x40,0x6e,0x83,0x75,0x81,0x40,0x00,0x0b,0x91,0x38,0x6e,0x83,0x75,
        0x81,0x38,0x00,0x0b,0x91,0x40,0x6e,0x83,0x75,0x81,0x40,0x00,0x0b,0x91,0x39,0x6e,
        0x83,0x75,0x81,0x39,0x00,0x0b,0x91,0x40,0x6e,0x83,0x75,0x81,0x40,0x00,0x0b,0x91,
        0x45,0x6e,0x83,0x75,0x81,0x45,0x00,0x0b,0x91,0x40,0x6e,0x83,0x75,0x81,0x40,0x00,
        0x0b,0x91,0x3b,0x6e,0x83,0x75,0x81,0x3b,0x00,0x0b,0x91,0x40,0x6e,0x83,0x75,0x81,
        0x40,0x00,0x0b,0x91,0x3d,0x6e,0x83,0x75,0x81,0x3d,0x00,0x0b,0x91,0x40,0x6e,0x83,
        0x75,0x81,0x40,0x00,0x0b,0x91,0x39,0x6e,0x83,0x75,0x81,0x39,0x00,0x0b,0x91,0x40,
        0x6e,0x83,0x75,0x81,0x40,0x00,0x0b,0x91,0x38,0x6e,0x83,0x75,0x81,0x38,0x00,0x0b,
        0x91,0x40,0x6e,0x83,0x75,0x81,0x40,0x00,0x0b,0x91,0x3d,0x6e,0x83,0x75,0x81,0x3d,
        0x00,0x0b,0x91,0x40,0x6e,0x83,0x75,0x81,0x40,0x00,0x0b,0x91,0x3d,0x6e,0x83,0x75,
        0x81,0x3d,0x00,0x0b,0x91,0x39,0x6e,0x83,0x75,0x81,0x39,0x00,0x0b,0x91,0x42,0x6e,
        0x83,0x75,0x81,0x42,0x00,0x0b,0x91,0x3f,0x6e,0x83,0x75,0x81,0x3f,0x00,0x0b,0x91,
        0x3c,0x6e,0x83,0x75,0x81,0x3c,0x00,0x0b,0x91,0x3f,0x6e,0x83,0x75,0x81,0x3f,0x00,
        0x0b,0x91,0x38,0x6e,0x83,0x75,0x81,0x38,0x00,0x0b,0x91,0x3f,0x6e,0x83,0x75,0x81,
        0x3f,0x00,0x0b,0x91,0x3c,0x6e,0x83,0x75,0x81,0x3c,0x00,0x0b,0x91,0x3f,0x6e,0x83,
        0x75,0x81,0x3f,0x00,0x0b,0x91,0x3d,0x6e,0x86,0x55,0x81,0x3d,0x00,0x81,0x2b,0x91,
        0x44,0x6e,0x86,0x55,0x81,0x44,0x00,0x81,0x2b,0x91,0x38,0x6e,0x86,0x55,0x81,0x38,
        0x00,0x81,0x2b,0x91,0x3d,0x6e,0x83,0x75,0x81,0x3d,0x00,0x0b,0x91,0x40,0x6e,0x83,
        0x75,0x81,0x40,0x00,0x0b,0x91,0x44,0x6e,0x83,0x75,0x81,0x44,0x00,0x0b,0x91,0x40,
        0x6e,0x83,0x75,0x81,0x40,0x00,0x0b,0x91,0x3b,0x6e,0x83,0x75,0x81,0x3b,0x00,0x0b,
        0x91,0x40,0x6e,0x83,0x75,0x81,0x40,0x00,0x0b,0x91,0x3a,0x6e,0x83,0x75,0x81,0x3a,
        0x00,0x0b,0x91,0x3d,0x6e,0x83,0x75,0x81,0x3d,0x00,0x0b,0x91,0x36,0x6e,0x83,0x75,
        0x81,0x36,0x00,0x0b,0x91,0x3d,0x6e,0x83,0x75,0x81,0x3d,0x00,0x0b,0x91,0x3a,0x6e,
        0x83,0x75,0x81,0x3a,0x00,0x0b,0x91,0x3d,0x6e,0x83,0x75,0x81,0x3d,0x00,0x0b,0x91,
        0x3b,0x6e,0x86,0x55,0x81,0x3b,0x00,0x91,0x2b,0x91,0x3c,0x6e,0x83,0x75,0x81,0x3c,
        0x00,0x0b,0x91,0x3f,0x6e,0x83,0x75,0x81,0x3f,0x00,0x0b,0x91,0x38,0x6e,0x83,0x75,
        0x81,0x38,0x00,0x0b,0x91,0x3f,0x6e,0x83,0x75,0x81,0x3f,0x00,0x0b,0x91,0x3c,0x6e,
        0x83,0x75,0x81,0x3c,0x00,0x0b,0x91,0x3f,0x6e,0x83,0x75,0x81,0x3f,0x00,0x0b,0x91,
        0x3d,0x6e,0x86,0x55,0x81,0x3d,0x00,0x91,0x2b,0x91,0x3d,0x6e,0x86,0x55,0x81,0x3d,
        0x00,0x81,0x2b,0x91,0x38,0x6e,0x86,0x55,0x81,0x38,0x00,0x81,0x2b,0x91,0x35,0x6e,
        0x86,0x55,0x81,0x35,0x00,0x81,0x2b,0x91,0x31,0x6e,0x86,0x55,0x81,0x31,0x00,0x81,
        0x2b,0x91,0x33,0x6e,0x86,0x55,0x81,0x33,0x00,0x81,0x2b,0x91,0x35,0x6e,0x86,0x55,
        0x81,0x35,0x00,0x81,0x2b,0x91,0x39,0x6e,0x86,0x55,0x81,0x39,0x00,0x81,0x2b,0x91,
        0x3b,0x6e,0x86,0x55,0x81,0x3b,0x00,0x81,0x2b,0x91,0x3d,0x6e,0x86,0x55,0x81,0x3d,
        0x00,0x81,0x2b,0x91,0x36,0x6e,0x96,0x00,0x81,0x36,0x00,0x00,0xff,0x2f,0x00,
};
